<svg width="80" height="24" viewBox="0 0 80 24" fill="none" xmlns="http://www.w3.org/2000/svg">
<path d="M0 11.999C0 17.9481 4.64821 22.8129 10.5106 23.1584C10.7318 23.1721 10.9553 23.1778 11.1799 23.1778H20.58C21.5617 23.1778 22.3586 22.3808 22.3586 21.3992V11.999C22.3586 11.8292 22.354 11.6593 22.3472 11.4906C22.0804 5.55289 17.1825 0.820312 11.1787 0.820312C5.00506 0.820312 0 5.82537 0 11.999ZM5.68684 6.24835L6.09728 6.39656L20.3965 11.4917L20.458 11.5134H20.4603C20.5584 11.5339 20.6519 11.5681 20.7385 11.6125C21.0657 11.7813 21.2949 12.1108 21.3245 12.4973C21.3268 12.5246 21.3279 12.5531 21.3279 12.5805V21.2054C21.3279 21.7047 20.9232 22.1083 20.4238 22.1083H11.5698C11.2243 22.1083 10.9268 21.9054 10.79 21.6124V21.609C10.7649 21.5588 10.7466 21.5052 10.7329 21.4505L10.5095 20.8155L5.44514 6.50031C5.38129 6.3464 5.53065 6.19021 5.68684 6.24835Z" fill="#101217"/>
<path d="M18.6202 15.3127L16.6125 17.3113L14.6048 19.3088L13.1808 15.8702L11.7579 12.4316L15.1885 13.8727L18.6202 15.3127Z" fill="#101217"/>
<path d="M26.9589 10.8356C27.2941 10.0352 27.7513 9.34203 28.3305 8.75487C28.9097 8.16772 29.5994 7.70712 30.3998 7.37193C31.2001 7.03674 32.0655 6.86914 32.9946 6.86914C34.047 6.86914 34.9419 7.05156 35.6807 7.41753C36.4195 7.7835 37.0865 8.3775 37.6816 9.20065V7.16557H39.7395V19.7181H37.6816V17.7058C37.0261 18.5438 36.3477 19.1389 35.6465 19.489C34.9454 19.839 34.0834 20.0145 33.0631 20.0145C32.1179 20.0145 31.2412 19.8504 30.434 19.5232C29.6256 19.196 28.9279 18.7422 28.3419 18.163C27.7547 17.5838 27.2941 16.8941 26.9589 16.0937C26.6237 15.2934 26.4561 14.4212 26.4561 13.476C26.4561 12.5309 26.6237 11.6359 26.9589 10.8356ZM28.9826 15.2717C29.2186 15.8281 29.539 16.3126 29.9426 16.7242C30.3462 17.1358 30.8262 17.4596 31.3825 17.6956C31.9389 17.9316 32.5443 18.0501 33.1999 18.0501C33.8554 18.0501 34.4312 17.9327 34.9716 17.6956C35.512 17.4596 35.9817 17.1358 36.3773 16.7242C36.7741 16.3126 37.0819 15.8292 37.3031 15.2717C37.5243 14.7153 37.6349 14.102 37.6349 13.4316C37.6349 12.7612 37.5209 12.1478 37.2917 11.5915C37.0625 11.0351 36.7467 10.5505 36.3431 10.139C35.9395 9.72738 35.4584 9.40701 34.9032 9.17899C34.3468 8.94983 33.7403 8.83582 33.0859 8.83582C32.4314 8.83582 31.8773 8.95439 31.3369 9.19039C30.7954 9.4264 30.3234 9.75475 29.9198 10.1732C29.5162 10.5927 29.1992 11.0807 28.9712 11.6371C28.7421 12.1934 28.628 12.8 28.628 13.4544C28.628 14.1088 28.7455 14.7153 28.9826 15.2717Z" fill="#101217"/>
<path d="M42.4838 2.82031H44.6329V8.97118C45.1961 8.25519 45.8562 7.71364 46.6109 7.34767C47.3657 6.98169 48.2299 6.79928 49.2058 6.79928C50.1817 6.79928 50.9969 6.96687 51.7893 7.30206C52.5817 7.63725 53.2714 8.10242 53.8586 8.69641C54.4457 9.29041 54.9029 9.99157 55.2301 10.7999C55.5573 11.6082 55.7215 12.477 55.7215 13.4062C55.7215 14.3354 55.5619 15.2281 55.2415 16.0353C54.9212 16.8436 54.472 17.5413 53.8928 18.1274C53.3136 18.7145 52.6307 19.1751 51.8463 19.5103C51.0608 19.8455 50.2034 20.0131 49.2742 20.0131C48.2687 20.0131 47.3725 19.8227 46.5881 19.4419C45.8026 19.0611 45.1208 18.4968 44.5417 17.75V19.7167H42.4838V2.82031ZM50.8521 17.7055C51.4005 17.4764 51.8771 17.1537 52.2807 16.7341C52.6843 16.3146 53.0012 15.8232 53.2293 15.2589C53.4584 14.6945 53.5724 14.0777 53.5724 13.4062C53.5724 12.7347 53.4584 12.1144 53.2293 11.5433C53.0001 10.9721 52.6809 10.4795 52.2693 10.068C51.8577 9.65638 51.3732 9.33601 50.8179 9.10799C50.2616 8.87883 49.6482 8.76482 48.9778 8.76482C48.3074 8.76482 47.7431 8.88681 47.1947 9.13079C46.6463 9.37477 46.1731 9.70198 45.7775 10.1136C45.3808 10.5251 45.0684 11.0165 44.8404 11.5889C44.6112 12.16 44.4972 12.7746 44.4972 13.429C44.4972 14.0834 44.6112 14.6751 44.8404 15.2463C45.0695 15.8175 45.3888 16.31 45.8003 16.7216C46.2119 17.1332 46.6953 17.457 47.2528 17.693C47.8092 17.929 48.4077 18.0475 49.0473 18.0475C49.6869 18.0475 50.3049 17.9335 50.8533 17.7044L50.8521 17.7055Z" fill="#101217"/>
<path d="M69.4632 15.7164C69.25 16.3571 68.941 16.9397 68.5374 17.4653C68.1327 17.9909 67.6686 18.4446 67.1431 18.8254C66.6175 19.2062 66.0337 19.5004 65.3941 19.7056C64.7545 19.9119 64.091 20.0145 63.4047 20.0145C62.4595 20.0145 61.5828 19.8435 60.7756 19.5004C59.9672 19.1572 59.2627 18.6886 58.6607 18.0946C58.0587 17.5006 57.5821 16.8029 57.2321 16.0025C56.881 15.2022 56.7065 14.3368 56.7065 13.4076C56.7065 12.4785 56.8776 11.6393 57.2207 10.847C57.5639 10.0546 58.0279 9.36027 58.6151 8.76627C59.2022 8.17228 59.8954 7.70712 60.6958 7.37193C61.4961 7.03674 62.3455 6.86914 63.245 6.86914C64.1446 6.86914 65.0168 7.04016 65.8171 7.38333C66.6175 7.7265 67.3152 8.19166 67.9092 8.77768C68.5032 9.36483 68.9729 10.0546 69.315 10.847C69.6581 11.6393 69.8291 12.4933 69.8291 13.4076C69.8291 13.5604 69.8212 13.7018 69.8063 13.8306C69.7915 13.9606 69.7676 14.1008 69.7379 14.2536H58.9457C58.9913 14.802 59.1395 15.3059 59.3915 15.7631C59.6435 16.2203 59.9627 16.6205 60.3515 16.9636C60.7402 17.3068 61.194 17.5736 61.7116 17.764C62.2292 17.9544 62.7787 18.0501 63.3579 18.0501C64.1959 18.0501 64.9541 17.8438 65.6336 17.4322C66.3119 17.0206 66.8341 16.4494 67.2001 15.7175H69.4632V15.7164ZM67.6572 12.3553C67.3984 11.2426 66.8831 10.3772 66.1135 9.76045C65.344 9.14365 64.3943 8.83468 63.2667 8.83468C62.7183 8.83468 62.2075 8.91449 61.7344 9.07524C61.2613 9.23486 60.8383 9.472 60.4655 9.78439C60.0915 10.0968 59.7757 10.4707 59.5169 10.9051C59.257 11.3395 59.0666 11.824 58.9457 12.3576H67.6572V12.3553Z" fill="#101217"/>
<path d="M73.0944 13.2941L68.9102 7.16602H71.3341L74.3519 11.6478L77.347 7.16602H79.7709L75.5867 13.2941L80 19.7186H77.4849L74.3519 14.9392L71.2189 19.7186H68.7039L73.0944 13.2941Z" fill="#101217"/>
<path d="M41.2593 7.16602H39.7395V8.83513H41.2593V7.16602Z" fill="#101217"/>
<path d="M42.4838 18.0488H40.964V19.7179H42.4838V18.0488Z" fill="#101217"/>
</svg>
