<svg xmlns="http://www.w3.org/2000/svg" width="80" height="24" viewBox="0 0 80 24" fill="none">
  <path d="M0 12C0 17.9491 4.64821 22.8139 10.5106 23.1594C10.7318 23.173 10.9553 23.1787 11.1799 23.1787H20.58C21.5617 23.1787 22.3586 22.3818 22.3586 21.4002V12C22.3586 11.8301 22.354 11.6603 22.3472 11.4915C22.0804 5.55386 17.1825 0.821289 11.1787 0.821289C5.00506 0.821289 0 5.82635 0 12ZM5.68684 6.24933L6.09728 6.39754L20.3965 11.4927L20.458 11.5143H20.4603C20.5584 11.5349 20.6519 11.5691 20.7385 11.6135C21.0657 11.7823 21.2949 12.1117 21.3245 12.4982C21.3268 12.5256 21.3279 12.5541 21.3279 12.5815V21.2064C21.3279 21.7057 20.9232 22.1093 20.4238 22.1093H11.5698C11.2243 22.1093 10.9268 21.9064 10.79 21.6134V21.61C10.7649 21.5598 10.7466 21.5062 10.7329 21.4515L10.5095 20.8164L5.44514 6.50129C5.38129 6.34738 5.53065 6.19118 5.68684 6.24933Z" fill="white"/>
  <path d="M18.6202 15.3144L16.6125 17.313L14.6048 19.3105L13.1808 15.8719L11.7579 12.4333L15.1885 13.8744L18.6202 15.3144Z" fill="white"/>
  <path d="M26.9589 10.8365C27.2941 10.0362 27.7513 9.343 28.3305 8.75585C28.9097 8.1687 29.5994 7.70809 30.3998 7.3729C31.2001 7.03771 32.0655 6.87012 32.9946 6.87012C34.047 6.87012 34.9419 7.05253 35.6807 7.41851C36.4195 7.78448 37.0865 8.37848 37.6816 9.20163V7.16654H39.7395V19.7191H37.6816V17.7068C37.0261 18.5448 36.3477 19.1399 35.6465 19.4899C34.9454 19.8399 34.0834 20.0155 33.0631 20.0155C32.1179 20.0155 31.2412 19.8513 30.434 19.5241C29.6256 19.1969 28.9279 18.7432 28.3419 18.164C27.7547 17.5848 27.2941 16.8951 26.9589 16.0947C26.6237 15.2943 26.4561 14.4222 26.4561 13.477C26.4561 12.5319 26.6237 11.6369 26.9589 10.8365ZM28.9826 15.2727C29.2186 15.8291 29.539 16.3136 29.9426 16.7252C30.3462 17.1368 30.8262 17.4605 31.3825 17.6966C31.9389 17.9326 32.5443 18.0511 33.1999 18.0511C33.8554 18.0511 34.4312 17.9337 34.9716 17.6966C35.512 17.4605 35.9817 17.1368 36.3773 16.7252C36.7741 16.3136 37.0819 15.8302 37.3031 15.2727C37.5243 14.7163 37.6349 14.1029 37.6349 13.4326C37.6349 12.7622 37.5209 12.1488 37.2917 11.5924C37.0625 11.0361 36.7467 10.5515 36.3431 10.1399C35.9395 9.72836 35.4584 9.40799 34.9032 9.17997C34.3468 8.95081 33.7403 8.8368 33.0859 8.8368C32.4314 8.8368 31.8773 8.95537 31.3369 9.19137C30.7954 9.42737 30.3234 9.75572 29.9198 10.1741C29.5162 10.5937 29.1992 11.0817 28.9712 11.638C28.7421 12.1944 28.628 12.8009 28.628 13.4554C28.628 14.1098 28.7455 14.7163 28.9826 15.2727Z" fill="white"/>
  <path d="M42.4838 2.82129H44.6329V8.97215C45.1961 8.25617 45.8562 7.71462 46.6109 7.34864C47.3657 6.98267 48.2299 6.80025 49.2058 6.80025C50.1817 6.80025 50.9969 6.96785 51.7893 7.30304C52.5817 7.63823 53.2714 8.10339 53.8586 8.69739C54.4457 9.29138 54.9029 9.99255 55.2301 10.8009C55.5573 11.6092 55.7215 12.478 55.7215 13.4072C55.7215 14.3363 55.5619 15.229 55.2415 16.0362C54.9212 16.8446 54.472 17.5423 53.8928 18.1283C53.3136 18.7155 52.6307 19.1761 51.8463 19.5113C51.0608 19.8465 50.2034 20.0141 49.2742 20.0141C48.2687 20.0141 47.3725 19.8237 46.5881 19.4429C45.8026 19.0621 45.1208 18.4977 44.5417 17.751V19.7176H42.4838V2.82129ZM50.8521 17.7065C51.4005 17.4773 51.8771 17.1547 52.2807 16.7351C52.6843 16.3156 53.0012 15.8242 53.2293 15.2598C53.4584 14.6955 53.5724 14.0787 53.5724 13.4072C53.5724 12.7356 53.4584 12.1154 53.2293 11.5442C53.0001 10.973 52.6809 10.4805 52.2693 10.0689C51.8577 9.65736 51.3732 9.33699 50.8179 9.10897C50.2616 8.87981 49.6482 8.76579 48.9778 8.76579C48.3074 8.76579 47.7431 8.88779 47.1947 9.13177C46.6463 9.37575 46.1731 9.70296 45.7775 10.1145C45.3808 10.5261 45.0684 11.0175 44.8404 11.5898C44.6112 12.161 44.4972 12.7755 44.4972 13.43C44.4972 14.0844 44.6112 14.6761 44.8404 15.2473C45.0695 15.8185 45.3888 16.311 45.8003 16.7226C46.2119 17.1342 46.6953 17.458 47.2528 17.694C47.8092 17.93 48.4077 18.0485 49.0473 18.0485C49.6869 18.0485 50.3049 17.9345 50.8533 17.7054L50.8521 17.7065Z" fill="white"/>
  <path d="M69.4632 15.7173C69.25 16.3581 68.941 16.9407 68.5374 17.4662C68.1327 17.9918 67.6686 18.4456 67.1431 18.8264C66.6175 19.2072 66.0337 19.5013 65.3941 19.7066C64.7545 19.9129 64.091 20.0155 63.4047 20.0155C62.4595 20.0155 61.5828 19.8445 60.7756 19.5013C59.9672 19.1582 59.2627 18.6896 58.6607 18.0956C58.0587 17.5016 57.5821 16.8038 57.2321 16.0035C56.881 15.2031 56.7065 14.3378 56.7065 13.4086C56.7065 12.4794 56.8776 11.6403 57.2207 10.8479C57.5639 10.0556 58.0279 9.36125 58.6151 8.76725C59.2022 8.17326 59.8954 7.70809 60.6958 7.3729C61.4961 7.03771 62.3455 6.87012 63.245 6.87012C64.1446 6.87012 65.0168 7.04113 65.8171 7.3843C66.6175 7.72748 67.3152 8.19264 67.9092 8.77865C68.5032 9.36581 68.9729 10.0556 69.315 10.8479C69.6581 11.6403 69.8291 12.4943 69.8291 13.4086C69.8291 13.5614 69.8212 13.7028 69.8063 13.8316C69.7915 13.9616 69.7676 14.1018 69.7379 14.2546H58.9457C58.9913 14.803 59.1395 15.3069 59.3915 15.7641C59.6435 16.2213 59.9627 16.6214 60.3515 16.9646C60.7402 17.3078 61.194 17.5746 61.7116 17.765C62.2292 17.9554 62.7787 18.0511 63.3579 18.0511C64.1959 18.0511 64.9541 17.8448 65.6336 17.4332C66.3119 17.0216 66.8341 16.4504 67.2001 15.7185H69.4632V15.7173ZM67.6572 12.3563C67.3984 11.2436 66.8831 10.3782 66.1135 9.76142C65.344 9.14463 64.3943 8.83566 63.2667 8.83566C62.7183 8.83566 62.2075 8.91546 61.7344 9.07622C61.2613 9.23583 60.8383 9.47298 60.4655 9.78536C60.0915 10.0978 59.7757 10.4717 59.5169 10.9061C59.257 11.3405 59.0666 11.825 58.9457 12.3586H67.6572V12.3563Z" fill="white"/>
  <path d="M73.0944 13.2946L68.9102 7.1665H71.3341L74.3519 11.6483L77.347 7.1665H79.7709L75.5867 13.2946L80 19.7191H77.4849L74.3519 14.9397L71.2189 19.7191H68.7039L73.0944 13.2946Z" fill="white"/>
  <path d="M41.2593 7.1665H39.7395V8.83562H41.2593V7.1665Z" fill="white"/>
  <path d="M42.4838 18.0498H40.964V19.7189H42.4838V18.0498Z" fill="white"/>
</svg>