<svg xmlns="http://www.w3.org/2000/svg" width="80" height="24" viewBox="0 0 80 24" fill="none">
  <path d="M0 12C0 17.9491 4.64821 22.8139 10.5106 23.1594C10.7318 23.173 10.9553 23.1787 11.1799 23.1787H20.58C21.5617 23.1787 22.3586 22.3818 22.3586 21.4002V12C22.3586 11.8301 22.354 11.6603 22.3472 11.4915C22.0804 5.55386 17.1825 0.821289 11.1787 0.821289C5.00506 0.821289 0 5.82635 0 12ZM5.68684 6.24933L6.09728 6.39754L20.3965 11.4927L20.458 11.5143H20.4603C20.5584 11.5349 20.6519 11.5691 20.7385 11.6135C21.0657 11.7823 21.2949 12.1117 21.3245 12.4982C21.3268 12.5256 21.3279 12.5541 21.3279 12.5815V21.2064C21.3279 21.7057 20.9232 22.1093 20.4238 22.1093H11.5698C11.2243 22.1093 10.9268 21.9064 10.79 21.6134V21.61C10.7649 21.5598 10.7466 21.5062 10.7329 21.4515L10.5095 20.8164L5.44514 6.50129C5.38129 6.34738 5.53065 6.19118 5.68684 6.24933Z" fill="white"/>
  <path d="M18.6201 15.3146L16.6124 17.3132L14.6047 19.3107L13.1807 15.8721L11.7578 12.4336L15.1884 13.8747L18.6201 15.3146Z" fill="white"/>
  <path d="M26.9588 10.8365C27.294 10.0362 27.7512 9.343 28.3304 8.75585C28.9096 8.1687 29.5993 7.70809 30.3997 7.3729C31.2 7.03771 32.0654 6.87012 32.9946 6.87012C34.0469 6.87012 34.9419 7.05253 35.6806 7.41851C36.4194 7.78448 37.0864 8.37848 37.6815 9.20163V7.16654H39.7394V19.7191H37.6815V17.7068C37.026 18.5448 36.3476 19.1399 35.6464 19.4899C34.9453 19.8399 34.0834 20.0155 33.063 20.0155C32.1178 20.0155 31.2411 19.8513 30.4339 19.5241C29.6255 19.1969 28.9278 18.7432 28.3418 18.164C27.7546 17.5848 27.294 16.8951 26.9588 16.0947C26.6237 15.2943 26.4561 14.4222 26.4561 13.477C26.4561 12.5319 26.6237 11.6369 26.9588 10.8365ZM28.9825 15.2727C29.2185 15.8291 29.5389 16.3136 29.9425 16.7252C30.3461 17.1368 30.8261 17.4605 31.3824 17.6966C31.9388 17.9326 32.5442 18.0511 33.1998 18.0511C33.8553 18.0511 34.4311 17.9337 34.9715 17.6966C35.5119 17.4605 35.9816 17.1368 36.3772 16.7252C36.774 16.3136 37.0818 15.8302 37.303 15.2727C37.5242 14.7163 37.6348 14.1029 37.6348 13.4326C37.6348 12.7622 37.5208 12.1488 37.2916 11.5924C37.0624 11.0361 36.7466 10.5515 36.343 10.1399C35.9394 9.72836 35.4583 9.40799 34.9031 9.17997C34.3467 8.95081 33.7402 8.8368 33.0858 8.8368C32.4313 8.8368 31.8772 8.95537 31.3368 9.19137C30.7953 9.42737 30.3233 9.75572 29.9197 10.1741C29.5161 10.5937 29.1991 11.0817 28.9711 11.638C28.742 12.1944 28.628 12.8009 28.628 13.4554C28.628 14.1098 28.7454 14.7163 28.9825 15.2727Z" fill="white"/>
  <path d="M42.4839 2.82129H44.633V8.97215C45.1962 8.25617 45.8563 7.71462 46.6111 7.34864C47.3658 6.98267 48.23 6.80025 49.2059 6.80025C50.1819 6.80025 50.997 6.96785 51.7894 7.30304C52.5818 7.63823 53.2716 8.10339 53.8587 8.69739C54.4459 9.29138 54.903 9.99255 55.2303 10.8009C55.5575 11.6092 55.7216 12.478 55.7216 13.4072C55.7216 14.3363 55.562 15.229 55.2417 16.0362C54.9213 16.8446 54.4721 17.5423 53.8929 18.1283C53.3137 18.7155 52.6308 19.1761 51.8464 19.5113C51.0609 19.8465 50.2035 20.0141 49.2743 20.0141C48.2688 20.0141 47.3727 19.8237 46.5883 19.4429C45.8027 19.0621 45.1209 18.4977 44.5418 17.751V19.7176H42.4839V2.82129ZM50.8523 17.7065C51.4006 17.4773 51.8772 17.1547 52.2808 16.7351C52.6844 16.3156 53.0014 15.8242 53.2294 15.2598C53.4585 14.6955 53.5725 14.0787 53.5725 13.4072C53.5725 12.7356 53.4585 12.1154 53.2294 11.5442C53.0002 10.973 52.681 10.4805 52.2694 10.0689C51.8578 9.65736 51.3733 9.33699 50.8181 9.10897C50.2617 8.87981 49.6483 8.76579 48.9779 8.76579C48.3075 8.76579 47.7432 8.88779 47.1948 9.13177C46.6464 9.37575 46.1733 9.70296 45.7776 10.1145C45.3809 10.5261 45.0685 11.0175 44.8405 11.5898C44.6113 12.161 44.4973 12.7755 44.4973 13.43C44.4973 14.0844 44.6113 14.6761 44.8405 15.2473C45.0696 15.8185 45.3889 16.311 45.8005 16.7226C46.212 17.1342 46.6954 17.458 47.2529 17.694C47.8093 17.93 48.4079 18.0485 49.0475 18.0485C49.6871 18.0485 50.305 17.9345 50.8534 17.7054L50.8523 17.7065Z" fill="white"/>
  <path d="M69.4632 15.7173C69.25 16.3581 68.941 16.9407 68.5374 17.4662C68.1327 17.9918 67.6686 18.4456 67.1431 18.8264C66.6175 19.2072 66.0337 19.5013 65.3941 19.7066C64.7545 19.9129 64.091 20.0155 63.4047 20.0155C62.4595 20.0155 61.5828 19.8445 60.7756 19.5013C59.9672 19.1582 59.2627 18.6896 58.6607 18.0956C58.0587 17.5016 57.5821 16.8038 57.2321 16.0035C56.881 15.2031 56.7065 14.3378 56.7065 13.4086C56.7065 12.4794 56.8776 11.6403 57.2207 10.8479C57.5639 10.0556 58.0279 9.36125 58.6151 8.76725C59.2022 8.17326 59.8954 7.70809 60.6958 7.3729C61.4961 7.03771 62.3455 6.87012 63.245 6.87012C64.1446 6.87012 65.0168 7.04113 65.8171 7.3843C66.6175 7.72748 67.3152 8.19264 67.9092 8.77865C68.5032 9.36581 68.9729 10.0556 69.315 10.8479C69.6581 11.6403 69.8291 12.4943 69.8291 13.4086C69.8291 13.5614 69.8212 13.7028 69.8063 13.8316C69.7915 13.9616 69.7676 14.1018 69.7379 14.2546H58.9457C58.9913 14.803 59.1395 15.3069 59.3915 15.7641C59.6435 16.2213 59.9627 16.6214 60.3515 16.9646C60.7402 17.3078 61.194 17.5746 61.7116 17.765C62.2292 17.9554 62.7787 18.0511 63.3579 18.0511C64.1959 18.0511 64.9541 17.8448 65.6336 17.4332C66.3119 17.0216 66.8341 16.4504 67.2001 15.7185H69.4632V15.7173ZM67.6572 12.3563C67.3984 11.2436 66.8831 10.3782 66.1135 9.76142C65.344 9.14463 64.3943 8.83566 63.2667 8.83566C62.7183 8.83566 62.2075 8.91546 61.7344 9.07622C61.2613 9.23583 60.8383 9.47298 60.4655 9.78536C60.0915 10.0978 59.7757 10.4717 59.5169 10.9061C59.257 11.3405 59.0666 11.825 58.9457 12.3586H67.6572V12.3563Z" fill="white"/>
  <path d="M73.0944 13.2941L68.9102 7.16602H71.3341L74.3519 11.6478L77.347 7.16602H79.7709L75.5867 13.2941L80 19.7186H77.4849L74.3519 14.9392L71.2189 19.7186H68.7039L73.0944 13.2941Z" fill="white"/>
  <path d="M41.2593 7.16602H39.7395V8.83513H41.2593V7.16602Z" fill="white"/>
  <path d="M42.4836 18.0498H40.9639V19.7189H42.4836V18.0498Z" fill="white"/>
</svg>