<svg width="20" height="20" viewBox="0 0 20 20" fill="none" xmlns="http://www.w3.org/2000/svg">
<path d="M5.80005 1.66663C6.14799 1.66663 6.43004 1.92492 6.43004 2.24355V3.40732C6.98886 3.3974 7.61523 3.3974 8.32 3.3974H8.32002H11.68H11.68C12.3848 3.3974 13.0112 3.3974 13.57 3.40732V2.24355C13.57 1.92492 13.852 1.66663 14.2 1.66663C14.5479 1.66663 14.83 1.92492 14.83 2.24355V3.45836C16.039 3.54702 16.8327 3.76461 17.4158 4.29861C17.9989 4.8326 18.2365 5.55945 18.3333 6.66663V7.49996H1.66667V6.66663C1.76349 5.55945 2.00109 4.8326 2.58421 4.29861C3.16733 3.76461 3.96103 3.54702 5.17006 3.45836V2.24355C5.17006 1.92492 5.45212 1.66663 5.80005 1.66663Z" fill="#1C274C"/>
<path opacity="0.5" d="M18.3333 11.6667V10C18.3333 9.3008 18.3228 8.05439 18.312 7.5H1.67155C1.6608 8.05439 1.67137 9.3008 1.67137 10V11.6667C1.67137 14.8094 1.67137 16.3807 2.64741 17.357C3.62344 18.3333 5.19435 18.3333 8.33616 18.3333H11.6686C14.8104 18.3333 16.3813 18.3333 17.3573 17.357C18.3333 16.3807 18.3333 14.8094 18.3333 11.6667Z" fill="#1C274C"/>
<path fill-rule="evenodd" clip-rule="evenodd" d="M13.3333 11.0416C13.6785 11.0416 13.9583 11.3214 13.9583 11.6666V12.7083L15 12.7083C15.3452 12.7083 15.625 12.9881 15.625 13.3333C15.625 13.6785 15.3452 13.9583 15 13.9583H13.9583L13.9583 15C13.9583 15.3451 13.6785 15.625 13.3333 15.625C12.9882 15.625 12.7083 15.3451 12.7083 15L12.7083 13.9583L11.6667 13.9583C11.3215 13.9583 11.0417 13.6785 11.0417 13.3333C11.0417 12.9881 11.3215 12.7083 11.6667 12.7083H12.7083V11.6666C12.7083 11.3214 12.9882 11.0416 13.3333 11.0416Z" fill="#1C274C"/>
</svg>
