<svg xmlns="http://www.w3.org/2000/svg" width="32" height="32" viewBox="0 0 32 32" fill="none">
  <path opacity="0.5" d="M13.3332 26.6666H18.6665C23.6948 26.6666 26.209 26.6666 27.7711 25.1045C29.3332 23.5424 29.3332 21.0282 29.3332 15.9999C29.3332 15.4107 29.331 13.856 29.3285 13.3333H2.66683C2.66432 13.856 2.66651 15.4107 2.66651 15.9999C2.66651 21.0282 2.66651 23.5424 4.22861 25.1045C5.7907 26.6666 8.30486 26.6666 13.3332 26.6666H13.3332Z" fill="#1C274C"/>
  <path d="M13.3263 5.3335H18.6734C23.7147 5.3335 26.2353 5.3335 27.8014 6.82121C28.929 7.89237 29.2448 9.43359 29.3332 12.0002V13.3335H2.6665V12.0002C2.7549 9.43359 3.07063 7.89237 4.19825 6.82121C5.76438 5.3335 8.28502 5.3335 13.3263 5.3335Z" fill="#1C274C"/>
  <path d="M16.6667 20.3333C16.1144 20.3333 15.6667 20.781 15.6667 21.3333C15.6667 21.8855 16.1144 22.3333 16.6667 22.3333H18.6667C19.219 22.3333 19.6667 21.8855 19.6667 21.3333C19.6667 20.781 19.219 20.3333 18.6667 20.3333H16.6667Z" fill="#1C274C"/>
  <path d="M8 20.3333C7.44772 20.3333 7 20.781 7 21.3333C7 21.8855 7.44772 22.3333 8 22.3333H13.3333C13.8856 22.3333 14.3333 21.8855 14.3333 21.3333C14.3333 20.781 13.8856 20.3333 13.3333 20.3333H8Z" fill="#1C274C"/>
</svg>