<svg xmlns="http://www.w3.org/2000/svg" width="32" height="32" viewBox="0 0 32 32" fill="none">
  <path opacity="0.5" d="M13.3332 26.6667H18.6665C23.6948 26.6667 26.209 26.6667 27.7711 25.1046C29.3332 23.5425 29.3332 21.0284 29.3332 16C29.3332 15.4108 29.331 13.8561 29.3285 13.3334H2.66683C2.66432 13.8561 2.66651 15.4108 2.66651 16C2.66651 21.0284 2.66651 23.5425 4.22861 25.1046C5.7907 26.6667 8.30486 26.6667 13.3332 26.6667H13.3332Z" fill="white"/>
  <path d="M13.3263 5.33337H18.6734C23.7147 5.33337 26.2353 5.33337 27.8014 6.82109C28.929 7.89225 29.2448 9.43347 29.3332 12V13.3334H2.6665V12C2.7549 9.43347 3.07063 7.89225 4.19825 6.82109C5.76438 5.33337 8.28502 5.33337 13.3263 5.33337Z" fill="white"/>
  <path d="M16.6667 20.3334C16.1144 20.3334 15.6667 20.7811 15.6667 21.3334C15.6667 21.8857 16.1144 22.3334 16.6667 22.3334H18.6667C19.219 22.3334 19.6667 21.8857 19.6667 21.3334C19.6667 20.7811 19.219 20.3334 18.6667 20.3334H16.6667Z" fill="white"/>
  <path d="M8 20.3334C7.44772 20.3334 7 20.7811 7 21.3334C7 21.8857 7.44772 22.3334 8 22.3334H13.3333C13.8856 22.3334 14.3333 21.8857 14.3333 21.3334C14.3333 20.7811 13.8856 20.3334 13.3333 20.3334H8Z" fill="white"/>
</svg>