<svg xmlns="http://www.w3.org/2000/svg" width="18" height="18" viewBox="0 0 18 18" fill="none">
  <path opacity="0.5" d="M13.2188 15.4438C13.6999 15.0354 14.4251 15.0354 14.9062 15.4438C15.2332 15.7212 15.75 15.4996 15.75 15.0821V2.91794C15.75 2.50037 15.2332 2.27882 14.9062 2.55624C14.4251 2.96455 13.6999 2.96455 13.2188 2.55624C12.7376 2.14792 12.0124 2.14792 11.5312 2.55624C11.0501 2.96455 10.3249 2.96455 9.84375 2.55624C9.36256 2.14792 8.63744 2.14792 8.15625 2.55624C7.67506 2.96455 6.94994 2.96455 6.46875 2.55624C5.98756 2.14792 5.26244 2.14792 4.78125 2.55624C4.30006 2.96455 3.57494 2.96455 3.09375 2.55624C2.76682 2.27882 2.25 2.50037 2.25 2.91794V15.0821C2.25 15.4996 2.76682 15.7212 3.09375 15.4438C3.57494 15.0354 4.30006 15.0354 4.78125 15.4438C5.26244 15.8521 5.98756 15.8521 6.46875 15.4438C6.94994 15.0354 7.67506 15.0354 8.15625 15.4438C8.63744 15.8521 9.36256 15.8521 9.84375 15.4438C10.3249 15.0354 11.0501 15.0354 11.5312 15.4438C12.0124 15.8521 12.7376 15.8521 13.2188 15.4438Z" fill="white"/>
  <path d="M5.0625 11.625C5.0625 11.3143 5.31434 11.0625 5.625 11.0625H12.375C12.6857 11.0625 12.9375 11.3143 12.9375 11.625C12.9375 11.9357 12.6857 12.1875 12.375 12.1875H5.625C5.31434 12.1875 5.0625 11.9357 5.0625 11.625Z" fill="white"/>
  <path d="M5.0625 9C5.0625 8.68934 5.31434 8.4375 5.625 8.4375H12.375C12.6857 8.4375 12.9375 8.68934 12.9375 9C12.9375 9.31066 12.6857 9.5625 12.375 9.5625H5.625C5.31434 9.5625 5.0625 9.31066 5.0625 9Z" fill="white"/>
  <path d="M5.0625 6.375C5.0625 6.06434 5.31434 5.8125 5.625 5.8125H12.375C12.6857 5.8125 12.9375 6.06434 12.9375 6.375C12.9375 6.68566 12.6857 6.9375 12.375 6.9375H5.625C5.31434 6.9375 5.0625 6.68566 5.0625 6.375Z" fill="white"/>
</svg>