<svg width="76" height="21" viewBox="0 0 76 21" fill="none" xmlns="http://www.w3.org/2000/svg">
<g clip-path="url(#clip0_7764_6001)">
<path fill-rule="evenodd" clip-rule="evenodd" d="M19.0674 10.5772C19.0674 14.2461 13.2031 20.1104 9.5342 20.1104C5.8653 20.1104 0 14.2461 0 10.5772C0 6.90827 5.86435 1.04297 9.53325 1.04297C13.2021 1.04297 19.0665 6.90732 19.0665 10.5762L19.0674 10.5772ZM13.3465 10.5772C13.3465 12.0449 11.001 14.3905 9.53325 14.3905C8.0655 14.3905 5.71995 12.0449 5.71995 10.5772C5.71995 9.10942 8.0655 6.76387 9.53325 6.76387C11.001 6.76387 13.3465 9.10942 13.3465 10.5772Z" fill="#0065FF"/>
<path d="M29.4491 20.1072C33.0068 20.1072 35.2365 17.8776 35.9129 14.9459H32.0046C31.5286 15.9481 30.7772 16.6996 29.4491 16.6996C27.8455 16.6996 26.6684 15.5472 26.6684 13.5674C26.6684 11.5876 27.8455 10.4353 29.4491 10.4353C30.7772 10.4353 31.5286 11.1867 32.0046 12.189H35.9129C35.2365 9.25728 33.0068 7.02763 29.4491 7.02763C25.6405 7.02763 22.8599 9.93367 22.8599 13.5665C22.8599 17.1993 25.6405 20.1053 29.4491 20.1053V20.1072ZM37.2476 19.8317H41.0305V1.04073H37.2476V19.8317ZM45.1706 5.60073C46.4987 5.60073 47.5504 4.54813 47.5504 3.24568C47.5504 1.94323 46.4987 0.890625 45.1706 0.890625C43.8425 0.890625 42.8156 1.94323 42.8156 3.24568C42.8156 4.54813 43.8929 5.60073 45.1706 5.60073ZM43.2915 19.8317H47.0744V7.30408H43.2915V19.8308V19.8317ZM55.1741 20.1072C58.7319 20.1072 60.9615 17.8776 61.6379 14.9459H57.7296C57.2537 15.9481 56.5022 16.6996 55.1741 16.6996C53.5705 16.6996 52.3935 15.5472 52.3935 13.5674C52.3935 11.5876 53.5705 10.4353 55.1741 10.4353C56.5022 10.4353 57.2537 11.1867 57.7296 12.189H61.6379C60.9615 9.25728 58.7319 7.02763 55.1741 7.02763C51.3656 7.02763 48.5849 9.93367 48.5849 13.5665C48.5849 17.1993 51.3656 20.1053 55.1741 20.1053V20.1072ZM71.4153 19.8317H76L70.2877 12.967L74.898 7.30503H70.4131L66.7556 11.79V1.04073H62.9727V19.8317H66.7556V14.2448L71.4153 19.8317Z" fill="#101217"/>
</g>
<defs>
<clipPath id="clip0_7764_6001">
<rect width="76" height="19.2175" fill="white" transform="translate(0 0.890625)"/>
</clipPath>
</defs>
</svg>
