<svg xmlns="http://www.w3.org/2000/svg" width="76" height="21" viewBox="0 0 76 21" fill="none">
  <g clip-path="url(#clip0_10598_20789)">
    <path fill-rule="evenodd" clip-rule="evenodd" d="M19.0674 10.5772C19.0674 14.2461 13.2031 20.1104 9.5342 20.1104C5.8653 20.1104 0 14.2461 0 10.5772C0 6.90827 5.86435 1.04297 9.53325 1.04297C13.2021 1.04297 19.0665 6.90732 19.0665 10.5762L19.0674 10.5772ZM13.3465 10.5772C13.3465 12.0449 11.001 14.3905 9.53325 14.3905C8.0655 14.3905 5.71995 12.0449 5.71995 10.5772C5.71995 9.10942 8.0655 6.76387 9.53325 6.76387C11.001 6.76387 13.3465 9.10942 13.3465 10.5772Z" fill="#0065FF"/>
    <path d="M29.4491 20.1082C33.0068 20.1082 35.2365 17.8786 35.9129 14.9469H32.0046C31.5286 15.9491 30.7772 16.7006 29.4491 16.7006C27.8455 16.7006 26.6684 15.5482 26.6684 13.5684C26.6684 11.5886 27.8455 10.4363 29.4491 10.4363C30.7772 10.4363 31.5286 11.1877 32.0046 12.19H35.9129C35.2365 9.25825 33.0068 7.0286 29.4491 7.0286C25.6405 7.0286 22.8599 9.93465 22.8599 13.5675C22.8599 17.2003 25.6405 20.1063 29.4491 20.1063V20.1082ZM37.2476 19.8327H41.0305V1.0417H37.2476V19.8327ZM45.1706 5.6017C46.4987 5.6017 47.5504 4.5491 47.5504 3.24665C47.5504 1.9442 46.4987 0.891602 45.1706 0.891602C43.8425 0.891602 42.8156 1.9442 42.8156 3.24665C42.8156 4.5491 43.8929 5.6017 45.1706 5.6017ZM43.2915 19.8327H47.0744V7.30505H43.2915V19.8318V19.8327ZM55.1741 20.1082C58.7319 20.1082 60.9615 17.8786 61.6379 14.9469H57.7296C57.2537 15.9491 56.5022 16.7006 55.1741 16.7006C53.5705 16.7006 52.3935 15.5482 52.3935 13.5684C52.3935 11.5886 53.5705 10.4363 55.1741 10.4363C56.5022 10.4363 57.2537 11.1877 57.7296 12.19H61.6379C60.9615 9.25825 58.7319 7.0286 55.1741 7.0286C51.3656 7.0286 48.5849 9.93465 48.5849 13.5675C48.5849 17.2003 51.3656 20.1063 55.1741 20.1063V20.1082ZM71.4153 19.8327H76L70.2877 12.968L74.898 7.306H70.4131L66.7556 11.791V1.0417H62.9727V19.8327H66.7556V14.2458L71.4153 19.8327Z" fill="white"/>
  </g>
  <defs>
    <clipPath id="clip0_10598_20789">
      <rect width="76" height="19.2175" fill="white" transform="translate(0 0.891602)"/>
    </clipPath>
  </defs>
</svg>