<svg xmlns="http://www.w3.org/2000/svg" width="72" height="72" viewBox="0 0 72 72" fill="none">
  <path opacity="0.5" d="M47.1354 50.3191L21.6795 24.8633C20.8098 23.9936 20.8098 22.5511 21.6795 21.6813C22.5493 20.8116 23.9918 20.8116 24.8615 21.6813L50.3173 47.1372C51.1871 48.0069 51.1871 49.4494 50.3173 50.3191C49.4476 51.1889 48.0051 51.1889 47.1354 50.3191Z" fill="#8F8BFF"/>
  <path d="M21.6827 50.3191C20.8129 49.4494 20.8129 48.0069 21.6827 47.1372L47.1385 21.6813C48.0082 20.8116 49.4507 20.8116 50.3205 21.6813C51.1902 22.5511 51.1902 23.9936 50.3205 24.8633L24.8646 50.3191C23.9949 51.1889 22.5524 51.1889 21.6827 50.3191Z" fill="#8F8BFF"/>
</svg>