<svg xmlns="http://www.w3.org/2000/svg" width="28" height="28" viewBox="0 0 28 28" fill="none">
  <path fill-rule="evenodd" clip-rule="evenodd" d="M25.6663 13.9997C25.6663 20.4429 20.4429 25.6663 13.9997 25.6663C7.55635 25.6663 2.33301 20.4429 2.33301 13.9997C2.33301 7.55635 7.55635 2.33301 13.9997 2.33301C20.4429 2.33301 25.6663 7.55635 25.6663 13.9997ZM10.4642 10.4643C10.8059 10.1226 11.36 10.1226 11.7017 10.4643L13.9997 12.7622L16.2975 10.4643C16.6393 10.1226 17.1933 10.1226 17.535 10.4643C17.8767 10.806 17.8767 11.36 17.535 11.7017L15.237 13.9997L17.535 16.2975C17.8767 16.6393 17.8767 17.1933 17.535 17.535C17.1933 17.8767 16.6393 17.8767 16.2975 17.535L13.9997 15.2372L11.7017 17.535C11.36 17.8767 10.806 17.8767 10.4643 17.535C10.1226 17.1933 10.1226 16.6393 10.4643 16.2977L12.7622 13.9997L10.4642 11.7017C10.1225 11.36 10.1225 10.806 10.4642 10.4643Z" fill="#FF3347"/>
</svg>