<svg xmlns="http://www.w3.org/2000/svg" width="96" height="20" viewBox="0 0 96 20" fill="none">
  <g clip-path="url(#clip0_9682_17327)">
    <path d="M91.6042 12.0601L96 19.1426L86.9357 19.1397L91.6042 12.0601Z" fill="#E2243B"/>
    <path d="M6.17045 16.0253C8.52389 16.0253 9.94782 15.0365 10.9367 13.573L8.38545 11.7338C7.79215 12.426 7.25817 12.8611 6.36822 12.8611C5.1025 12.8611 4.23232 11.8129 4.23232 10.4285C4.23232 9.08368 5.06295 8.01573 6.42755 8.01573C7.2384 8.01573 7.85148 8.35194 8.36568 9.06391L10.8773 7.24444C9.9676 5.80073 8.50412 4.85144 6.30889 4.85144C2.92705 4.85144 0.573608 7.40265 0.573608 10.4285C0.573608 13.4939 2.94683 16.0253 6.17045 16.0253ZM17.4371 16.0253C20.8782 16.0253 23.3701 13.4741 23.3701 10.4285C23.3701 7.34332 20.898 4.83167 17.4766 4.83167C14.0354 4.83167 11.5436 7.38288 11.5436 10.4285C11.5436 13.5137 14.0157 16.0253 17.4371 16.0253ZM17.4766 12.8413C16.1516 12.8413 15.2023 11.7338 15.2023 10.4285C15.2023 9.10346 16.0725 8.01573 17.4371 8.01573C18.7621 8.01573 19.7114 9.12324 19.7114 10.4285C19.7114 11.7536 18.8412 12.8413 17.4766 12.8413ZM24.9572 15.7682H28.7148V9.95386C28.7148 8.78703 29.3477 8.17395 30.2376 8.17395C31.1276 8.17395 31.7011 8.78703 31.7011 9.95386V15.7682H35.4587V9.95386C35.4587 8.78703 36.1113 8.17395 37.0013 8.17395C37.8912 8.17395 38.4648 8.78703 38.4648 9.95386V15.7682H42.2224V8.74748C42.2224 6.2556 40.838 4.83167 38.5637 4.83167C37.0013 4.83167 35.9136 5.50408 34.984 6.57203C34.4105 5.46452 33.3228 4.83167 31.8989 4.83167C30.3958 4.83167 29.407 5.64251 28.7148 6.53247V5.06899H24.9572V15.7682ZM44.1547 18.9325H47.9123V14.463C48.6045 15.2738 49.5538 16.0056 51.1755 16.0056C53.7069 16.0056 55.9022 13.8895 55.9022 10.4087C55.9022 6.94779 53.7069 4.83167 51.1557 4.83167C49.5538 4.83167 48.6441 5.60296 47.9123 6.49292V5.06899H44.1547V18.9325ZM50.0087 12.8611C48.8023 12.8611 47.8332 11.8524 47.8332 10.4285C47.8332 8.9848 48.8023 7.97618 50.0087 7.97618C51.2348 7.97618 52.2039 8.9848 52.2039 10.389C52.2039 11.8722 51.2348 12.8611 50.0087 12.8611ZM60.5847 16.0056C61.9889 16.0056 62.9975 15.4716 63.7292 14.6607V15.7682H67.4473V9.61766C67.4473 8.11462 67.1111 7.00712 66.3002 6.21604C65.4498 5.36564 64.1446 4.91077 62.2262 4.91077C60.387 4.91077 59.1015 5.24698 57.8951 5.7414L58.6664 8.39149C59.6157 8.01573 60.4858 7.79819 61.6131 7.79819C63.0568 7.79819 63.749 8.43105 63.749 9.53855V9.71654C63.1359 9.499 62.1669 9.30123 61.178 9.30123C58.6664 9.30123 56.9854 10.4483 56.9854 12.6633C56.9854 14.8387 58.5477 16.0056 60.5847 16.0056ZM61.9296 13.6521C61.1583 13.6521 60.6045 13.217 60.6045 12.4853C60.6045 11.6547 61.2374 11.1207 62.3251 11.1207C62.8788 11.1207 63.4128 11.2394 63.7886 11.3976V11.892C63.7886 12.9599 63.0173 13.6521 61.9296 13.6521ZM73.6107 16.0056C76.2212 16.0056 77.9813 14.7794 77.9813 12.426C77.9813 10.3098 76.3003 9.59788 74.1842 8.9848C73.0569 8.64859 72.4438 8.45082 72.4438 8.03551C72.4438 7.6993 72.7405 7.48176 73.314 7.48176C74.1644 7.48176 75.3708 7.85752 76.4783 8.4706L77.7638 6.09738C76.5376 5.30631 74.9159 4.85144 73.3536 4.85144C70.8815 4.85144 69.062 6.11716 69.062 8.39149C69.062 10.5867 70.743 11.2789 72.8591 11.8524C73.9864 12.1491 74.5797 12.3469 74.5797 12.7622C74.5797 13.1775 74.2831 13.3753 73.6304 13.3753C72.5229 13.3753 71.1781 12.9599 69.952 12.1491L68.5478 14.4234C70.0311 15.4914 71.811 16.0056 73.6107 16.0056ZM83.5761 16.0056C86.1867 16.0056 87.9468 14.7794 87.9468 12.426C87.9468 10.3098 86.2658 9.59788 84.1496 8.9848C83.0224 8.64859 82.4093 8.45082 82.4093 8.03551C82.4093 7.6993 82.7059 7.48176 83.2795 7.48176C84.1299 7.48176 85.3363 7.85752 86.4438 8.4706L87.7292 6.09738C86.5031 5.30631 84.8814 4.85144 83.319 4.85144C80.8469 4.85144 79.0274 6.11716 79.0274 8.39149C79.0274 10.5867 80.7085 11.2789 82.8246 11.8524C83.9519 12.1491 84.5452 12.3469 84.5452 12.7622C84.5452 13.1775 84.2485 13.3753 83.5959 13.3753C82.4884 13.3753 81.1436 12.9599 79.9174 12.1491L78.5132 14.4234C79.9965 15.4914 81.7764 16.0056 83.5761 16.0056Z" fill="#26ADE2"/>
  </g>
  <defs>
    <clipPath id="clip0_9682_17327">
      <rect width="96" height="18.9528" fill="white" transform="translate(0 0.52356)"/>
    </clipPath>
  </defs>
</svg>