<svg xmlns="http://www.w3.org/2000/svg" width="14" height="14" viewBox="0 0 14 14" fill="none">
  <path opacity="0.5" d="M5.60354 3.24479C6.05043 3.24479 6.13652 3.15371 7.00006 3.15371C7.8636 3.15371 7.94968 3.24479 8.39656 3.24479C8.76896 3.24479 9.88617 2.33339 10.4448 2.33339C11.0034 2.33339 11.6551 2.66152 11.6551 3.60944V4.70312C11.6539 4.99023 11.5496 5.87031 11.1413 5.63513C11.7899 6.4017 11.6551 7.3392 11.6551 8.16666C11.6551 10.4453 8.58274 11.0833 7.00003 11.0833C5.41733 11.0833 2.345 10.4453 2.345 8.16666C2.34501 7.3392 2.21015 6.4017 2.85876 5.63513C2.45046 5.87031 2.34614 4.99023 2.34501 4.70312V3.60937C2.34501 2.66145 2.99671 2.33333 3.55532 2.33333C4.11392 2.33333 5.23114 3.24479 5.60354 3.24479Z" fill="#1C274C"/>
  <path d="M5.25942 6.45312C4.97427 6.45312 4.78416 6.63831 4.68789 6.79374C4.58748 6.95586 4.53966 7.15236 4.53966 7.34635C4.53966 7.54035 4.58748 7.73685 4.68789 7.89897C4.78416 8.0544 4.97427 8.23958 5.25942 8.23958C5.54458 8.23958 5.73468 8.0544 5.83095 7.89897C5.93136 7.73685 5.97918 7.54035 5.97918 7.34635C5.97918 7.15236 5.93136 6.95586 5.83095 6.79374C5.73468 6.63831 5.54458 6.45312 5.25942 6.45312Z" fill="#1C274C"/>
  <path d="M8.18789 6.79374C8.28416 6.63831 8.47427 6.45312 8.75942 6.45312C9.04458 6.45312 9.23468 6.63831 9.33095 6.79374C9.43136 6.95586 9.47918 7.15236 9.47918 7.34635C9.47918 7.54035 9.43136 7.73685 9.33095 7.89897C9.23468 8.0544 9.04458 8.23958 8.75942 8.23958C8.47427 8.23958 8.28416 8.0544 8.18789 7.89897C8.08748 7.73685 8.03966 7.54035 8.03966 7.34635C8.03966 7.15236 8.08748 6.95586 8.18789 6.79374Z" fill="#1C274C"/>
  <path fill-rule="evenodd" clip-rule="evenodd" d="M6.52057 8.21316C6.66776 8.15612 6.8414 8.13021 7.0113 8.13021C7.18119 8.13021 7.35483 8.15612 7.50202 8.21316C7.5742 8.24113 7.66252 8.2852 7.7403 8.35646C7.81837 8.42798 7.91923 8.56044 7.91923 8.75C7.91923 8.93956 7.81837 9.07202 7.7403 9.14354C7.66252 9.2148 7.5742 9.25887 7.50202 9.28684C7.35483 9.34388 7.18119 9.36979 7.0113 9.36979C6.8414 9.36979 6.66776 9.34388 6.52057 9.28684C6.44839 9.25887 6.36007 9.2148 6.28229 9.14354C6.20422 9.07202 6.10336 8.93956 6.10336 8.75C6.10336 8.56044 6.20422 8.42798 6.28229 8.35646C6.36007 8.2852 6.44839 8.24113 6.52057 8.21316Z" fill="#1C274C"/>
  <path d="M10.4203 7.80208C10.4203 7.56046 10.6161 7.36458 10.8578 7.36458C11.0303 7.36458 11.2371 7.4039 11.4298 7.45131C11.6308 7.50078 11.8494 7.56753 12.0578 7.63876C12.4567 7.77516 12.8798 7.94915 13.0709 8.07259C13.2739 8.20367 13.3322 8.47448 13.2011 8.67746C13.07 8.88043 12.7992 8.93871 12.5962 8.80762C12.5051 8.74877 12.1755 8.60374 11.7747 8.46671C11.5832 8.40122 11.3901 8.34265 11.2207 8.30097C11.043 8.25724 10.9205 8.23958 10.8578 8.23958C10.6161 8.23958 10.4203 8.04371 10.4203 7.80208Z" fill="#1C274C"/>
  <path d="M10.4812 8.82292C10.2396 8.82292 10.0437 9.01879 10.0437 9.26042C10.0437 9.50204 10.2396 9.69792 10.4812 9.69792C10.6015 9.69792 10.8018 9.76514 11.053 9.89789C11.2525 10.0033 11.4355 10.1227 11.5786 10.2162C11.6055 10.2337 11.6312 10.2505 11.6552 10.266C11.8581 10.397 12.1289 10.3388 12.26 10.1358C12.3911 9.93282 12.3328 9.66201 12.1299 9.53092C12.1105 9.51844 12.0885 9.50401 12.064 9.48801C11.9226 9.39555 11.7008 9.25054 11.4618 9.12425C11.1956 8.98356 10.8314 8.82292 10.4812 8.82292Z" fill="#1C274C"/>
  <path d="M2.22556 8.46671C1.82476 8.60374 1.49516 8.74877 1.40403 8.80762C1.20106 8.93871 0.930248 8.88043 0.799161 8.67746C0.668074 8.47448 0.72635 8.20367 0.929324 8.07259C1.12046 7.94915 1.54354 7.77516 1.94248 7.63876C2.15082 7.56753 2.3694 7.50078 2.57048 7.45131C2.76319 7.4039 2.96996 7.36458 3.14249 7.36458C3.38411 7.36458 3.57999 7.56046 3.57999 7.80208C3.57999 8.04371 3.38411 8.23958 3.14249 8.23958C3.0798 8.23958 2.95727 8.25724 2.77952 8.30097C2.61013 8.34265 2.41709 8.40122 2.22556 8.46671Z" fill="#1C274C"/>
  <path d="M2.34511 10.266C2.3691 10.2505 2.39467 10.2338 2.42165 10.2162C2.56476 10.1227 2.74774 10.0033 2.94724 9.89789C3.19845 9.76514 3.39877 9.69792 3.51905 9.69792C3.76068 9.69792 3.95655 9.50204 3.95655 9.26042C3.95655 9.01879 3.76068 8.82292 3.51905 8.82292C3.1689 8.82292 2.8047 8.98356 2.53844 9.12425C2.29944 9.25054 2.07767 9.39555 1.93626 9.48801C1.91184 9.50398 1.8897 9.51846 1.8704 9.53092C1.66743 9.66201 1.60915 9.93282 1.74024 10.1358C1.87133 10.3388 2.14214 10.397 2.34511 10.266Z" fill="#1C274C"/>
</svg>