<svg width="60" height="60" viewBox="0 0 60 60" fill="none" xmlns="http://www.w3.org/2000/svg">
<circle opacity="0.5" cx="29.5" cy="28" r="10" fill="#8D99E4"/>
<path d="M26.0752 25.4474C25.8879 23.3632 24.2806 21.4211 23.5004 20.7105L23.0693 20.3419C24.8079 18.8804 27.0513 18 29.5004 18C31.7137 18 33.7592 18.7191 35.4158 19.9364C35.6498 20.647 35.204 22.1316 34.7359 22.8421C34.5663 23.0995 34.1818 23.419 33.7602 23.7219C32.8097 24.4048 31.6102 24.7425 31.0004 26C30.826 26.3595 30.8335 26.7108 30.9173 27.0163C30.9776 27.2358 31.0161 27.4745 31.0167 27.708C31.0187 28.4629 30.2552 29.0082 29.5004 29C27.5361 28.9786 26.2502 27.3955 26.0752 25.4474Z" fill="#8D99E4"/>
<path d="M30.9365 34.2761C31.9246 32.414 35.2182 32.414 35.2182 32.414C38.6502 32.3782 39.1138 30.2944 39.4237 29.2412C38.869 33.7226 35.3494 37.2849 30.8885 37.9046C30.5659 37.2256 30.1837 35.6946 30.9365 34.2761Z" fill="#8D99E4"/>
<rect x="16" y="30" width="28" height="14" rx="7" fill="#D0CEFF"/>
<path d="M29.14 38.9C29.028 39.236 28.864 39.544 28.648 39.824C28.44 40.096 28.196 40.332 27.916 40.532C27.636 40.732 27.328 40.888 26.992 41C26.664 41.104 26.32 41.156 25.96 41.156C25.472 41.156 25.012 41.068 24.58 40.892C24.156 40.708 23.784 40.46 23.464 40.148C23.144 39.836 22.892 39.472 22.708 39.056C22.532 38.632 22.444 38.176 22.444 37.688C22.444 37.208 22.532 36.76 22.708 36.344C22.892 35.928 23.136 35.564 23.44 35.252C23.752 34.94 24.116 34.696 24.532 34.52C24.948 34.344 25.396 34.256 25.876 34.256C26.356 34.256 26.804 34.348 27.22 34.532C27.644 34.708 28.012 34.952 28.324 35.264C28.636 35.568 28.88 35.928 29.056 36.344C29.24 36.76 29.332 37.208 29.332 37.688C29.332 37.848 29.316 37.996 29.284 38.132H23.62C23.644 38.42 23.72 38.684 23.848 38.924C23.984 39.164 24.152 39.376 24.352 39.56C24.56 39.736 24.8 39.876 25.072 39.98C25.344 40.076 25.632 40.124 25.936 40.124C26.376 40.124 26.772 40.016 27.124 39.8C27.484 39.584 27.76 39.284 27.952 38.9H29.14ZM28.192 37.136C28.056 36.552 27.784 36.1 27.376 35.78C26.976 35.452 26.48 35.288 25.888 35.288C25.312 35.288 24.82 35.456 24.412 35.792C24.004 36.12 23.74 36.568 23.62 37.136H28.192ZM30.4544 34.412H31.5344V35.192C31.8144 34.864 32.1184 34.628 32.4464 34.484C32.7744 34.332 33.1504 34.256 33.5744 34.256C35.3904 34.256 36.2984 35.344 36.2984 37.52V41H35.1704V37.616C35.1704 36.064 34.5784 35.288 33.3944 35.288C32.1864 35.288 31.5824 36.04 31.5824 37.544V41H30.4544V34.412Z" fill="#6A78CF"/>
</svg>
