<svg xmlns="http://www.w3.org/2000/svg" width="28" height="28" viewBox="0 0 28 28" fill="none">
  <path opacity="0.5" d="M25.6673 13.9997C25.6673 20.443 20.444 25.6663 14.0007 25.6663C7.55733 25.6663 2.33398 20.443 2.33398 13.9997C2.33398 7.55635 7.55733 2.33301 14.0007 2.33301C20.444 2.33301 25.6673 7.55635 25.6673 13.9997Z" fill="#F82C3D"/>
  <path d="M10.4653 10.4643C10.807 10.1226 11.361 10.1226 11.7027 10.4643L14.0007 12.7622L16.2986 10.4643C16.6403 10.1226 17.1943 10.1226 17.536 10.4643C17.8777 10.806 17.8777 11.36 17.536 11.7018L15.2381 13.9997L17.536 16.2976C17.8777 16.6393 17.8777 17.1933 17.536 17.535C17.1943 17.8767 16.6403 17.8767 16.2986 17.535L14.0007 15.2371L11.7027 17.5351C11.361 17.8768 10.807 17.8768 10.4653 17.5351C10.1236 17.1934 10.1236 16.6393 10.4653 16.2976L12.7632 13.9997L10.4653 11.7017C10.1236 11.36 10.1236 10.806 10.4653 10.4643Z" fill="#F82C3D"/>
</svg>