<svg width="76" height="26" viewBox="0 0 76 26" fill="none" xmlns="http://www.w3.org/2000/svg">
<g clip-path="url(#clip0_5893_346)">
<path d="M4.81026 0.666016H67.7172C68.438 0.666016 69.067 0.953806 69.4206 1.53076L75.6958 11.7103C76.1809 12.5093 76.0891 13.4782 75.408 14.2785L66.566 24.4581C66.0809 25.0076 65.4518 25.3351 64.7447 25.3351H2.00636C0.762009 25.3351 -0.128771 24.3663 0.0151241 23.1479L2.3476 2.85322C2.49149 1.60887 3.56591 0.666016 4.79656 0.666016" fill="#0CBBBC"/>
<path d="M42.3422 18.1158L43.3111 10.3742C43.9662 9.92881 44.713 9.57524 45.3421 9.57524C46.1671 9.57524 46.5741 10.1906 46.4425 11.2527L45.5915 18.1308H48.5777L49.5082 10.625L49.5342 10.4153C50.1893 9.96993 50.9485 9.59032 51.5912 9.59032C52.4162 9.59032 52.8233 10.2056 52.6917 11.2677L51.8407 18.1459H54.8268L55.7573 10.6401C56.0068 8.54468 54.9324 7.27292 53.0069 7.27292C51.6707 7.27292 50.2564 8.03214 49.3122 8.72695C48.9066 7.79642 48.0281 7.27292 46.7714 7.27292C45.5148 7.27292 44.3211 7.88824 43.3659 8.51727L43.4975 7.56071H40.7073L39.3711 18.1322H42.3573L42.3436 18.1185L42.3422 18.1158ZM59.9755 11.8543C60.277 10.4523 61.2857 9.63965 62.53 9.63965C63.7744 9.63965 64.4555 10.3345 64.4555 11.461C64.4555 11.5925 64.4555 11.7364 64.4418 11.8666H59.9742V11.8529L59.9755 11.8543ZM56.8441 13.2686C56.8044 15.9149 58.7312 18.3652 62.6602 18.3652C64.0622 18.3652 65.2407 18.0897 66.3014 17.4347L66.5111 14.946C65.6464 15.4695 64.3363 15.8367 63.1974 15.8367C61.6913 15.8367 60.3414 15.1817 59.9618 13.6619H67.2717C67.3759 13.3864 67.4677 12.7313 67.4677 12.1023C67.4677 9.31212 65.9218 7.28114 62.752 7.28114C59.5822 7.28114 56.8962 9.16823 56.8564 13.2809M20.5428 15.0241C20.5428 13.8839 21.8789 13.4522 23.2548 13.4522H24.6568L24.4471 15.168C23.8578 15.6394 22.7971 16.1245 21.9063 16.1245C21.1074 16.1245 20.5565 15.6791 20.5565 15.0241M17.5566 15.2598C17.5305 16.9756 18.9325 18.3652 21.0676 18.3652C22.5737 18.3652 23.6742 17.7238 24.3032 17.029L24.1717 18.1034H27.0537L27.7485 12.3791C28.0897 9.54921 27.1592 7.24414 23.5166 7.24414C22.0365 7.24414 20.2413 7.58538 19.2724 8.21304L18.9709 10.5839C19.7575 10.1645 21.2759 9.64102 22.6656 9.64102C24.343 9.64102 24.9322 10.4797 24.8665 11.3568H23.0849C20.5044 11.3568 17.5703 12.3531 17.5429 15.2475M9.29014 15.5352L9.94521 10.3345C10.5866 9.82329 11.2951 9.61362 11.9364 9.63965C13.2068 9.65336 13.9016 10.6743 13.9016 12.2599C13.9016 14.3169 12.8272 16.0725 11.0059 16.0725C10.429 16.0725 9.7739 15.8888 9.29014 15.549M5.59546 21.6008H8.55559L9.04072 17.6046C9.51215 17.9582 10.3769 18.3638 11.4773 18.3638C14.9103 18.3638 16.992 15.3379 16.992 12.0365C16.992 9.2203 15.6558 7.2551 13.1671 7.2551C11.9885 7.2551 10.9004 7.63471 10.0754 8.31582L10.1796 7.52919H7.31124L5.59546 21.5857V21.5994V21.6008ZM36.7097 7.54426L33.5002 14.8541L31.8228 7.54426H28.5214L31.4555 18.1418L29.7397 21.6131H32.989L39.9056 7.5566H36.696L36.7097 7.54289V7.54426Z" fill="white"/>
</g>
<defs>
<clipPath id="clip0_5893_346">
<rect width="76" height="24.6678" fill="white" transform="translate(0 0.666016)"/>
</clipPath>
</defs>
</svg>
