<svg xmlns="http://www.w3.org/2000/svg" width="184" height="70" viewBox="0 0 184 70" fill="none">
  <path d="M93.1862 30.0067C91.1887 28.2957 88.9205 27.5288 86.3332 27.5288H86.2878C81.2056 27.5288 78.21 31.3125 78.21 36.0417V36.0867C78.3008 40.9059 81.2509 44.6446 86.2878 44.6446H86.3332C89.3287 44.6446 91.3701 43.699 93.1862 42.1667L97.6787 48.2481C94.91 50.8161 91.0979 52.2119 86.3332 52.2119H86.2878C76.0764 52.2119 70.0415 45.455 70.0415 36.0852V36.0402C70.0415 26.7153 76.0779 19.96 86.2878 19.96H86.3332C90.6443 19.96 94.7285 21.1757 97.6787 23.9237L93.1862 30.0052V30.0067Z" fill="white"/>
  <path d="M131.307 51.6735H122.685L120.597 45.8172H108.344L106.255 51.6735H97.6333L110.068 20.5022H118.871L131.305 51.6735H131.307ZM114.471 28.835L110.931 38.7001H118.011L114.471 28.835Z" fill="white"/>
  <path d="M155.543 20.5022V28.2946H146.649V51.672H138.481V28.2946H129.586V20.5022H155.545H155.543Z" fill="white"/>
  <path d="M178.87 29.4666C176.464 27.6655 174.377 27.1687 171.563 27.1687H171.518C168.613 27.1687 166.707 27.8892 166.707 29.3315C166.707 30.3221 167.297 30.8624 170.429 31.4942L175.966 32.6199C182.32 33.9256 184.044 38.3411 183.999 42.7101C183.999 48.8366 178.507 52.2151 171.291 52.2151H171.245C164.528 52.2151 159.673 50.0974 156.995 45.7284L163.712 40.8641C165.936 44.2425 168.477 45.053 171.427 45.053H171.472C174.241 45.053 175.738 44.1074 175.738 42.485C175.738 40.8626 174.513 40.2322 172.47 39.7369L165.799 38.161C160.535 36.9003 158.447 33.6119 158.447 29.6482C158.447 23.1164 164.029 19.9631 171.835 19.9631H171.88C176.554 19.9631 180.548 21.0438 183.589 23.4316L178.87 29.4681V29.4666Z" fill="white"/>
  <path d="M69.815 24.6831C70.6663 24.3274 71.2107 23.4704 71.2107 22.5549V2.15673C71.2107 0.966552 70.2369 0 69.0362 0H62.4691C61.2684 0 60.2961 0.966552 60.2961 2.15673V8.52187C60.3097 8.62242 60.3173 8.72598 60.3173 8.83104V22.1842C60.3173 23.3759 59.3435 24.3409 58.1444 24.3409H46.3679C45.1673 24.3409 44.1934 25.3075 44.1934 26.4991V60.4966C44.1934 61.6882 43.2211 62.6548 42.0205 62.6548H29.5636C28.9224 62.6548 28.3025 62.4672 27.743 62.158C27.6976 62.1325 27.6553 62.1115 27.6129 62.0935C27.371 61.9869 27.0988 62.1535 27.0988 62.4162L27.1033 67.8418C27.1033 69.0334 28.0756 70 29.2763 70H69.0362C70.2369 70 71.2107 69.0334 71.2107 67.8418V50.5444C71.2107 49.6169 70.6663 48.7644 69.815 48.4087C65.1501 46.4605 61.8748 41.8829 61.8748 36.5444C61.8748 31.2058 65.1501 26.6282 69.815 24.6831ZM54.8222 62.6968C54.8222 62.8964 54.6604 63.057 54.4593 63.057H48.5741C48.373 63.057 48.2112 62.8964 48.2112 62.6968V61.2305C48.2112 61.0324 48.373 60.8703 48.5741 60.8703H54.4593C54.6604 60.8703 54.8222 61.0324 54.8222 61.2305V62.6968ZM64.7433 60.8703C64.9444 60.8703 65.1062 61.0324 65.1062 61.2305V62.6968C65.1062 62.8964 64.9444 63.057 64.7433 63.057H58.8581C58.657 63.057 58.4952 62.8964 58.4952 62.6968V61.2305C58.4952 61.0324 58.657 60.8703 58.8581 60.8703H64.7433Z" fill="#BA8AFF"/>
  <path d="M57.1691 0H2.17444C0.973812 0 0 0.966552 0 2.15673V22.5549C0 23.4704 0.544367 24.3274 1.39418 24.6831C6.06062 26.6282 9.3359 31.2088 9.3359 36.5444C9.3359 41.8799 6.06062 46.4605 1.39418 48.4087C0.544367 48.7644 0 49.6169 0 50.5444V67.8418C0 69.0334 0.973812 70 2.17444 70H23.8433C25.0439 70 26.0162 69.0334 26.0162 67.8418V26.4751C26.0162 25.6452 25.552 24.8572 24.7853 24.53C24.5011 24.4085 24.188 24.3409 23.8569 24.3409H12.2664C11.0658 24.3409 10.092 23.3759 10.092 22.1842V8.64794C10.092 7.45626 11.0658 6.48971 12.2664 6.48971H57.0542C57.4549 6.48971 57.8481 6.59627 58.1959 6.79138C58.4378 6.92646 58.6858 7.27616 58.837 7.3377C59.0789 7.43375 59.3436 7.26866 59.3436 7.00901V2.15673C59.3436 0.966552 58.3698 0 57.1691 0ZM15.1531 61.2305C15.1531 61.0324 15.3149 60.8703 15.5145 60.8703H21.4012C21.6023 60.8703 21.7641 61.0324 21.7641 61.2305V62.6968C21.7641 62.8964 21.6023 63.057 21.4012 63.057H15.5145C15.3149 63.057 15.1531 62.8964 15.1531 62.6968V61.2305ZM11.1172 60.8703C11.3183 60.8703 11.4801 61.0324 11.4801 61.2305V62.6968C11.4801 62.8964 11.3183 63.057 11.1172 63.057H5.23046C5.03086 63.057 4.86906 62.8964 4.86906 62.6968V61.2305C4.86906 61.0324 5.03086 60.8703 5.23046 60.8703H11.1172Z" fill="#D2F902"/>
</svg>