<svg width="50" height="30" viewBox="0 0 50 30" fill="none" xmlns="http://www.w3.org/2000/svg">
<path d="M18.1871 0.0520659C23.7452 0.0520659 29.2968 0.0715902 34.8549 0.0390485C36.3779 0.0325401 37.9074 0.019525 39.4303 0C39.5605 0 39.6906 0.0195246 39.8208 0.026033C40.4391 0.0780997 40.6018 0.579242 40.7255 1.09991C42.0402 6.59295 41.6236 12.444 39.2871 17.6181C38.6688 18.9979 37.9074 20.293 37.0678 21.5426C36.4104 22.5254 35.688 23.4626 34.907 24.3542C34.3213 25.0181 33.703 25.6494 33.0521 26.2416C31.8221 27.3546 30.5139 28.3699 28.9909 29.0663C28.1839 29.4372 27.3378 29.6715 26.4527 29.7952C25.574 29.9189 24.6889 29.9188 23.8103 29.8993C18.942 29.7952 14.0673 29.8733 9.19906 29.8538C6.68033 29.8408 4.15509 29.8538 1.63637 29.8538C1.37603 29.8538 1.1157 29.8342 0.861872 29.7496C0.347712 29.5804 0.0288039 29.1313 0.00277053 28.5261C-0.00373782 28.3568 0.00277053 28.1876 0.00277053 28.0119C0.00277053 19.2712 0.00277053 10.5305 0.00277053 1.78979C0.00277053 1.54248 0.00277072 1.28865 0.0548375 1.04133C0.171988 0.442567 0.647096 0.0846073 1.25237 0.0455572C1.46064 0.0325405 1.67542 0.0390485 1.88368 0.0390485C7.31815 0.0390485 12.7526 0.0390485 18.1871 0.0390485V0.0520659Z" fill="#2F4653"/>
<path d="M40.5562 23.762C40.8556 23.6774 41.1029 23.5081 41.3372 23.3194C42.32 22.5319 43.0554 21.5361 43.6802 20.4492C45.9321 16.5312 47.2598 12.1381 47.5201 7.60826C47.5462 7.14617 47.5527 6.68407 47.5657 6.22849C47.5657 6.1569 47.5527 6.08531 47.6112 6.01371C47.7935 6.06578 47.9497 6.1569 48.0994 6.28056C49.8436 7.82954 50.143 10.7648 49.9477 12.9321C49.4987 18.0672 46.661 23.5537 42.1052 26.2091C42.001 26.2677 41.8969 26.3328 41.7863 26.3848C41.0834 26.7623 40.3544 27.0552 39.5995 27.309C39.4563 27.3546 39.3131 27.4066 39.1764 27.4522C39.7947 27.4197 40.6538 27.309 41.6236 26.9901C44.2204 26.1375 46.29 24.211 47.7284 21.9266C48.0798 21.3669 48.3987 20.7876 48.7111 20.2019C48.7307 20.1694 48.7502 20.1303 48.7958 20.1173C48.8543 20.1173 48.8739 20.1629 48.8934 20.2084C49.6158 21.8745 49.4271 23.5862 48.4118 25.0897C46.4072 28.0575 42.1768 29.8212 38.6753 29.8408C35.4471 29.8538 32.2255 29.8473 28.9974 29.8473C28.8932 29.8473 28.7435 29.8993 28.711 29.7561C28.6785 29.6065 28.8477 29.6195 28.9388 29.5804C33.8331 27.3285 37.5363 23.404 39.9509 18.6139C42.0466 14.4485 43.101 9.73649 42.6909 5.07C42.5608 3.57309 42.2809 2.09569 41.8579 0.657346C41.8318 0.572738 41.7993 0.488129 41.7798 0.397012C41.7212 0.0846118 41.8123 0.00651167 42.1312 0.0390534C42.9252 0.117154 43.6216 0.41003 44.2464 0.898155C45.4244 1.82885 45.88 3.508 46.1469 4.92031C46.6545 7.56921 46.1338 10.498 45.5155 13.0883C44.7085 16.4596 43.3483 19.7528 41.3893 22.623C41.181 22.9289 40.9402 23.2088 40.7124 23.5081C40.6538 23.5862 40.5952 23.6708 40.5367 23.7555L40.5562 23.762Z" fill="url(#paint0_linear_5893_333)"/>
<path d="M12.6681 12.6391C12.6681 12.2226 12.5315 11.8061 12.167 11.5718C11.809 11.344 11.3339 11.3505 11.0541 11.6954C11.0346 11.7214 10.9825 11.7735 10.9955 11.8126C11.0085 11.8516 11.0996 11.8451 11.1322 11.8646C11.1973 11.8972 11.2233 11.9623 11.2168 12.0273C11.2168 12.1054 11.2168 12.8669 11.2168 13.9083C10.2991 13.9083 9.37493 13.8952 8.45725 13.8887C8.43773 13.6609 8.43122 13.4071 8.45074 13.1273C8.46376 12.8734 8.4963 12.6131 8.54837 12.3593C8.56789 12.2486 8.59393 12.138 8.62647 12.0273C8.65901 11.9102 8.74362 11.7605 8.73711 11.6368C8.73711 11.6173 8.73711 11.6043 8.7241 11.5913C8.69806 11.5587 8.6525 11.5652 8.61345 11.5783C8.37915 11.6368 8.15136 11.7605 7.96913 11.9232C7.91706 11.9753 7.76737 12.1119 7.63069 12.3528C7.27924 12.9841 7.2467 13.8822 7.2467 13.8822C7.22718 14.4615 7.20765 15.6395 7.82594 16.863C7.82594 16.863 8.262 17.7221 8.8803 17.9304C9.00395 17.9695 9.0365 17.9434 9.04951 17.9304C9.09507 17.8653 8.99094 17.7612 8.9649 17.7156C8.90633 17.631 8.86077 17.5334 8.82172 17.4423C8.73711 17.247 8.67854 17.0388 8.63949 16.824C8.50932 16.1862 8.42471 15.5353 8.44424 14.8845H11.2298V17.3447C11.2298 17.5074 11.2949 17.6636 11.4446 17.7417C11.5357 17.7872 11.6398 17.8067 11.7375 17.8198C11.9132 17.8393 12.0954 17.8523 12.2711 17.8198C12.3753 17.8002 12.4729 17.7612 12.551 17.6896C12.6747 17.5724 12.6747 17.4228 12.6747 17.2666C12.6747 16.03 12.6877 14.7999 12.6877 13.5633C12.6877 13.2574 12.6877 12.9515 12.6877 12.6456L12.6681 12.6391Z" fill="url(#paint1_linear_5893_333)"/>
<path d="M8.85432 18.2428C7.72837 17.9109 7.29231 16.7264 7.0515 15.6916C6.99944 15.4638 6.94737 15.2425 6.92134 15.0147C6.83022 14.3183 6.83673 13.5568 7.05801 12.8865C6.8888 12.9255 6.8107 13.0752 6.70656 13.1924C6.3421 13.6284 6.30955 14.1426 6.29654 14.6502C6.25749 15.8413 6.68704 16.6873 6.78466 16.8696C7.00595 17.2796 7.24025 17.5464 7.31184 17.6245C7.55916 17.9044 7.81298 18.0931 8.00823 18.2233C7.85854 18.1843 7.63726 18.1127 7.40946 17.9695C7.19469 17.8393 7.045 17.6896 6.94086 17.579C6.79768 17.3968 6.69355 17.2275 6.62846 17.1169C6.45274 16.8045 6.22495 16.4205 6.1143 15.9063C6.08176 15.7632 6.06224 15.6135 6.00366 15.607C5.91905 15.6005 5.82794 15.8933 5.80841 15.9584C5.74333 16.1667 5.7238 16.3554 5.73031 16.453C5.73031 16.8435 6.02969 17.605 6.72609 18.1192C6.72609 18.1192 7.33787 18.5683 8.38571 18.6073C8.43127 18.6073 8.6851 18.6073 8.86733 18.4706C8.95845 18.4055 9.02353 18.3014 8.85432 18.2559V18.2428Z" fill="url(#paint2_linear_5893_333)"/>
<path d="M7.05786 12.88V12.8865L7.07088 12.8669L7.05786 12.88Z" fill="url(#paint3_linear_5893_333)"/>
<path d="M27.0515 12.4961C27.0515 12.3529 27.0515 12.1381 26.9994 11.8843C26.9994 11.8583 26.9864 11.7932 26.9538 11.7151C26.9343 11.676 26.8887 11.5654 26.7716 11.4938C26.7065 11.4547 26.6414 11.4287 26.5698 11.4287C26.5178 11.4287 26.4657 11.4287 26.4201 11.4287C26.3485 11.4287 26.277 11.4287 26.2119 11.4287C26.0752 11.4287 25.9385 11.4287 25.8018 11.4287C25.6782 11.4287 25.5675 11.4743 25.4764 11.5654C25.3723 11.676 25.2877 11.8257 25.151 12.1642C25.125 12.2162 25.112 12.2683 25.0989 12.2943C25.0469 12.405 24.3114 13.9995 24.0316 14.4616C24.0121 14.4941 23.9665 14.5722 23.9079 14.5657C23.8493 14.5657 23.8038 14.4941 23.7843 14.4616C23.5044 13.9995 22.769 12.405 22.7169 12.2943C22.7039 12.2618 22.6844 12.2162 22.6648 12.1642C22.5282 11.8322 22.4435 11.676 22.3394 11.5654C22.2548 11.4743 22.1377 11.4352 22.014 11.4287C21.8773 11.4287 21.7406 11.4287 21.604 11.4287C21.5324 11.4287 21.4608 11.4287 21.3957 11.4287C21.3436 11.4287 21.2916 11.4287 21.246 11.4287C21.1744 11.4287 21.1028 11.4547 21.0443 11.4938C20.9271 11.5654 20.8815 11.676 20.862 11.7151C20.8295 11.7932 20.823 11.8583 20.8165 11.8843C20.7644 12.1381 20.7579 12.3529 20.7644 12.4961C20.7123 14.1362 20.6603 15.7763 20.6017 17.4099C20.6017 17.4359 20.6082 17.475 20.6212 17.514C20.7058 17.7548 21.0117 17.872 21.246 17.872C21.4803 17.872 21.7667 17.7613 21.8643 17.5466C21.8643 17.5466 21.8838 17.501 21.8968 17.4554C21.9684 17.1235 22.0075 14.4356 22.0205 13.2641C22.6648 14.5787 23.166 15.5615 23.3938 15.9976C23.4393 16.0887 23.5435 16.2644 23.7257 16.3295C23.7778 16.349 23.8363 16.3555 23.9014 16.3555C23.96 16.3555 24.0186 16.3425 24.0771 16.3295C24.2594 16.2709 24.3635 16.0887 24.4091 15.9976C24.6434 15.5615 25.1445 14.5787 25.7823 13.2641C25.7953 14.4356 25.8344 17.1235 25.906 17.4554C25.919 17.501 25.932 17.5466 25.9385 17.5466C26.0362 17.7613 26.3225 17.8785 26.5568 17.872C26.7911 17.872 27.097 17.7483 27.1816 17.514C27.1946 17.475 27.2011 17.4359 27.2011 17.4099C27.1491 15.7698 27.097 14.1297 27.0384 12.4961H27.0515Z" fill="url(#paint4_linear_5893_333)"/>
<path d="M15.6226 16.3749C15.6356 16.3749 15.6486 16.3749 15.6617 16.3814C15.6486 16.401 15.6096 16.3879 15.6226 16.3684V16.3749Z" fill="white"/>
<path d="M19.3324 11.6305C19.2023 11.4612 18.968 11.4547 18.7532 11.4482C18.5449 11.4482 18.2846 11.4352 18.1154 11.6174C18.0243 11.7216 17.9982 11.8387 17.9917 11.9103C17.9917 13.1209 17.9852 14.3314 17.9787 15.542C17.9787 15.6591 17.9722 15.8804 17.8485 16.1277C17.7249 16.3881 17.5427 16.5312 17.4971 16.5703C17.4971 16.5703 17.1912 16.8111 16.7942 16.8436C16.7551 16.8436 16.7096 16.8436 16.7096 16.8436C16.6966 16.8436 16.6901 16.8436 16.677 16.8436C16.664 16.8436 16.6575 16.8436 16.6445 16.8436C16.6445 16.8436 16.6055 16.8436 16.5599 16.8436C16.1629 16.8111 15.857 16.5703 15.857 16.5703C15.8114 16.5312 15.6292 16.3881 15.5055 16.1277C15.3884 15.8804 15.3754 15.6591 15.3754 15.542C15.3754 14.3314 15.3689 13.1209 15.3624 11.9103C15.3559 11.8387 15.3298 11.7151 15.2387 11.6174C15.076 11.4352 14.8092 11.4417 14.6009 11.4482C14.3796 11.4482 14.1518 11.4612 14.0216 11.6305C13.9175 11.7606 13.924 11.9233 13.9305 11.9949V15.7958C13.9305 16.1472 14.0347 16.6158 14.3731 17.0649C14.7506 17.5661 15.2973 17.7873 15.46 17.8459C15.7984 17.9696 16.1303 18.0086 16.2345 18.0151C16.4102 18.0347 16.5599 18.0347 16.6705 18.0282C16.7812 18.0282 16.9309 18.0282 17.1066 18.0151C17.2107 18.0021 17.5427 17.9696 17.8811 17.8459C18.0503 17.7808 18.5905 17.5596 18.968 17.0649C19.3064 16.6224 19.4105 16.1538 19.4105 15.7958V11.9949C19.4171 11.9233 19.4301 11.7606 19.3194 11.6305H19.3324Z" fill="url(#paint5_linear_5893_333)"/>
<path d="M15.9352 17.9434C15.9482 17.9434 15.9547 17.9434 15.9677 17.9499L15.9482 17.9629L15.9352 17.9434Z" fill="white"/>
<path d="M34.4058 13.4527C34.2236 12.8409 33.8461 12.3072 33.3385 11.9232C32.7592 11.4871 32.0433 11.2594 31.3274 11.2463C30.605 11.2659 29.8956 11.4937 29.3163 11.9232C28.8087 12.3072 28.4312 12.8409 28.249 13.4527C27.7283 15.2034 28.5158 17.4358 30.3967 17.9304C30.7026 18.0085 31.015 18.041 31.3274 18.0345C31.6398 18.041 31.9522 18.0085 32.2581 17.9304C34.1455 17.4358 34.933 15.2034 34.4058 13.4527ZM33 15.4117C32.8048 16.2382 32.2516 17.1299 31.3209 17.1429C30.3902 17.1364 29.837 16.2447 29.6417 15.4117C29.453 14.6112 29.4855 13.6739 29.9346 12.958C30.247 12.4634 30.7742 12.1705 31.3209 12.1705C31.8741 12.1705 32.4013 12.4699 32.7072 12.958C33.1562 13.6674 33.1888 14.6112 33 15.4117Z" fill="url(#paint6_linear_5893_333)"/>
<defs>
<linearGradient id="paint0_linear_5893_333" x1="26.3615" y1="19.4925" x2="50.5855" y2="12.06" gradientUnits="userSpaceOnUse">
<stop offset="0.3" stop-color="#9C8837"/>
<stop offset="0.6" stop-color="#F0DE96"/>
<stop offset="0.7" stop-color="#DECB80"/>
<stop offset="0.8" stop-color="#B39F4D"/>
</linearGradient>
<linearGradient id="paint1_linear_5893_333" x1="11.3339" y1="15.4052" x2="6.87572" y2="12.0273" gradientUnits="userSpaceOnUse">
<stop offset="0.3" stop-color="#9C8837"/>
<stop offset="0.6" stop-color="#F0DE96"/>
<stop offset="0.7" stop-color="#DECB80"/>
<stop offset="0.8" stop-color="#B39F4D"/>
</linearGradient>
<linearGradient id="paint2_linear_5893_333" x1="9.66786" y1="17.605" x2="5.20964" y2="14.2272" gradientUnits="userSpaceOnUse">
<stop offset="0.3" stop-color="#9C8837"/>
<stop offset="0.6" stop-color="#F0DE96"/>
<stop offset="0.7" stop-color="#DECB80"/>
<stop offset="0.8" stop-color="#B39F4D"/>
</linearGradient>
<linearGradient id="paint3_linear_5893_333" x1="10.995" y1="15.8479" x2="6.53675" y2="12.4771" gradientUnits="userSpaceOnUse">
<stop offset="0.3" stop-color="#9C8837"/>
<stop offset="0.6" stop-color="#F0DE96"/>
<stop offset="0.7" stop-color="#DECB80"/>
<stop offset="0.8" stop-color="#B39F4D"/>
</linearGradient>
<linearGradient id="paint4_linear_5893_333" x1="27.865" y1="16.7786" x2="20.9271" y2="13.1014" gradientUnits="userSpaceOnUse">
<stop offset="0.3" stop-color="#9C8837"/>
<stop offset="0.6" stop-color="#F0DE96"/>
<stop offset="0.7" stop-color="#DECB80"/>
<stop offset="0.8" stop-color="#B39F4D"/>
</linearGradient>
<linearGradient id="paint5_linear_5893_333" x1="20.0939" y1="16.4401" x2="13.1625" y2="12.0991" gradientUnits="userSpaceOnUse">
<stop offset="0.3" stop-color="#9C8837"/>
<stop offset="0.6" stop-color="#F0DE96"/>
<stop offset="0.7" stop-color="#DECB80"/>
<stop offset="0.8" stop-color="#B39F4D"/>
</linearGradient>
<linearGradient id="paint6_linear_5893_333" x1="36.2152" y1="17.5009" x2="27.5916" y2="12.4959" gradientUnits="userSpaceOnUse">
<stop offset="0.3" stop-color="#9C8837"/>
<stop offset="0.6" stop-color="#F0DE96"/>
<stop offset="0.7" stop-color="#DECB80"/>
<stop offset="0.8" stop-color="#B39F4D"/>
</linearGradient>
</defs>
</svg>
