<svg xmlns="http://www.w3.org/2000/svg" width="48" height="37" viewBox="0 0 48 37" fill="none">
  <path d="M9.28931 36.3094V33.932C9.28931 33.0203 8.73443 32.4262 7.82366 32.4262C7.34532 32.4262 6.83349 32.585 6.47665 33.0959C6.19921 32.6596 5.80697 32.4262 5.20904 32.4262C4.98673 32.4166 4.7655 32.4622 4.56516 32.5591C4.36481 32.6559 4.1916 32.8009 4.06102 32.9811V32.5027H3.30811V36.3065H4.06102V34.13C4.06102 33.4604 4.45709 33.1399 5.01196 33.1399C5.56684 33.1399 5.8835 33.4967 5.8835 34.13V36.3094H6.63642V34.13C6.63642 33.4604 7.03248 33.1399 7.58736 33.1399C8.14224 33.1399 8.4589 33.4967 8.4589 34.13V36.3094H9.28931ZM21.6516 32.5448H20.2644V31.3968H19.5134V32.5448H18.7213V33.2145H19.5134V35.0016C19.5134 35.8731 19.8301 36.3888 20.781 36.3888C21.1413 36.3813 21.4943 36.286 21.8095 36.1113L21.5712 35.4416C21.3575 35.5753 21.1096 35.644 20.8576 35.6397C20.4615 35.6397 20.2635 35.4015 20.2635 35.0054V33.1839H21.6507V32.5496L21.6516 32.5448ZM28.7043 32.4262C28.4992 32.4216 28.2965 32.4703 28.1159 32.5676C27.9353 32.6649 27.783 32.8073 27.6739 32.9811V32.5027H26.921V36.3065H27.6739V34.1702C27.6739 33.5359 27.9906 33.1399 28.5063 33.1399C28.6803 33.1469 28.8529 33.1736 29.021 33.2193L29.2592 32.5056C29.0775 32.4598 28.8915 32.4332 28.7043 32.4262ZM18.0459 32.8222C17.6498 32.5448 17.0949 32.4262 16.5008 32.4262C15.5499 32.4262 14.9558 32.8624 14.9558 33.6153C14.9558 34.2496 15.392 34.6055 16.2234 34.7251L16.6194 34.7643C17.0557 34.8437 17.3331 35.0025 17.3331 35.2006C17.3331 35.478 17.0165 35.6789 16.4214 35.6789C15.967 35.6883 15.522 35.5492 15.1538 35.2828L14.7577 35.8769C15.3126 36.273 15.9861 36.3553 16.3841 36.3553C17.4939 36.3553 18.088 35.8406 18.088 35.1269C18.088 34.4572 17.6096 34.1367 16.7802 34.0171L16.3841 33.9779C16.0273 33.9387 15.7144 33.8191 15.7144 33.5819C15.7144 33.3044 16.0311 33.1035 16.4673 33.1035C16.9457 33.1035 17.4183 33.3015 17.6565 33.4202L18.0459 32.8222ZM29.5366 34.4075C29.5366 35.5555 30.2895 36.3888 31.5179 36.3888C32.0728 36.3888 32.4689 36.2701 32.8649 35.9525L32.4689 35.3584C32.1884 35.5855 31.8395 35.7113 31.4787 35.7153C30.809 35.7153 30.2895 35.2006 30.2895 34.4477C30.2895 33.6947 30.8023 33.1839 31.4787 33.1839C31.8395 33.1879 32.1884 33.3136 32.4689 33.5407L32.8649 32.9466C32.4689 32.6299 32.0728 32.5104 31.5179 32.5104C30.3288 32.431 29.5366 33.2633 29.5366 34.4123V34.4075ZM24.227 32.4262C23.1173 32.4262 22.3643 33.2183 22.3643 34.4075C22.3643 35.5966 23.1565 36.3888 24.3055 36.3888C24.8644 36.4006 25.4103 36.2187 25.8505 35.8741L25.4544 35.3192C25.1361 35.5659 24.7473 35.7046 24.3447 35.7153C23.83 35.7153 23.2751 35.3986 23.1967 34.7251H26.0103V34.4084C26.0103 33.2193 25.2966 32.4271 24.227 32.4271V32.4262ZM24.1878 33.1399C24.7427 33.1399 25.1387 33.4967 25.178 34.0908H23.1182C23.2368 33.5359 23.5965 33.1399 24.1878 33.1399ZM13.9254 34.4075V32.5056H13.1725V32.9839C12.8951 32.6271 12.5028 32.429 11.9441 32.429C10.8745 32.429 10.0814 33.2614 10.0814 34.4103C10.0814 35.5593 10.8736 36.3916 11.9441 36.3916C12.499 36.3916 12.8951 36.1936 13.1725 35.8368V36.3151H13.9254V34.4075ZM10.8745 34.4075C10.8745 33.6938 11.3108 33.1399 12.0637 33.1399C12.7774 33.1399 13.2117 33.6947 13.2117 34.4075C13.2117 35.1604 12.7334 35.6751 12.0637 35.6751C11.3108 35.7143 10.8745 35.1202 10.8745 34.4075ZM40.1568 32.4262C39.9517 32.4216 39.749 32.4703 39.5684 32.5676C39.3878 32.6649 39.2355 32.8073 39.1264 32.9811V32.5027H38.3735V36.3065H39.1255V34.1702C39.1255 33.5359 39.4422 33.1399 39.9578 33.1399C40.1318 33.1469 40.3045 33.1736 40.4725 33.2193L40.7107 32.5056C40.529 32.4598 40.3431 32.4332 40.1558 32.4262H40.1568ZM37.2245 34.4075V32.5056H36.4716V32.9839C36.1942 32.6271 35.802 32.429 35.2432 32.429C34.1737 32.429 33.3806 33.2614 33.3806 34.4103C33.3806 35.5593 34.1727 36.3916 35.2432 36.3916C35.7981 36.3916 36.1942 36.1936 36.4716 35.8368V36.3151H37.2245V34.4075ZM34.1737 34.4075C34.1737 33.6938 34.6099 33.1399 35.3628 33.1399C36.0765 33.1399 36.5109 33.6947 36.5109 34.4075C36.5109 35.1604 36.0325 35.6751 35.3628 35.6751C34.6099 35.7143 34.1737 35.1202 34.1737 34.4075ZM44.8723 34.4075V30.9998H44.1194V32.9811C43.8419 32.6242 43.4497 32.4262 42.891 32.4262C41.8214 32.4262 41.0283 33.2585 41.0283 34.4075C41.0283 35.5565 41.8205 36.3888 42.891 36.3888C43.4459 36.3888 43.8419 36.1907 44.1194 35.8339V36.3122H44.8723V34.4075ZM41.8214 34.4075C41.8214 33.6938 42.2577 33.1399 43.0106 33.1399C43.7243 33.1399 44.1586 33.6947 44.1586 34.4075C44.1586 35.1604 43.6803 35.6751 43.0106 35.6751C42.2567 35.7153 41.8205 35.1212 41.8205 34.4075H41.8214Z" fill="#000"/>
  <path d="M17.1743 3.65942H30.9238V26.0861H17.1743V3.65942Z" fill="#FF5F00"/>
  <path d="M18.5615 14.8728C18.562 12.7154 19.0505 10.586 19.9906 8.6441C20.9306 6.70221 22.2978 4.99816 23.9898 3.65952C21.8856 2.00514 19.3584 0.976178 16.697 0.690262C14.0357 0.404346 11.3476 0.873012 8.94005 2.04269C6.53249 3.21236 4.50261 5.03584 3.08246 7.30469C1.6623 9.57353 0.90918 12.1962 0.90918 14.8728C0.90918 17.5495 1.6623 20.1722 3.08246 22.441C4.50261 24.7098 6.53249 26.5333 8.94005 27.703C11.3476 28.8727 14.0357 29.3413 16.697 29.0554C19.3584 28.7695 21.8856 27.7405 23.9898 26.0862C22.2978 24.7475 20.9306 23.0435 19.9906 21.1016C19.0505 19.1597 18.562 17.0303 18.5615 14.8728Z" fill="#EB001B"/>
  <path d="M47.0908 14.8727C47.0927 17.5474 46.3419 20.1687 44.924 22.4367C43.5062 24.7047 41.4787 26.5279 39.0734 27.6977C36.668 28.8675 33.982 29.3368 31.3225 29.0518C28.6631 28.7668 26.1375 27.739 24.0347 26.086C25.727 24.7478 27.0945 23.0438 28.0346 21.1018C28.9747 19.1598 29.4631 17.0303 29.4631 14.8727C29.4631 12.7152 28.9747 10.5856 28.0346 8.64364C27.0945 6.70167 25.727 4.99769 24.0347 3.6594C26.1375 2.00645 28.6631 0.978698 31.3225 0.693687C33.982 0.408677 36.668 0.877919 39.0734 2.04775C41.4787 3.21757 43.5062 5.04075 44.924 7.30875C46.3419 9.57676 47.0927 12.198 47.0908 14.8727Z" fill="#F79E1B"/>
</svg>