<svg width="76" height="14" viewBox="0 0 76 14" fill="none" xmlns="http://www.w3.org/2000/svg">
<g clip-path="url(#clip0_5893_352)">
<path fill-rule="evenodd" clip-rule="evenodd" d="M4.07299 11.7605C6.82009 11.7605 8.14636 10.2171 8.14636 7.94918V2.48548H6.18398V7.89458C6.18398 9.16518 5.46678 10.0395 4.07299 10.0395C2.67919 10.0395 1.94849 9.16518 1.94849 7.89458V2.48548H0V7.96316C0 10.2031 1.32628 11.7605 4.07299 11.7605ZM75.6303 1.6801L75.6307 1.70208C75.6307 2.63927 74.8791 3.39803 73.9503 3.39803C73.0225 3.39803 72.2704 2.63927 72.2704 1.70208C72.2704 0.765246 73.0225 0.00610352 73.9503 0.00610352H75.6303V1.6801ZM20.0088 11.5964V9.88909H15.6518L19.9147 4.0428V2.48548H13.1347V4.19316H17.3976L13.1347 10.0255V11.5964H20.0088ZM29.4379 11.7605C31.4269 11.7605 32.5637 10.6539 33.2133 9.52009L31.5624 8.7144C31.1834 9.46554 30.3717 10.0395 29.4379 10.0395C27.8006 10.0395 26.6102 8.7689 26.6102 7.04753C26.6102 5.32694 27.8006 4.05643 29.4379 4.05643C30.3717 4.05643 31.1834 4.64398 31.5624 5.38112L33.2133 4.56139C32.5776 3.42798 31.4269 2.33546 29.4379 2.33546C26.7314 2.33546 24.6343 4.24772 24.6343 7.04753C24.6343 9.84778 26.7314 11.7605 29.4379 11.7605ZM46.4722 11.5964L42.9941 2.48548H40.5859L37.0942 11.5964H39.2866L39.8548 10.0527H43.7248L44.2798 11.5964H46.4722ZM43.1975 8.3454H40.3825L41.7902 4.42501L43.1975 8.3454ZM58.9508 13.8792L55.6381 8.12645C56.6125 7.89458 57.6141 7.03429 57.6141 5.42281C57.6141 3.72913 56.4638 2.48548 54.5829 2.48548H50.361V11.5964H52.2824V8.35939H53.6896L56.7445 13.8792H58.9508ZM54.299 6.65209H52.2824V4.19316H54.299C55.0697 4.19316 55.6521 4.65762 55.6521 5.42281C55.6521 6.18728 55.0697 6.65209 54.299 6.65209ZM66.1615 11.5964C68.9894 11.5964 70.9514 9.7936 70.9514 7.04753C70.9514 4.30229 68.9894 2.48548 66.1615 2.48548H62.603V11.5964H66.1615ZM66.1615 9.88909H64.5245V4.19316H66.1615C68.0158 4.19316 68.9894 5.43572 68.9894 7.04753C68.9894 8.59126 67.9477 9.88909 66.1615 9.88909Z" fill="white"/>
</g>
<defs>
<clipPath id="clip0_5893_352">
<rect width="76" height="13.9877" fill="white" transform="translate(0 0.00610352)"/>
</clipPath>
</defs>
</svg>
