<svg width="76" height="20" viewBox="0 0 76 20" fill="none" xmlns="http://www.w3.org/2000/svg">
<g clip-path="url(#clip0_5893_327)">
<path fill-rule="evenodd" clip-rule="evenodd" d="M19.0674 10.0767C19.0674 13.7456 13.2031 19.6099 9.5342 19.6099C5.8653 19.6099 0 13.7456 0 10.0767C0 6.40778 5.86435 0.54248 9.53325 0.54248C13.2021 0.54248 19.0665 6.40683 19.0665 10.0757L19.0674 10.0767ZM13.3465 10.0767C13.3465 11.5444 11.001 13.89 9.53325 13.89C8.0655 13.89 5.71995 11.5444 5.71995 10.0767C5.71995 8.60893 8.0655 6.26338 9.53325 6.26338C11.001 6.26338 13.3465 8.60893 13.3465 10.0767Z" fill="#0065FF"/>
<path d="M29.4491 19.6077C33.0068 19.6077 35.2365 17.3781 35.9129 14.4464H32.0046C31.5286 15.4486 30.7772 16.2001 29.4491 16.2001C27.8455 16.2001 26.6684 15.0477 26.6684 13.0679C26.6684 11.0881 27.8455 9.93576 29.4491 9.93576C30.7772 9.93576 31.5286 10.6872 32.0046 11.6895H35.9129C35.2365 8.75776 33.0068 6.52811 29.4491 6.52811C25.6405 6.52811 22.8599 9.43416 22.8599 13.067C22.8599 16.6998 25.6405 19.6058 29.4491 19.6058V19.6077ZM37.2476 19.3322H41.0305V0.541213H37.2476V19.3322ZM45.1706 5.10121C46.4987 5.10121 47.5504 4.04861 47.5504 2.74616C47.5504 1.44371 46.4987 0.391113 45.1706 0.391113C43.8425 0.391113 42.8156 1.44371 42.8156 2.74616C42.8156 4.04861 43.8929 5.10121 45.1706 5.10121ZM43.2915 19.3322H47.0744V6.80456H43.2915V19.3313V19.3322ZM55.1741 19.6077C58.7319 19.6077 60.9615 17.3781 61.6379 14.4464H57.7296C57.2537 15.4486 56.5022 16.2001 55.1741 16.2001C53.5705 16.2001 52.3935 15.0477 52.3935 13.0679C52.3935 11.0881 53.5705 9.93576 55.1741 9.93576C56.5022 9.93576 57.2537 10.6872 57.7296 11.6895H61.6379C60.9615 8.75776 58.7319 6.52811 55.1741 6.52811C51.3656 6.52811 48.5849 9.43416 48.5849 13.067C48.5849 16.6998 51.3656 19.6058 55.1741 19.6058V19.6077ZM71.4153 19.3322H76L70.2877 12.4675L74.898 6.80551H70.4131L66.7556 11.2905V0.541213H62.9727V19.3322H66.7556V13.7453L71.4153 19.3322Z" fill="white"/>
</g>
<defs>
<clipPath id="clip0_5893_327">
<rect width="76" height="19.2175" fill="white" transform="translate(0 0.391113)"/>
</clipPath>
</defs>
</svg>
