<svg width="48" height="36" viewBox="0 0 48 36" fill="none" xmlns="http://www.w3.org/2000/svg">
<path d="M9.28931 35.8094V33.432C9.28931 32.5203 8.73443 31.9262 7.82366 31.9262C7.34532 31.9262 6.83349 32.085 6.47665 32.5959C6.19921 32.1596 5.80697 31.9262 5.20904 31.9262C4.98673 31.9166 4.7655 31.9622 4.56516 32.0591C4.36481 32.1559 4.1916 32.3009 4.06102 32.4811V32.0027H3.30811V35.8065H4.06102V33.63C4.06102 32.9604 4.45709 32.6399 5.01196 32.6399C5.56684 32.6399 5.8835 32.9967 5.8835 33.63V35.8094H6.63642V33.63C6.63642 32.9604 7.03248 32.6399 7.58736 32.6399C8.14224 32.6399 8.4589 32.9967 8.4589 33.63V35.8094H9.28931ZM21.6516 32.0448H20.2644V30.8968H19.5134V32.0448H18.7213V32.7145H19.5134V34.5016C19.5134 35.3731 19.8301 35.8888 20.781 35.8888C21.1413 35.8813 21.4943 35.786 21.8095 35.6113L21.5712 34.9416C21.3575 35.0753 21.1096 35.144 20.8576 35.1397C20.4615 35.1397 20.2635 34.9015 20.2635 34.5054V32.6839H21.6507V32.0496L21.6516 32.0448ZM28.7043 31.9262C28.4992 31.9216 28.2965 31.9703 28.1159 32.0676C27.9353 32.1649 27.783 32.3073 27.6739 32.4811V32.0027H26.921V35.8065H27.6739V33.6702C27.6739 33.0359 27.9906 32.6399 28.5063 32.6399C28.6803 32.6469 28.8529 32.6736 29.021 32.7193L29.2592 32.0056C29.0775 31.9598 28.8915 31.9332 28.7043 31.9262ZM18.0459 32.3222C17.6498 32.0448 17.0949 31.9262 16.5008 31.9262C15.5499 31.9262 14.9558 32.3624 14.9558 33.1153C14.9558 33.7496 15.392 34.1055 16.2234 34.2251L16.6194 34.2643C17.0557 34.3437 17.3331 34.5025 17.3331 34.7006C17.3331 34.978 17.0165 35.1789 16.4214 35.1789C15.967 35.1883 15.522 35.0492 15.1538 34.7828L14.7577 35.3769C15.3126 35.773 15.9861 35.8553 16.3841 35.8553C17.4939 35.8553 18.088 35.3406 18.088 34.6269C18.088 33.9572 17.6096 33.6367 16.7802 33.5171L16.3841 33.4779C16.0273 33.4387 15.7144 33.3191 15.7144 33.0819C15.7144 32.8044 16.0311 32.6035 16.4673 32.6035C16.9457 32.6035 17.4183 32.8015 17.6565 32.9202L18.0459 32.3222ZM29.5366 33.9075C29.5366 35.0555 30.2895 35.8888 31.5179 35.8888C32.0728 35.8888 32.4689 35.7701 32.8649 35.4525L32.4689 34.8584C32.1884 35.0855 31.8395 35.2113 31.4787 35.2153C30.809 35.2153 30.2895 34.7006 30.2895 33.9477C30.2895 33.1947 30.8023 32.6839 31.4787 32.6839C31.8395 32.6879 32.1884 32.8136 32.4689 33.0407L32.8649 32.4466C32.4689 32.1299 32.0728 32.0104 31.5179 32.0104C30.3288 31.931 29.5366 32.7633 29.5366 33.9123V33.9075ZM24.227 31.9262C23.1173 31.9262 22.3643 32.7183 22.3643 33.9075C22.3643 35.0966 23.1565 35.8888 24.3055 35.8888C24.8644 35.9006 25.4103 35.7187 25.8505 35.3741L25.4544 34.8192C25.1361 35.0659 24.7473 35.2046 24.3447 35.2153C23.83 35.2153 23.2751 34.8986 23.1967 34.2251H26.0103V33.9084C26.0103 32.7193 25.2966 31.9271 24.227 31.9271V31.9262ZM24.1878 32.6399C24.7427 32.6399 25.1387 32.9967 25.178 33.5908H23.1182C23.2368 33.0359 23.5965 32.6399 24.1878 32.6399ZM13.9254 33.9075V32.0056H13.1725V32.4839C12.8951 32.1271 12.5028 31.929 11.9441 31.929C10.8745 31.929 10.0814 32.7614 10.0814 33.9103C10.0814 35.0593 10.8736 35.8916 11.9441 35.8916C12.499 35.8916 12.8951 35.6936 13.1725 35.3368V35.8151H13.9254V33.9075ZM10.8745 33.9075C10.8745 33.1938 11.3108 32.6399 12.0637 32.6399C12.7774 32.6399 13.2117 33.1947 13.2117 33.9075C13.2117 34.6604 12.7334 35.1751 12.0637 35.1751C11.3108 35.2143 10.8745 34.6202 10.8745 33.9075ZM40.1568 31.9262C39.9517 31.9216 39.749 31.9703 39.5684 32.0676C39.3878 32.1649 39.2355 32.3073 39.1264 32.4811V32.0027H38.3735V35.8065H39.1255V33.6702C39.1255 33.0359 39.4422 32.6399 39.9578 32.6399C40.1318 32.6469 40.3045 32.6736 40.4725 32.7193L40.7107 32.0056C40.529 31.9598 40.3431 31.9332 40.1558 31.9262H40.1568ZM37.2245 33.9075V32.0056H36.4716V32.4839C36.1942 32.1271 35.802 31.929 35.2432 31.929C34.1737 31.929 33.3806 32.7614 33.3806 33.9103C33.3806 35.0593 34.1727 35.8916 35.2432 35.8916C35.7981 35.8916 36.1942 35.6936 36.4716 35.3368V35.8151H37.2245V33.9075ZM34.1737 33.9075C34.1737 33.1938 34.6099 32.6399 35.3628 32.6399C36.0765 32.6399 36.5109 33.1947 36.5109 33.9075C36.5109 34.6604 36.0325 35.1751 35.3628 35.1751C34.6099 35.2143 34.1737 34.6202 34.1737 33.9075ZM44.8723 33.9075V30.4998H44.1194V32.4811C43.8419 32.1242 43.4497 31.9262 42.891 31.9262C41.8214 31.9262 41.0283 32.7585 41.0283 33.9075C41.0283 35.0565 41.8205 35.8888 42.891 35.8888C43.4459 35.8888 43.8419 35.6907 44.1194 35.3339V35.8122H44.8723V33.9075ZM41.8214 33.9075C41.8214 33.1938 42.2577 32.6399 43.0106 32.6399C43.7243 32.6399 44.1586 33.1947 44.1586 33.9075C44.1586 34.6604 43.6803 35.1751 43.0106 35.1751C42.2567 35.2153 41.8205 34.6212 41.8205 33.9075H41.8214Z" fill="white"/>
<path d="M17.1743 3.15942H30.9238V25.5861H17.1743V3.15942Z" fill="#FF5F00"/>
<path d="M18.5615 14.3728C18.562 12.2154 19.0505 10.086 19.9906 8.1441C20.9306 6.20221 22.2978 4.49816 23.9898 3.15952C21.8856 1.50514 19.3584 0.476178 16.697 0.190262C14.0357 -0.095654 11.3476 0.373012 8.94005 1.54269C6.53249 2.71236 4.50261 4.53584 3.08246 6.80469C1.6623 9.07353 0.90918 11.6962 0.90918 14.3728C0.90918 17.0495 1.6623 19.6722 3.08246 21.941C4.50261 24.2098 6.53249 26.0333 8.94005 27.203C11.3476 28.3727 14.0357 28.8413 16.697 28.5554C19.3584 28.2695 21.8856 27.2405 23.9898 25.5862C22.2978 24.2475 20.9306 22.5435 19.9906 20.6016C19.0505 18.6597 18.562 16.5303 18.5615 14.3728Z" fill="#EB001B"/>
<path d="M47.0908 14.3727C47.0927 17.0474 46.3419 19.6687 44.924 21.9367C43.5062 24.2047 41.4787 26.0279 39.0734 27.1977C36.668 28.3675 33.982 28.8368 31.3225 28.5518C28.6631 28.2668 26.1375 27.239 24.0347 25.586C25.727 24.2478 27.0945 22.5438 28.0346 20.6018C28.9747 18.6598 29.4631 16.5303 29.4631 14.3727C29.4631 12.2152 28.9747 10.0856 28.0346 8.14364C27.0945 6.20167 25.727 4.49769 24.0347 3.1594C26.1375 1.50645 28.6631 0.478698 31.3225 0.193687C33.982 -0.0913229 36.668 0.377919 39.0734 1.54775C41.4787 2.71757 43.5062 4.54075 44.924 6.80875C46.3419 9.07676 47.0927 11.698 47.0908 14.3727Z" fill="#F79E1B"/>
</svg>
