<svg xmlns="http://www.w3.org/2000/svg" width="48" height="37" viewBox="0 0 48 37" fill="none">
  <path d="M9.28931 36.3086V33.9313C9.28931 33.0195 8.73443 32.4254 7.82366 32.4254C7.34532 32.4254 6.83349 32.5843 6.47665 33.0951C6.19921 32.6589 5.80697 32.4254 5.20904 32.4254C4.98673 32.4158 4.7655 32.4615 4.56516 32.5583C4.36481 32.6552 4.1916 32.8001 4.06102 32.9803V32.502H3.30811V36.3058H4.06102V34.1293C4.06102 33.4596 4.45709 33.1391 5.01196 33.1391C5.56684 33.1391 5.8835 33.496 5.8835 34.1293V36.3086H6.63642V34.1293C6.63642 33.4596 7.03248 33.1391 7.58736 33.1391C8.14224 33.1391 8.4589 33.496 8.4589 34.1293V36.3086H9.28931ZM21.6516 32.5441H20.2644V31.396H19.5134V32.5441H18.7213V33.2138H19.5134V35.0008C19.5134 35.8724 19.8301 36.388 20.781 36.388C21.1413 36.3805 21.4943 36.2853 21.8095 36.1106L21.5712 35.4409C21.3575 35.5745 21.1096 35.6433 20.8576 35.639C20.4615 35.639 20.2635 35.4007 20.2635 35.0047V33.1831H21.6507V32.5489L21.6516 32.5441ZM28.7043 32.4254C28.4992 32.4209 28.2965 32.4696 28.1159 32.5669C27.9353 32.6641 27.783 32.8066 27.6739 32.9803V32.502H26.921V36.3058H27.6739V34.1695C27.6739 33.5352 27.9906 33.1391 28.5063 33.1391C28.6803 33.1462 28.8529 33.1728 29.021 33.2185L29.2592 32.5048C29.0775 32.459 28.8915 32.4324 28.7043 32.4254ZM18.0459 32.8215C17.6498 32.5441 17.0949 32.4254 16.5008 32.4254C15.5499 32.4254 14.9558 32.8617 14.9558 33.6146C14.9558 34.2489 15.392 34.6048 16.2234 34.7244L16.6194 34.7636C17.0557 34.843 17.3331 35.0018 17.3331 35.1998C17.3331 35.4773 17.0165 35.6782 16.4214 35.6782C15.967 35.6875 15.522 35.5485 15.1538 35.2821L14.7577 35.8762C15.3126 36.2723 15.9861 36.3546 16.3841 36.3546C17.4939 36.3546 18.088 35.8399 18.088 35.1262C18.088 34.4565 17.6096 34.136 16.7802 34.0164L16.3841 33.9772C16.0273 33.938 15.7144 33.8184 15.7144 33.5811C15.7144 33.3037 16.0311 33.1028 16.4673 33.1028C16.9457 33.1028 17.4183 33.3008 17.6565 33.4194L18.0459 32.8215ZM29.5366 34.4067C29.5366 35.5548 30.2895 36.388 31.5179 36.388C32.0728 36.388 32.4689 36.2694 32.8649 35.9518L32.4689 35.3577C32.1884 35.5848 31.8395 35.7105 31.4787 35.7145C30.809 35.7145 30.2895 35.1998 30.2895 34.4469C30.2895 33.694 30.8023 33.1831 31.4787 33.1831C31.8395 33.1871 32.1884 33.3129 32.4689 33.54L32.8649 32.9459C32.4689 32.6292 32.0728 32.5096 31.5179 32.5096C30.3288 32.4302 29.5366 33.2625 29.5366 34.4115V34.4067ZM24.227 32.4254C23.1173 32.4254 22.3643 33.2176 22.3643 34.4067C22.3643 35.5959 23.1565 36.388 24.3055 36.388C24.8644 36.3998 25.4103 36.218 25.8505 35.8733L25.4544 35.3185C25.1361 35.5652 24.7473 35.7039 24.3447 35.7145C23.83 35.7145 23.2751 35.3979 23.1967 34.7244H26.0103V34.4077C26.0103 33.2185 25.2966 32.4264 24.227 32.4264V32.4254ZM24.1878 33.1391C24.7427 33.1391 25.1387 33.496 25.178 34.0901H23.1182C23.2368 33.5352 23.5965 33.1391 24.1878 33.1391ZM13.9254 34.4067V32.5048H13.1725V32.9832C12.8951 32.6263 12.5028 32.4283 11.9441 32.4283C10.8745 32.4283 10.0814 33.2606 10.0814 34.4096C10.0814 35.5586 10.8736 36.3909 11.9441 36.3909C12.499 36.3909 12.8951 36.1929 13.1725 35.836V36.3144H13.9254V34.4067ZM10.8745 34.4067C10.8745 33.6931 11.3108 33.1391 12.0637 33.1391C12.7774 33.1391 13.2117 33.694 13.2117 34.4067C13.2117 35.1597 12.7334 35.6743 12.0637 35.6743C11.3108 35.7136 10.8745 35.1195 10.8745 34.4067ZM40.1568 32.4254C39.9517 32.4209 39.749 32.4696 39.5684 32.5669C39.3878 32.6641 39.2355 32.8066 39.1264 32.9803V32.502H38.3735V36.3058H39.1255V34.1695C39.1255 33.5352 39.4422 33.1391 39.9578 33.1391C40.1318 33.1462 40.3045 33.1728 40.4725 33.2185L40.7107 32.5048C40.529 32.459 40.3431 32.4324 40.1558 32.4254H40.1568ZM37.2245 34.4067V32.5048H36.4716V32.9832C36.1942 32.6263 35.802 32.4283 35.2432 32.4283C34.1737 32.4283 33.3806 33.2606 33.3806 34.4096C33.3806 35.5586 34.1727 36.3909 35.2432 36.3909C35.7981 36.3909 36.1942 36.1929 36.4716 35.836V36.3144H37.2245V34.4067ZM34.1737 34.4067C34.1737 33.6931 34.6099 33.1391 35.3628 33.1391C36.0765 33.1391 36.5109 33.694 36.5109 34.4067C36.5109 35.1597 36.0325 35.6743 35.3628 35.6743C34.6099 35.7136 34.1737 35.1195 34.1737 34.4067ZM44.8723 34.4067V30.999H44.1194V32.9803C43.8419 32.6235 43.4497 32.4254 42.891 32.4254C41.8214 32.4254 41.0283 33.2578 41.0283 34.4067C41.0283 35.5557 41.8205 36.388 42.891 36.388C43.4459 36.388 43.8419 36.19 44.1194 35.8332V36.3115H44.8723V34.4067ZM41.8214 34.4067C41.8214 33.6931 42.2577 33.1391 43.0106 33.1391C43.7243 33.1391 44.1586 33.694 44.1586 34.4067C44.1586 35.1597 43.6803 35.6743 43.0106 35.6743C42.2567 35.7145 41.8205 35.1204 41.8205 34.4067H41.8214Z" fill="white"/>
  <path d="M17.1743 3.65918H30.9238V26.0858H17.1743V3.65918Z" fill="#FF5F00"/>
  <path d="M18.5615 14.8726C18.562 12.7151 19.0505 10.5857 19.9906 8.64386C20.9306 6.70197 22.2978 4.99791 23.9898 3.65928C21.8856 2.0049 19.3584 0.975934 16.697 0.690018C14.0357 0.404102 11.3476 0.872768 8.94005 2.04244C6.53249 3.21212 4.50261 5.0356 3.08246 7.30445C1.6623 9.57329 0.90918 12.1959 0.90918 14.8726C0.90918 17.5493 1.6623 20.1719 3.08246 22.4408C4.50261 24.7096 6.53249 26.5331 8.94005 27.7028C11.3476 28.8724 14.0357 29.3411 16.697 29.0552C19.3584 28.7693 21.8856 27.7403 23.9898 26.0859C22.2978 24.7473 20.9306 23.0432 19.9906 21.1013C19.0505 19.1594 18.562 17.0301 18.5615 14.8726Z" fill="#EB001B"/>
  <path d="M47.0908 14.8725C47.0927 17.5472 46.3419 20.1684 44.924 22.4365C43.5062 24.7045 41.4787 26.5276 39.0734 27.6975C36.668 28.8673 33.982 29.3365 31.3225 29.0515C28.6631 28.7665 26.1375 27.7388 24.0347 26.0858C25.727 24.7475 27.0945 23.0435 28.0346 21.1016C28.9747 19.1596 29.4631 17.03 29.4631 14.8725C29.4631 12.7149 28.9747 10.5854 28.0346 8.6434C27.0945 6.70143 25.727 4.99745 24.0347 3.65916C26.1375 2.00621 28.6631 0.978453 31.3225 0.693443C33.982 0.408433 36.668 0.877675 39.0734 2.0475C41.4787 3.21733 43.5062 5.0405 44.924 7.30851C46.3419 9.57651 47.0927 12.1978 47.0908 14.8725Z" fill="#F79E1B"/>
</svg>