<svg width="70" height="22" viewBox="0 0 70 22" fill="none" xmlns="http://www.w3.org/2000/svg">
<path d="M24.8544 21.3474L28.3507 0.830088H33.943L30.4441 21.3474H24.8544ZM50.6488 1.27238C49.5411 0.85671 47.8048 0.410645 45.6368 0.410645C40.1106 0.410645 36.2183 3.19342 36.185 7.1817C36.1539 10.1299 38.964 11.7746 41.0852 12.7559C43.2622 13.7619 43.9939 14.4031 43.9834 15.301C43.9695 16.6764 42.245 17.3044 40.6375 17.3044C38.3993 17.3044 37.2101 16.9935 35.3735 16.2277L34.6526 15.9017L33.8679 20.4946C35.1741 21.0676 37.5894 21.5635 40.0975 21.5893C45.9762 21.5893 49.7925 18.8383 49.8359 14.5792C49.8568 12.2451 48.3669 10.4691 45.1404 9.00463C43.1857 8.05549 41.9886 7.42213 42.0013 6.46103C42.0013 5.60821 43.0145 4.69627 45.2042 4.69627C47.0327 4.66786 48.3577 5.06666 49.3898 5.48233L49.8909 5.7191L50.6488 1.27238ZM65.0401 0.829773H60.7188C59.3802 0.829773 58.3782 1.19514 57.7905 2.53124L49.4849 21.3339H55.3574C55.3574 21.3339 56.3174 18.8058 56.5345 18.2506C57.1763 18.2506 62.8812 18.2594 63.6967 18.2594C63.864 18.9778 64.3772 21.3339 64.3772 21.3339H69.5664L65.0401 0.829145V0.829773ZM58.1838 14.0786C58.6464 12.8965 60.412 8.34308 60.412 8.34308C60.3791 8.39769 60.8712 7.15518 61.1535 6.38484L61.5314 8.1538C61.5314 8.1538 62.6022 13.0514 62.8261 14.0783H58.1838V14.0786ZM20.1068 0.829773L14.6318 14.8217L14.0485 11.9784C13.0291 8.70059 9.85353 5.14936 6.30334 3.37149L11.3097 21.3147L17.2267 21.3081L26.031 0.829564L20.1068 0.82946" fill="white"/>
<path d="M9.52291 0.829102H0.505074L0.433594 1.25599C7.44938 2.95431 12.0915 7.0585 14.0189 11.9905L12.058 2.5619C11.7196 1.26269 10.7377 0.874902 9.52312 0.829625" fill="#F2AE14"/>
</svg>
