<svg xmlns="http://www.w3.org/2000/svg" width="20" height="21" viewBox="0 0 20 21" fill="none">
  <path d="M10 8.68164V12.5544H15.3818C15.1455 13.7998 14.4363 14.8544 13.3727 15.5635L16.6181 18.0817C18.509 16.3363 19.5999 13.7726 19.5999 10.7272C19.5999 10.0181 19.5363 9.33623 19.4181 8.68175L10 8.68164Z" fill="#4285F4"/>
  <path d="M4.39519 12.4033L3.66322 12.9636L1.07227 14.9818C2.71772 18.2454 6.09019 20.5 9.99925 20.5C12.6992 20.5 14.9628 19.6091 16.6174 18.0818L13.3719 15.5636C12.481 16.1636 11.3447 16.5273 9.99925 16.5273C7.39927 16.5273 5.19024 14.7728 4.39928 12.4091L4.39519 12.4033Z" fill="#34A853"/>
  <path d="M1.07265 6.01855C0.390868 7.36395 0 8.88216 0 10.5003C0 12.1185 0.390868 13.6367 1.07265 14.9821C1.07265 14.9911 4.39998 12.4003 4.39998 12.4003C4.19998 11.8003 4.08177 11.1639 4.08177 10.5002C4.08177 9.83648 4.19998 9.20016 4.39998 8.60016L1.07265 6.01855Z" fill="#FBBC05"/>
  <path d="M9.99946 4.48182C11.4722 4.48182 12.7813 4.99089 13.8267 5.97272L16.6903 3.10912C14.954 1.49097 12.6995 0.5 9.99946 0.5C6.0904 0.5 2.71772 2.74545 1.07227 6.01819L4.39949 8.60001C5.19036 6.23635 7.39947 4.48182 9.99946 4.48182Z" fill="#EA4335"/>
</svg>