<svg xmlns="http://www.w3.org/2000/svg" width="18" height="19" viewBox="0 0 18 19" fill="none">
  <path opacity="0.5" d="M1.5 7.67405C1.5 11.3213 4.51457 13.2648 6.7213 15.0044C7.5 15.6182 8.25 16.1962 9 16.1962C9.75 16.1962 10.5 15.6182 11.2787 15.0044C13.4854 13.2648 16.5 11.3213 16.5 7.67405C16.5 4.02685 12.3749 1.44033 9 4.9467C5.62512 1.44033 1.5 4.02685 1.5 7.67405Z" fill="white"/>
  <path d="M12.375 10.7866C10.5188 8.74979 8.25 10.2523 8.25 12.3709C8.25 14.308 9.63613 15.4178 10.8014 16.3661C10.9105 16.455 11.0178 16.5424 11.1217 16.629C11.55 16.9855 11.9625 17.3213 12.375 17.3213C12.7875 17.3213 13.2 16.9855 13.6283 16.629C14.842 15.6185 16.5 14.4895 16.5 12.3709C16.5 11.6749 16.2551 11.0454 15.8605 10.586C15.0539 9.64707 13.6214 9.41891 12.375 10.7866Z" fill="white"/>
</svg>