<svg width="18" height="19" viewBox="0 0 18 19" fill="none" xmlns="http://www.w3.org/2000/svg">
<path opacity="0.5" d="M1.5 7.67234C1.5 11.3195 4.51457 13.2631 6.7213 15.0027C7.5 15.6165 8.25 16.1945 9 16.1945C9.75 16.1945 10.5 15.6165 11.2787 15.0027C13.4854 13.2631 16.5 11.3195 16.5 7.67234C16.5 4.02514 12.3749 1.43862 9 4.94499C5.62512 1.43862 1.5 4.02514 1.5 7.67234Z" fill="#101217"/>
<path d="M12.375 10.7856C10.5188 8.74882 8.25 10.2513 8.25 12.3699C8.25 14.307 9.63613 15.4168 10.8014 16.3652C10.9105 16.454 11.0178 16.5414 11.1217 16.628C11.55 16.9846 11.9625 17.3203 12.375 17.3203C12.7875 17.3203 13.2 16.9846 13.6283 16.628C14.842 15.6175 16.5 14.4885 16.5 12.3699C16.5 11.6739 16.2551 11.0444 15.8605 10.5851C15.0539 9.64609 13.6214 9.41793 12.375 10.7856Z" fill="#101217"/>
</svg>
