<svg xmlns="http://www.w3.org/2000/svg" width="50" height="30" viewBox="0 0 50 30" fill="none">
  <path d="M18.1872 0.0520659C23.7453 0.0520659 29.2969 0.0715902 34.8551 0.0390485C36.378 0.0325401 37.9075 0.019525 39.4304 0C39.5606 0 39.6908 0.0195246 39.8209 0.026033C40.4392 0.0780997 40.6019 0.579242 40.7256 1.09991C42.0403 6.59295 41.6237 12.444 39.2872 17.6181C38.669 18.9979 37.9075 20.293 37.0679 21.5426C36.4106 22.5254 35.6881 23.4626 34.9071 24.3542C34.3214 25.0181 33.7031 25.6494 33.0523 26.2416C31.8222 27.3546 30.514 28.3699 28.9911 29.0663C28.184 29.4372 27.3379 29.6715 26.4528 29.7952C25.5742 29.9189 24.689 29.9188 23.8104 29.8993C18.9422 29.7952 14.0674 29.8733 9.19918 29.8538C6.68045 29.8408 4.15522 29.8538 1.63649 29.8538C1.37615 29.8538 1.11582 29.8342 0.861994 29.7496C0.347835 29.5804 0.028926 29.1313 0.0028926 28.5261C-0.00361575 28.3568 0.0028926 28.1876 0.0028926 28.0119C0.0028926 19.2712 0.0028926 10.5305 0.0028926 1.78979C0.0028926 1.54248 0.00289279 1.28865 0.0549595 1.04133C0.17211 0.442567 0.647218 0.0846073 1.25249 0.0455572C1.46076 0.0325405 1.67554 0.0390485 1.8838 0.0390485C7.31827 0.0390485 12.7527 0.0390485 18.1872 0.0390485V0.0520659Z" fill="#2F4653"/>
  <path d="M40.5563 23.762C40.8557 23.6774 41.103 23.5081 41.3373 23.3194C42.3201 22.5319 43.0555 21.5361 43.6803 20.4492C45.9322 16.5312 47.2599 12.1381 47.5202 7.60826C47.5463 7.14617 47.5528 6.68407 47.5658 6.22849C47.5658 6.1569 47.5528 6.08531 47.6114 6.01371C47.7936 6.06578 47.9498 6.1569 48.0995 6.28056C49.8437 7.82954 50.1431 10.7648 49.9479 12.9321C49.4988 18.0672 46.6611 23.5537 42.1053 26.2091C42.0012 26.2677 41.897 26.3328 41.7864 26.3848C41.0835 26.7623 40.3546 27.0552 39.5996 27.309C39.4564 27.3546 39.3132 27.4066 39.1765 27.4522C39.7948 27.4197 40.6539 27.309 41.6237 26.9901C44.2205 26.1375 46.2902 24.211 47.7285 21.9266C48.08 21.3669 48.3989 20.7876 48.7113 20.2019C48.7308 20.1694 48.7503 20.1303 48.7959 20.1173C48.8545 20.1173 48.874 20.1629 48.8935 20.2084C49.6159 21.8745 49.4272 23.5862 48.4119 25.0897C46.4073 28.0575 42.1769 29.8212 38.6754 29.8408C35.4473 29.8538 32.2256 29.8473 28.9975 29.8473C28.8934 29.8473 28.7437 29.8993 28.7111 29.7561C28.6786 29.6065 28.8478 29.6195 28.9389 29.5804C33.8332 27.3285 37.5364 23.404 39.951 18.6139C42.0467 14.4485 43.1011 9.73649 42.691 5.07C42.5609 3.57309 42.281 2.09569 41.858 0.657346C41.8319 0.572738 41.7994 0.488129 41.7799 0.397012C41.7213 0.0846118 41.8124 0.00651167 42.1313 0.0390534C42.9254 0.117154 43.6217 0.41003 44.2465 0.898155C45.4246 1.82885 45.8801 3.508 46.147 4.92031C46.6546 7.56921 46.134 10.498 45.5157 13.0883C44.7086 16.4596 43.3484 19.7528 41.3894 22.623C41.1811 22.9289 40.9403 23.2088 40.7125 23.5081C40.6539 23.5862 40.5954 23.6708 40.5368 23.7555L40.5563 23.762Z" fill="url(#paint0_linear_10515_6963)"/>
  <path d="M12.6683 12.6391C12.6683 12.2226 12.5316 11.8061 12.1671 11.5718C11.8092 11.344 11.3341 11.3505 11.0542 11.6954C11.0347 11.7214 10.9826 11.7735 10.9956 11.8126C11.0086 11.8516 11.0998 11.8451 11.1323 11.8646C11.1974 11.8972 11.2234 11.9623 11.2169 12.0273C11.2169 12.1054 11.2169 12.8669 11.2169 13.9083C10.2992 13.9083 9.37505 13.8952 8.45737 13.8887C8.43785 13.6609 8.43134 13.4071 8.45087 13.1273C8.46388 12.8734 8.49642 12.6131 8.54849 12.3593C8.56802 12.2486 8.59405 12.138 8.62659 12.0273C8.65913 11.9102 8.74374 11.7605 8.73723 11.6368C8.73723 11.6173 8.73723 11.6043 8.72422 11.5913C8.69818 11.5587 8.65262 11.5652 8.61357 11.5783C8.37927 11.6368 8.15148 11.7605 7.96925 11.9232C7.91718 11.9753 7.76749 12.1119 7.63081 12.3528C7.27936 12.9841 7.24682 13.8822 7.24682 13.8822C7.2273 14.4615 7.20777 15.6395 7.82606 16.863C7.82606 16.863 8.26212 17.7221 8.88042 17.9304C9.00408 17.9695 9.03662 17.9434 9.04963 17.9304C9.09519 17.8653 8.99106 17.7612 8.96502 17.7156C8.90645 17.631 8.86089 17.5334 8.82184 17.4423C8.73723 17.247 8.67866 17.0388 8.63961 16.824C8.50944 16.1862 8.42483 15.5353 8.44436 14.8845H11.2299V17.3447C11.2299 17.5074 11.295 17.6636 11.4447 17.7417C11.5358 17.7872 11.64 17.8067 11.7376 17.8198C11.9133 17.8393 12.0955 17.8523 12.2713 17.8198C12.3754 17.8002 12.473 17.7612 12.5511 17.6896C12.6748 17.5724 12.6748 17.4228 12.6748 17.2666C12.6748 16.03 12.6878 14.7999 12.6878 13.5633C12.6878 13.2574 12.6878 12.9515 12.6878 12.6456L12.6683 12.6391Z" fill="url(#paint1_linear_10515_6963)"/>
  <path d="M8.85468 18.2426C7.72874 17.9107 7.29268 16.7262 7.05187 15.6913C6.9998 15.4635 6.94774 15.2423 6.9217 15.0145C6.83059 14.3181 6.8371 13.5566 7.05838 12.8862C6.88916 12.9253 6.81106 13.075 6.70693 13.1921C6.34246 13.6282 6.30992 14.1423 6.2969 14.65C6.25785 15.841 6.6874 16.6871 6.78503 16.8693C7.00631 17.2794 7.24061 17.5462 7.3122 17.6243C7.55952 17.9042 7.81335 18.0929 8.0086 18.2231C7.85891 18.184 7.63762 18.1124 7.40983 17.9692C7.19505 17.8391 7.04536 17.6894 6.94123 17.5787C6.79804 17.3965 6.69391 17.2273 6.62883 17.1167C6.4531 16.8043 6.22531 16.4203 6.11467 15.9061C6.08213 15.7629 6.0626 15.6132 6.00403 15.6067C5.91942 15.6002 5.8283 15.8931 5.80878 15.9582C5.74369 16.1664 5.72417 16.3552 5.73068 16.4528C5.73068 16.8433 6.03006 17.6048 6.72645 18.1189C6.72645 18.1189 7.33824 18.568 8.38608 18.6071C8.43164 18.6071 8.68546 18.6071 8.8677 18.4704C8.95881 18.4053 9.0239 18.3012 8.85468 18.2556V18.2426Z" fill="url(#paint2_linear_10515_6963)"/>
  <path d="M7.05811 12.8797V12.8862L7.07112 12.8667L7.05811 12.8797Z" fill="url(#paint3_linear_10515_6963)"/>
  <path d="M27.0516 12.4961C27.0516 12.3529 27.0516 12.1381 26.9995 11.8843C26.9995 11.8583 26.9865 11.7932 26.9539 11.7151C26.9344 11.676 26.8889 11.5654 26.7717 11.4938C26.7066 11.4547 26.6415 11.4287 26.57 11.4287C26.5179 11.4287 26.4658 11.4287 26.4203 11.4287C26.3487 11.4287 26.2771 11.4287 26.212 11.4287C26.0753 11.4287 25.9386 11.4287 25.802 11.4287C25.6783 11.4287 25.5677 11.4743 25.4766 11.5654C25.3724 11.676 25.2878 11.8257 25.1511 12.1642C25.1251 12.2162 25.1121 12.2683 25.0991 12.2943C25.047 12.405 24.3116 13.9995 24.0317 14.4616C24.0122 14.4941 23.9666 14.5722 23.908 14.5657C23.8495 14.5657 23.8039 14.4941 23.7844 14.4616C23.5045 13.9995 22.7691 12.405 22.717 12.2943C22.704 12.2618 22.6845 12.2162 22.665 12.1642C22.5283 11.8322 22.4437 11.676 22.3395 11.5654C22.2549 11.4743 22.1378 11.4352 22.0141 11.4287C21.8774 11.4287 21.7408 11.4287 21.6041 11.4287C21.5325 11.4287 21.4609 11.4287 21.3958 11.4287C21.3438 11.4287 21.2917 11.4287 21.2461 11.4287C21.1745 11.4287 21.1029 11.4547 21.0444 11.4938C20.9272 11.5654 20.8817 11.676 20.8621 11.7151C20.8296 11.7932 20.8231 11.8583 20.8166 11.8843C20.7645 12.1381 20.758 12.3529 20.7645 12.4961C20.7124 14.1362 20.6604 15.7763 20.6018 17.4099C20.6018 17.4359 20.6083 17.475 20.6213 17.514C20.7059 17.7548 21.0118 17.872 21.2461 17.872C21.4804 17.872 21.7668 17.7613 21.8644 17.5466C21.8644 17.5466 21.8839 17.501 21.897 17.4554C21.9686 17.1235 22.0076 14.4356 22.0206 13.2641C22.665 14.5787 23.1661 15.5615 23.3939 15.9976C23.4394 16.0887 23.5436 16.2644 23.7258 16.3295C23.7779 16.349 23.8365 16.3555 23.9015 16.3555C23.9601 16.3555 24.0187 16.3425 24.0773 16.3295C24.2595 16.2709 24.3636 16.0887 24.4092 15.9976C24.6435 15.5615 25.1446 14.5787 25.7824 13.2641C25.7955 14.4356 25.8345 17.1235 25.9061 17.4554C25.9191 17.501 25.9321 17.5466 25.9386 17.5466C26.0363 17.7613 26.3226 17.8785 26.5569 17.872C26.7912 17.872 27.0971 17.7483 27.1817 17.514C27.1948 17.475 27.2013 17.4359 27.2013 17.4099C27.1492 15.7698 27.0971 14.1297 27.0386 12.4961H27.0516Z" fill="url(#paint4_linear_10515_6963)"/>
  <path d="M15.6227 16.3752C15.6358 16.3752 15.6488 16.3752 15.6618 16.3817C15.6488 16.4012 15.6097 16.3882 15.6227 16.3687V16.3752Z" fill="#F2F3F7"/>
  <path d="M19.3326 11.6305C19.2024 11.4612 18.9681 11.4547 18.7533 11.4482C18.5451 11.4482 18.2847 11.4352 18.1155 11.6174C18.0244 11.7216 17.9984 11.8387 17.9919 11.9103C17.9919 13.1209 17.9853 14.3314 17.9788 15.542C17.9788 15.6591 17.9723 15.8804 17.8487 16.1277C17.725 16.3881 17.5428 16.5312 17.4972 16.5703C17.4972 16.5703 17.1913 16.8111 16.7943 16.8436C16.7553 16.8436 16.7097 16.8436 16.7097 16.8436C16.6967 16.8436 16.6902 16.8436 16.6772 16.8436C16.6641 16.8436 16.6576 16.8436 16.6446 16.8436C16.6446 16.8436 16.6056 16.8436 16.56 16.8436C16.163 16.8111 15.8571 16.5703 15.8571 16.5703C15.8116 16.5312 15.6293 16.3881 15.5057 16.1277C15.3885 15.8804 15.3755 15.6591 15.3755 15.542C15.3755 14.3314 15.369 13.1209 15.3625 11.9103C15.356 11.8387 15.3299 11.7151 15.2388 11.6174C15.0761 11.4352 14.8093 11.4417 14.601 11.4482C14.3797 11.4482 14.1519 11.4612 14.0218 11.6305C13.9176 11.7606 13.9241 11.9233 13.9306 11.9949V15.7958C13.9306 16.1472 14.0348 16.6158 14.3732 17.0649C14.7507 17.5661 15.2974 17.7873 15.4601 17.8459C15.7985 17.9696 16.1305 18.0086 16.2346 18.0151C16.4103 18.0347 16.56 18.0347 16.6707 18.0282C16.7813 18.0282 16.931 18.0282 17.1067 18.0151C17.2109 18.0021 17.5428 17.9696 17.8812 17.8459C18.0504 17.7808 18.5906 17.5596 18.9681 17.0649C19.3065 16.6224 19.4107 16.1538 19.4107 15.7958V11.9949C19.4172 11.9233 19.4302 11.7606 19.3196 11.6305H19.3326Z" fill="url(#paint5_linear_10515_6963)"/>
  <path d="M15.9353 17.9434C15.9483 17.9434 15.9548 17.9434 15.9678 17.9499L15.9483 17.9629L15.9353 17.9434Z" fill="#F2F3F7"/>
  <path d="M34.4058 13.4529C34.2236 12.8411 33.8461 12.3074 33.3385 11.9234C32.7592 11.4874 32.0433 11.2596 31.3274 11.2466C30.605 11.2661 29.8956 11.4939 29.3163 11.9234C28.8087 12.3074 28.4312 12.8411 28.249 13.4529C27.7283 15.2037 28.5158 17.436 30.3967 17.9307C30.7026 18.0088 31.015 18.0413 31.3274 18.0348C31.6398 18.0413 31.9522 18.0088 32.2581 17.9307C34.1455 17.436 34.933 15.2037 34.4058 13.4529ZM33 15.4119C32.8048 16.2385 32.2516 17.1301 31.3209 17.1431C30.3902 17.1366 29.837 16.245 29.6417 15.4119C29.453 14.6114 29.4855 13.6742 29.9346 12.9583C30.247 12.4636 30.7742 12.1708 31.3209 12.1708C31.8741 12.1708 32.4013 12.4701 32.7072 12.9583C33.1562 13.6677 33.1888 14.6114 33 15.4119Z" fill="url(#paint6_linear_10515_6963)"/>
  <defs>
    <linearGradient id="paint0_linear_10515_6963" x1="26.3616" y1="19.4925" x2="50.5857" y2="12.06" gradientUnits="userSpaceOnUse">
      <stop offset="0.3" stop-color="#9C8837"/>
      <stop offset="0.6" stop-color="#F0DE96"/>
      <stop offset="0.7" stop-color="#DECB80"/>
      <stop offset="0.8" stop-color="#B39F4D"/>
    </linearGradient>
    <linearGradient id="paint1_linear_10515_6963" x1="11.3341" y1="15.4052" x2="6.87585" y2="12.0273" gradientUnits="userSpaceOnUse">
      <stop offset="0.3" stop-color="#9C8837"/>
      <stop offset="0.6" stop-color="#F0DE96"/>
      <stop offset="0.7" stop-color="#DECB80"/>
      <stop offset="0.8" stop-color="#B39F4D"/>
    </linearGradient>
    <linearGradient id="paint2_linear_10515_6963" x1="9.66822" y1="17.6048" x2="5.21001" y2="14.2269" gradientUnits="userSpaceOnUse">
      <stop offset="0.3" stop-color="#9C8837"/>
      <stop offset="0.6" stop-color="#F0DE96"/>
      <stop offset="0.7" stop-color="#DECB80"/>
      <stop offset="0.8" stop-color="#B39F4D"/>
    </linearGradient>
    <linearGradient id="paint3_linear_10515_6963" x1="10.9953" y1="15.8477" x2="6.53699" y2="12.4768" gradientUnits="userSpaceOnUse">
      <stop offset="0.3" stop-color="#9C8837"/>
      <stop offset="0.6" stop-color="#F0DE96"/>
      <stop offset="0.7" stop-color="#DECB80"/>
      <stop offset="0.8" stop-color="#B39F4D"/>
    </linearGradient>
    <linearGradient id="paint4_linear_10515_6963" x1="27.8651" y1="16.7786" x2="20.9272" y2="13.1014" gradientUnits="userSpaceOnUse">
      <stop offset="0.3" stop-color="#9C8837"/>
      <stop offset="0.6" stop-color="#F0DE96"/>
      <stop offset="0.7" stop-color="#DECB80"/>
      <stop offset="0.8" stop-color="#B39F4D"/>
    </linearGradient>
    <linearGradient id="paint5_linear_10515_6963" x1="20.094" y1="16.4401" x2="13.1627" y2="12.0991" gradientUnits="userSpaceOnUse">
      <stop offset="0.3" stop-color="#9C8837"/>
      <stop offset="0.6" stop-color="#F0DE96"/>
      <stop offset="0.7" stop-color="#DECB80"/>
      <stop offset="0.8" stop-color="#B39F4D"/>
    </linearGradient>
    <linearGradient id="paint6_linear_10515_6963" x1="36.2152" y1="17.5011" x2="27.5916" y2="12.4962" gradientUnits="userSpaceOnUse">
      <stop offset="0.3" stop-color="#9C8837"/>
      <stop offset="0.6" stop-color="#F0DE96"/>
      <stop offset="0.7" stop-color="#DECB80"/>
      <stop offset="0.8" stop-color="#B39F4D"/>
    </linearGradient>
  </defs>
</svg>