<svg width="34" height="34" viewBox="0 0 34 34" fill="none" xmlns="http://www.w3.org/2000/svg">
    <path opacity="0.5" d="M31.1673 17.0002C31.1673 24.8242 24.8247 31.1668 17.0007 31.1668C9.17662 31.1668 2.83398 24.8242 2.83398 17.0002C2.83398 9.17613 9.17662 2.8335 17.0007 2.8335C24.8247 2.8335 31.1673 9.17613 31.1673 17.0002Z" fill="white"/>
    <path d="M17.0007 25.1457C17.5875 25.1457 18.0632 24.67 18.0632 24.0832V15.5832C18.0632 14.9964 17.5875 14.5207 17.0007 14.5207C16.4138 14.5207 15.9382 14.9964 15.9382 15.5832V24.0832C15.9382 24.67 16.4138 25.1457 17.0007 25.1457Z" fill="white"/>
    <path d="M17.0007 9.9165C17.7831 9.9165 18.4173 10.5508 18.4173 11.3332C18.4173 12.1156 17.7831 12.7498 17.0007 12.7498C16.2182 12.7498 15.584 12.1156 15.584 11.3332C15.584 10.5508 16.2182 9.9165 17.0007 9.9165Z" fill="white"/>
</svg>
