<svg xmlns="http://www.w3.org/2000/svg" width="30" height="30" viewBox="0 0 30 30" fill="none">
  <path d="M20.958 0.797363H9.05616C3.88639 0.797363 0.804413 3.87934 0.804413 9.04911V20.9367C0.804413 26.1207 3.88639 29.2027 9.05616 29.2027H20.9438C26.1136 29.2027 29.1955 26.1207 29.1955 20.9509V9.04911C29.2097 3.87934 26.1278 0.797363 20.958 0.797363ZM15.0071 20.5107C11.9677 20.5107 9.49644 18.0394 9.49644 15C9.49644 11.9607 11.9677 9.48939 15.0071 9.48939C18.0464 9.48939 20.5177 11.9607 20.5177 15C20.5177 18.0394 18.0464 20.5107 15.0071 20.5107ZM23.415 7.72826C23.344 7.89869 23.2446 8.05492 23.1168 8.19695C22.9748 8.32477 22.8185 8.42419 22.6481 8.49521C22.4777 8.56622 22.293 8.60883 22.1084 8.60883C21.7249 8.60883 21.3699 8.4668 21.1 8.19695C20.9722 8.05492 20.8728 7.89869 20.8018 7.72826C20.7307 7.55783 20.6881 7.3732 20.6881 7.18856C20.6881 7.00393 20.7307 6.81929 20.8018 6.64886C20.8728 6.46423 20.9722 6.3222 21.1 6.18017C21.4267 5.85351 21.9238 5.69728 22.3783 5.7967C22.4777 5.8109 22.5629 5.83931 22.6481 5.88192C22.7333 5.91032 22.8185 5.95293 22.9038 6.00974C22.9748 6.05235 23.0458 6.12336 23.1168 6.18017C23.2446 6.3222 23.344 6.46423 23.415 6.64886C23.4861 6.81929 23.5287 7.00393 23.5287 7.18856C23.5287 7.3732 23.4861 7.55783 23.415 7.72826Z" fill="white"/>
</svg>