<svg width="30" height="30" viewBox="0 0 30 30" fill="none" xmlns="http://www.w3.org/2000/svg">
<path d="M20.958 0.796875H9.05616C3.88639 0.796875 0.804413 3.87885 0.804413 9.04862V20.9363C0.804413 26.1202 3.88639 29.2022 9.05616 29.2022H20.9438C26.1136 29.2022 29.1955 26.1202 29.1955 20.9505V9.04862C29.2097 3.87885 26.1278 0.796875 20.958 0.796875ZM15.0071 20.5102C11.9677 20.5102 9.49644 18.0389 9.49644 14.9995C9.49644 11.9602 11.9677 9.4889 15.0071 9.4889C18.0464 9.4889 20.5177 11.9602 20.5177 14.9995C20.5177 18.0389 18.0464 20.5102 15.0071 20.5102ZM23.415 7.72777C23.344 7.89821 23.2446 8.05444 23.1168 8.19646C22.9748 8.32429 22.8185 8.42371 22.6481 8.49472C22.4777 8.56573 22.293 8.60834 22.1084 8.60834C21.7249 8.60834 21.3699 8.46631 21.1 8.19646C20.9722 8.05444 20.8728 7.89821 20.8018 7.72777C20.7307 7.55734 20.6881 7.37271 20.6881 7.18807C20.6881 7.00344 20.7307 6.8188 20.8018 6.64837C20.8728 6.46374 20.9722 6.32171 21.1 6.17968C21.4267 5.85302 21.9238 5.69679 22.3783 5.79621C22.4777 5.81041 22.5629 5.83882 22.6481 5.88143C22.7333 5.90983 22.8185 5.95244 22.9038 6.00925C22.9748 6.05186 23.0458 6.12287 23.1168 6.17968C23.2446 6.32171 23.344 6.46374 23.415 6.64837C23.4861 6.8188 23.5287 7.00344 23.5287 7.18807C23.5287 7.37271 23.4861 7.55734 23.415 7.72777Z" fill="#8D99E4"/>
</svg>
