<svg xmlns="http://www.w3.org/2000/svg" width="14" height="14" viewBox="0 0 14 14" fill="none">
  <path fill-rule="evenodd" clip-rule="evenodd" d="M10.761 1.79265C10.143 1.5992 9.57748 2.09239 9.57748 2.69503V4.80998C8.82097 4.95698 7.94147 5.04202 6.99996 5.04202C6.05845 5.04202 5.17894 4.95698 4.42244 4.80998V2.69503C4.42244 2.09239 3.85692 1.5992 3.23893 1.79265C2.66644 1.97186 2.17107 2.19932 1.80994 2.47477C1.45511 2.74542 1.16663 3.11421 1.16663 3.57669V10.5459C1.16663 10.6715 1.18843 10.7914 1.22732 10.9045C1.26222 11.006 1.31088 11.1019 1.36989 11.1916C1.55855 11.4783 1.8603 11.7132 2.20997 11.9053C2.5647 12.1001 2.99773 12.2666 3.48401 12.4025C4.45696 12.6743 5.67969 12.8333 6.99996 12.8333C8.10885 12.8333 9.14758 12.7211 10.0268 12.5249C10.8977 12.3305 11.6444 12.0465 12.1443 11.682C12.2658 11.5933 12.3806 11.4938 12.4803 11.3835C12.6901 11.1516 12.8333 10.8722 12.8333 10.5459V3.57669C12.8333 3.11421 12.5448 2.74542 12.19 2.47477C11.8288 2.19932 11.3335 1.97186 10.761 1.79265ZM12.0193 4.79884C12.0037 4.80909 11.9879 4.8192 11.972 4.82915C11.4924 5.13047 10.8337 5.37166 10.0741 5.54495C9.18482 5.74784 8.12867 5.86409 6.99996 5.86409C5.87124 5.86409 4.81509 5.74784 3.92579 5.54495C3.16623 5.37166 2.5075 5.13047 2.02789 4.82915C2.01204 4.8192 1.99627 4.80909 1.98058 4.79884V10.1437L3.63183 8.58304L4.37632 7.95369C4.91743 7.49625 5.72813 7.52135 6.23836 8.01431L8.0405 9.75541C8.18954 9.8994 8.43224 9.92172 8.60935 9.80146L8.73462 9.7164C9.36629 9.28751 10.2184 9.33582 10.795 9.83718L11.904 10.8015C11.9948 10.692 12.0193 10.6047 12.0193 10.5459V4.79884Z" fill="#1C274C"/>
  <path opacity="0.5" d="M11.2057 7.48997C11.2057 7.94398 10.8412 8.31204 10.3917 8.31204C9.94218 8.31204 9.57776 7.94398 9.57776 7.48997C9.57776 7.03595 9.94218 6.66789 10.3917 6.66789C10.8412 6.66789 11.2057 7.03595 11.2057 7.48997Z" fill="#1C274C"/>
</svg>