<svg xmlns="http://www.w3.org/2000/svg" width="14" height="14" viewBox="0 0 14 14" fill="none">
  <g clip-path="url(#clip0_5661_6346)">
    <path d="M7.43754 7.29633L12.3959 5.313V8.61053C12.1012 8.42187 11.7509 8.31249 11.375 8.31249C10.328 8.31249 9.47921 9.16129 9.47921 10.2083C9.47921 11.2554 10.328 12.1042 11.375 12.1042C12.4221 12.1042 13.2709 11.2554 13.2709 10.2083C13.2709 10.2083 13.2709 10.2084 13.2709 10.2083L13.2709 4.63531C13.2709 3.96865 13.2709 3.40956 13.224 2.96409C13.2173 2.90114 13.2095 2.83855 13.2008 2.78014C13.1557 2.47581 13.0758 2.19191 12.9217 1.95483C12.8446 1.8363 12.749 1.72946 12.6298 1.63764C12.6075 1.62042 12.5843 1.60373 12.5603 1.58759L12.5555 1.58437C12.1429 1.30981 11.6791 1.32945 11.2014 1.45119C10.7393 1.56894 10.1665 1.80871 9.46407 2.10273L8.24253 2.614C7.91327 2.7518 7.63431 2.86854 7.41536 2.98946C7.1824 3.11812 6.98174 3.26986 6.83125 3.49598C6.68076 3.7221 6.61826 3.96579 6.58953 4.23035C6.56252 4.47901 6.56253 4.78141 6.56254 5.13833V9.77719C6.26787 9.58854 5.91756 9.47916 5.54171 9.47916C4.49467 9.47916 3.64587 10.328 3.64587 11.375C3.64587 12.422 4.49467 13.2708 5.54171 13.2708C6.58875 13.2708 7.43754 12.422 7.43754 11.375C7.43754 11.375 7.43754 11.375 7.43754 11.375L7.43754 7.29633Z" fill="#1C274C"/>
    <path opacity="0.5" d="M4.52079 1.16667C4.52079 0.925047 4.32492 0.729172 4.08329 0.729172C3.84167 0.729172 3.64579 0.925047 3.64579 1.16667V4.5272C3.35112 4.33855 3.00081 4.22917 2.62496 4.22917C1.57792 4.22917 0.729126 5.07796 0.729126 6.125C0.729126 7.17204 1.57792 8.02084 2.62496 8.02084C3.672 8.02084 4.52079 7.17204 4.52079 6.125V2.9193C4.92826 3.21366 5.41303 3.35417 5.83329 3.35417C6.07492 3.35417 6.27079 3.1583 6.27079 2.91667C6.27079 2.67505 6.07492 2.47917 5.83329 2.47917C5.56825 2.47917 5.2303 2.37644 4.96506 2.15738C4.71236 1.94869 4.52079 1.63208 4.52079 1.16667Z" fill="#1C274C"/>
  </g>
  <defs>
    <clipPath id="clip0_5661_6346">
      <rect width="14" height="14" fill="white"/>
    </clipPath>
  </defs>
</svg>