<svg width="24" height="28" viewBox="0 0 24 28" fill="none" xmlns="http://www.w3.org/2000/svg">
<circle opacity="0.5" cx="12" cy="12" r="10" fill="#8D99E4"/>
<path d="M8.57516 9.44737C8.3879 7.36316 6.7806 5.42105 6.00035 4.71053L5.56934 4.34189C7.30792 2.88037 9.55133 2 12.0004 2C14.2137 2 16.2592 2.7191 17.9158 3.93642C18.1498 4.64695 17.704 6.13158 17.2359 6.84211C17.0663 7.09947 16.6818 7.41898 16.2602 7.72186C15.3097 8.40477 14.1102 8.74254 13.5004 10C13.326 10.3595 13.3335 10.7108 13.4173 11.0163C13.4776 11.2358 13.5161 11.4745 13.5167 11.708C13.5187 12.4629 12.7552 13.0082 12.0004 13C10.0361 12.9786 8.7502 11.3955 8.57516 9.44737Z" fill="#8D99E4"/>
<path d="M13.4365 18.2761C14.4246 16.414 17.7182 16.414 17.7182 16.414C21.1502 16.3782 21.6138 14.2944 21.9237 13.2412C21.369 17.7226 17.8494 21.2849 13.3885 21.9046C13.0659 21.2256 12.6837 19.6946 13.4365 18.2761Z" fill="#8D99E4"/>
<rect x="1" y="14" width="23" height="14" rx="7" fill="#D0CEFF"/>
<path d="M7.72 18.412H8.8V19.252C8.984 18.9 9.208 18.652 9.472 18.508C9.744 18.356 10.108 18.272 10.564 18.256V19.348C9.42 19.436 8.848 20.06 8.848 21.22V25H7.72V18.412ZM16.1866 24.112C15.9306 24.48 15.6426 24.748 15.3226 24.916C15.0106 25.076 14.6146 25.156 14.1346 25.156C13.2386 25.156 12.5626 24.888 12.1066 24.352C11.6586 23.816 11.4346 23.016 11.4346 21.952V18.412H12.5626V21.856C12.5626 22.632 12.7026 23.204 12.9826 23.572C13.2626 23.94 13.6986 24.124 14.2906 24.124C15.5226 24.124 16.1386 23.316 16.1386 21.7V18.412H17.2666V25H16.1866V24.112Z" fill="#6A78CF"/>
</svg>
