<svg width="28" height="28" viewBox="0 0 28 28" fill="none" xmlns="http://www.w3.org/2000/svg">
<circle opacity="0.5" cx="13.5" cy="12" r="10" fill="#8D99E4"/>
<path d="M10.0752 9.44737C9.8879 7.36316 8.2806 5.42105 7.50035 4.71053L7.06934 4.34189C8.80792 2.88037 11.0513 2 13.5004 2C15.7137 2 17.7592 2.7191 19.4158 3.93642C19.6498 4.64695 19.204 6.13158 18.7359 6.84211C18.5663 7.09947 18.1818 7.41898 17.7602 7.72186C16.8097 8.40477 15.6102 8.74254 15.0004 10C14.826 10.3595 14.8335 10.7108 14.9173 11.0163C14.9776 11.2358 15.0161 11.4745 15.0167 11.708C15.0187 12.4629 14.2552 13.0082 13.5004 13C11.5361 12.9786 10.2502 11.3955 10.0752 9.44737Z" fill="#8D99E4"/>
<path d="M14.9365 18.2761C15.9246 16.414 19.2182 16.414 19.2182 16.414C22.6502 16.3782 23.1138 14.2944 23.4237 13.2412C22.869 17.7226 19.3494 21.2849 14.8885 21.9046C14.5659 21.2256 14.1837 19.6946 14.9365 18.2761Z" fill="#8D99E4"/>
<rect y="14" width="28" height="14" rx="7" fill="#D0CEFF"/>
<path d="M13.14 22.9C13.028 23.236 12.864 23.544 12.648 23.824C12.44 24.096 12.196 24.332 11.916 24.532C11.636 24.732 11.328 24.888 10.992 25C10.664 25.104 10.32 25.156 9.96 25.156C9.472 25.156 9.012 25.068 8.58 24.892C8.156 24.708 7.784 24.46 7.464 24.148C7.144 23.836 6.892 23.472 6.708 23.056C6.532 22.632 6.444 22.176 6.444 21.688C6.444 21.208 6.532 20.76 6.708 20.344C6.892 19.928 7.136 19.564 7.44 19.252C7.752 18.94 8.116 18.696 8.532 18.52C8.948 18.344 9.396 18.256 9.876 18.256C10.356 18.256 10.804 18.348 11.22 18.532C11.644 18.708 12.012 18.952 12.324 19.264C12.636 19.568 12.88 19.928 13.056 20.344C13.24 20.76 13.332 21.208 13.332 21.688C13.332 21.848 13.316 21.996 13.284 22.132H7.62C7.644 22.42 7.72 22.684 7.848 22.924C7.984 23.164 8.152 23.376 8.352 23.56C8.56 23.736 8.8 23.876 9.072 23.98C9.344 24.076 9.632 24.124 9.936 24.124C10.376 24.124 10.772 24.016 11.124 23.8C11.484 23.584 11.76 23.284 11.952 22.9H13.14ZM12.192 21.136C12.056 20.552 11.784 20.1 11.376 19.78C10.976 19.452 10.48 19.288 9.888 19.288C9.312 19.288 8.82 19.456 8.412 19.792C8.004 20.12 7.74 20.568 7.62 21.136H12.192ZM14.4544 18.412H15.5344V19.192C15.8144 18.864 16.1184 18.628 16.4464 18.484C16.7744 18.332 17.1504 18.256 17.5744 18.256C19.3904 18.256 20.2984 19.344 20.2984 21.52V25H19.1704V21.616C19.1704 20.064 18.5784 19.288 17.3944 19.288C16.1864 19.288 15.5824 20.04 15.5824 21.544V25H14.4544V18.412Z" fill="#6A78CF"/>
</svg>
