<svg width="26" height="28" viewBox="0 0 26 28" fill="none" xmlns="http://www.w3.org/2000/svg">
<circle opacity="0.5" cx="12.5" cy="12" r="10" fill="#8D99E4"/>
<path d="M9.07516 9.44737C8.8879 7.36316 7.2806 5.42105 6.50035 4.71053L6.06934 4.34189C7.80792 2.88037 10.0513 2 12.5004 2C14.7137 2 16.7592 2.7191 18.4158 3.93642C18.6498 4.64695 18.204 6.13158 17.7359 6.84211C17.5663 7.09947 17.1818 7.41898 16.7602 7.72186C15.8097 8.40477 14.6102 8.74254 14.0004 10C13.826 10.3595 13.8335 10.7108 13.9173 11.0163C13.9776 11.2358 14.0161 11.4745 14.0167 11.708C14.0187 12.4629 13.2552 13.0082 12.5004 13C10.5361 12.9786 9.2502 11.3955 9.07516 9.44737Z" fill="#8D99E4"/>
<path d="M13.9365 18.2761C14.9246 16.414 18.2182 16.414 18.2182 16.414C21.6502 16.3782 22.1138 14.2944 22.4237 13.2412C21.869 17.7226 18.3494 21.2849 13.8885 21.9046C13.5659 21.2256 13.1837 19.6946 13.9365 18.2761Z" fill="#8D99E4"/>
<rect x="0.5" y="14" width="25" height="14" rx="7" fill="#D0CEFF"/>
<path d="M11.96 24.112C11.704 24.48 11.416 24.748 11.096 24.916C10.784 25.076 10.388 25.156 9.908 25.156C9.012 25.156 8.336 24.888 7.88 24.352C7.432 23.816 7.208 23.016 7.208 21.952V18.412H8.336V21.856C8.336 22.632 8.476 23.204 8.756 23.572C9.036 23.94 9.472 24.124 10.064 24.124C11.296 24.124 11.912 23.316 11.912 21.7V18.412H13.04V25H11.96V24.112ZM13.9696 23.992L17.3536 19.42H14.1616V18.412H18.6616V19.384L15.3016 23.992H18.8896V25H13.9696V23.992Z" fill="#6A78CF"/>
</svg>
