<svg xmlns="http://www.w3.org/2000/svg" width="28" height="28" viewBox="0 0 28 28" fill="none">
  <path d="M19.25 15.5016C16.3626 12.3332 12.8334 14.6704 12.8334 17.966C12.8334 20.9514 14.9497 22.6735 16.7516 24.1397L16.8022 24.1809C16.972 24.3191 17.1388 24.4551 17.3005 24.5897C17.9667 25.1444 18.6084 25.6667 19.25 25.6667C19.8917 25.6667 20.5334 25.1444 21.1996 24.5897C23.0876 23.0178 25.6667 21.2616 25.6667 17.966C25.6667 16.8834 25.2858 15.9042 24.672 15.1896C23.4172 13.729 21.1889 13.3741 19.25 15.5016Z" fill="#9B98F1"/>
  <path d="M9.45736 21.288C6.18126 18.7639 2.33337 15.7992 2.33337 10.6599C2.33337 4.98652 8.75023 0.963042 14 6.4174C19.2499 0.963042 25.6667 4.98652 25.6667 10.6599C25.6667 11.6324 25.5289 12.5271 25.2833 13.3556C24.4445 12.6818 23.3929 12.2566 22.2273 12.25C21.1891 12.2442 20.1759 12.5702 19.2486 13.1951C17.6283 12.1068 15.8001 11.9604 14.1981 12.7338C12.2903 13.6549 11.0834 15.7156 11.0834 17.966C11.0834 20.6554 12.4233 22.5419 13.8151 23.9093C12.71 23.8215 11.6027 22.9671 10.4554 22.0627C10.1322 21.8079 9.79787 21.5503 9.45736 21.288Z" fill="#9B98F1"/>
</svg>