<svg xmlns="http://www.w3.org/2000/svg" width="20" height="20" viewBox="0 0 20 20" fill="none">
  <path opacity="0.6" d="M12.5003 1.66699H11.667C9.30997 1.66699 8.13146 1.66699 7.39923 2.39923C6.66699 3.13146 6.66699 4.30997 6.66699 6.66699V13.3337C6.66699 15.6907 6.66699 16.8692 7.39923 17.6014C8.13146 18.3337 9.30997 18.3337 11.667 18.3337H12.5003C14.8573 18.3337 16.0359 18.3337 16.7681 17.6014C17.5003 16.8692 17.5003 15.6907 17.5003 13.3337V6.66699C17.5003 4.30997 17.5003 3.13146 16.7681 2.39923C16.0359 1.66699 14.8573 1.66699 12.5003 1.66699Z" fill="white"/>
  <path opacity="0.4" d="M6.66667 6.66667C6.66667 5.38541 6.66667 4.45239 6.78428 3.75H6.66667C4.70248 3.75 3.72039 3.75 3.11019 4.36019C2.5 4.97039 2.5 5.95248 2.5 7.91667V12.0833C2.5 14.0475 2.5 15.0296 3.11019 15.6398C3.72039 16.25 4.70248 16.25 6.66667 16.25H6.78428C6.66667 15.5476 6.66667 14.6146 6.66667 13.3333V10.625V9.375V6.66667Z" fill="white"/>
  <path fill-rule="evenodd" clip-rule="evenodd" d="M3.72505 9.55773C3.48097 9.80181 3.48097 10.1975 3.72505 10.4416L5.39172 12.1083C5.63579 12.3524 6.03152 12.3524 6.2756 12.1083C6.51968 11.8642 6.51968 11.4685 6.2756 11.2244L5.67588 10.6247L11.667 10.6247C12.0122 10.6247 12.292 10.3449 12.292 9.99967C12.292 9.6545 12.0122 9.37467 11.667 9.37467L5.67588 9.37467L6.2756 8.77495C6.51968 8.53087 6.51968 8.13514 6.2756 7.89107C6.03152 7.64699 5.63579 7.64699 5.39172 7.89107L3.72505 9.55773Z" fill="white"/>
</svg>