<svg width="30" height="24" viewBox="0 0 30 24" fill="none" xmlns="http://www.w3.org/2000/svg">
<path fill-rule="evenodd" clip-rule="evenodd" d="M5.06309 23.3555C3.93362 23.3555 2.85041 22.9068 2.05175 22.1082C1.25309 21.3095 0.804413 20.2263 0.804413 19.0968V4.90125C0.804413 3.77178 1.25309 2.68857 2.05175 1.88992C2.85041 1.09126 3.93362 0.642578 5.06309 0.642578H24.9369C26.0664 0.642578 27.1496 1.09126 27.9482 1.88992C28.7469 2.68857 29.1956 3.77178 29.1956 4.90125V19.0968C29.1956 20.2263 28.7469 21.3095 27.9482 22.1082C27.1496 22.9068 26.0664 23.3555 24.9369 23.3555H5.06309ZM8.78943 6.63311C8.64482 6.50964 8.47689 6.41647 8.29558 6.35914C8.11428 6.30182 7.92331 6.2815 7.734 6.2994C7.5447 6.31729 7.36092 6.37304 7.19357 6.46333C7.02622 6.55362 6.87872 6.67661 6.75982 6.825C6.64092 6.97339 6.55304 7.14415 6.5014 7.32716C6.44976 7.51016 6.43542 7.70167 6.45922 7.89033C6.48302 8.07898 6.54448 8.26093 6.63995 8.42538C6.73542 8.58983 6.86295 8.73341 7.01498 8.84763L12.3383 13.1077C13.0937 13.7125 14.0324 14.042 15 14.042C15.9676 14.042 16.9063 13.7125 17.6617 13.1077L22.985 8.84905C23.1306 8.73253 23.2518 8.58849 23.3417 8.42513C23.4317 8.26177 23.4885 8.0823 23.5091 7.89696C23.5297 7.71162 23.5135 7.52405 23.4616 7.34495C23.4097 7.16586 23.323 6.99874 23.2065 6.85315C23.09 6.70755 22.9459 6.58633 22.7825 6.49641C22.6192 6.40649 22.4397 6.34962 22.2544 6.32906C22.069 6.30849 21.8815 6.32464 21.7024 6.37656C21.5233 6.42849 21.3562 6.51518 21.2106 6.63169L15.8872 10.8904C15.6354 11.092 15.3225 11.2018 15 11.2018C14.6775 11.2018 14.3645 11.092 14.1128 10.8904L8.78943 6.63169V6.63311Z" fill="#8D99E4"/>
</svg>
