<svg xmlns="http://www.w3.org/2000/svg" width="30" height="24" viewBox="0 0 30 24" fill="none">
  <path fill-rule="evenodd" clip-rule="evenodd" d="M5.06309 23.3565C3.93362 23.3565 2.85041 22.9078 2.05175 22.1092C1.25309 21.3105 0.804413 20.2273 0.804413 19.0978V4.90223C0.804413 3.77276 1.25309 2.68955 2.05175 1.89089C2.85041 1.09224 3.93362 0.643555 5.06309 0.643555H24.9369C26.0664 0.643555 27.1496 1.09224 27.9482 1.89089C28.7469 2.68955 29.1956 3.77276 29.1956 4.90223V19.0978C29.1956 20.2273 28.7469 21.3105 27.9482 22.1092C27.1496 22.9078 26.0664 23.3565 24.9369 23.3565H5.06309ZM8.78943 6.63409C8.64482 6.51061 8.47689 6.41745 8.29558 6.36012C8.11428 6.30279 7.92331 6.28248 7.734 6.30037C7.5447 6.31827 7.36092 6.37402 7.19357 6.46431C7.02622 6.55459 6.87872 6.67758 6.75982 6.82597C6.64092 6.97436 6.55304 7.14513 6.5014 7.32813C6.44976 7.51114 6.43542 7.70265 6.45922 7.8913C6.48302 8.07996 6.54448 8.26191 6.63995 8.42636C6.73542 8.5908 6.86295 8.73439 7.01498 8.8486L12.3383 13.1087C13.0937 13.7134 14.0324 14.0429 15 14.0429C15.9676 14.0429 16.9063 13.7134 17.6617 13.1087L22.985 8.85002C23.1306 8.73351 23.2518 8.58946 23.3417 8.4261C23.4317 8.26274 23.4885 8.08327 23.5091 7.89794C23.5297 7.7126 23.5135 7.52503 23.4616 7.34593C23.4097 7.16683 23.323 6.99972 23.2065 6.85412C23.09 6.70853 22.9459 6.58731 22.7825 6.49739C22.6192 6.40746 22.4397 6.3506 22.2544 6.33003C22.069 6.30947 21.8815 6.32561 21.7024 6.37754C21.5233 6.42947 21.3562 6.51616 21.2106 6.63267L15.8872 10.8913C15.6354 11.0929 15.3225 11.2028 15 11.2028C14.6775 11.2028 14.3645 11.0929 14.1128 10.8913L8.78943 6.63267V6.63409Z" fill="white"/>
</svg>