<svg width="16" height="16" viewBox="0 0 16 16" fill="none" xmlns="http://www.w3.org/2000/svg">
<path d="M9.50001 12.6666H10.5C12.045 12.663 12.8717 12.625 13.4815 12.2175C13.7727 12.023 14.0227 11.773 14.2173 11.4818C14.6667 10.8092 14.6667 9.8729 14.6667 8.00029C14.6667 6.12767 14.6667 5.19136 14.2173 4.51877C14.0227 4.22759 13.7727 3.97759 13.4815 3.78303C12.8717 3.37553 12.045 3.33753 10.5 3.33398H9.50001V6H10C11.1046 6 12 6.89543 12 8C12 9.10457 11.1046 10 10 10H9.50001V12.6666Z" fill="#9B98F1"/>
<path d="M6.50001 12.6666V10H6.00001C4.89544 10 4.00001 9.10457 4.00001 8C4.00001 6.89543 4.89544 6 6.00001 6H6.50001V3.33398H5.50001C3.95506 3.33753 3.12836 3.37553 2.51849 3.78303C2.22732 3.97759 1.97731 4.22759 1.78276 4.51877C1.33334 5.19136 1.33334 6.12767 1.33334 8.00029C1.33334 9.8729 1.33334 10.8092 1.78276 11.4818C1.97731 11.773 2.22732 12.023 2.51849 12.2175C3.12836 12.625 3.95506 12.663 5.50001 12.6666H6.50001Z" fill="#9B98F1"/>
<path opacity="0.5" d="M6.5 12.6667L9.5 12.6667V3.33337H6.5V12.6667Z" fill="#9B98F1"/>
</svg>
