<svg xmlns="http://www.w3.org/2000/svg" width="28" height="28" viewBox="0 0 28 28" fill="none">
  <path fill-rule="evenodd" clip-rule="evenodd" d="M20.7453 11.1057C21.083 10.7706 21.6305 10.7706 21.9682 11.1057L23.6627 12.7869L25.3571 11.1057C25.6948 10.7706 26.2423 10.7706 26.58 11.1057C26.9177 11.4407 26.9177 11.984 26.58 12.319L24.8855 14.0002L26.58 15.6814C26.9176 16.0165 26.9176 16.5597 26.58 16.8947C26.2423 17.2298 25.6948 17.2298 25.3571 16.8947L23.6627 15.2135L21.9682 16.8948C21.6305 17.2298 21.083 17.2298 20.7454 16.8948C20.4077 16.5597 20.4077 16.0165 20.7454 15.6814L22.4398 14.0002L20.7453 12.319C20.4076 11.984 20.4076 11.4407 20.7453 11.1057Z" fill="#9B98F1"/>
  <g opacity="0.5">
    <path d="M2.33706 13.668C2.38388 11.5188 2.40728 10.4442 3.17454 9.52422C3.31458 9.35631 3.52005 9.1568 3.69227 9.02152C4.63582 8.28031 5.88157 8.28031 8.37307 8.28031C9.26321 8.28031 9.70828 8.28031 10.1325 8.17193C10.2207 8.14941 10.3079 8.12345 10.394 8.0941C10.8084 7.95286 11.18 7.70975 11.9232 7.22354C14.8555 5.30527 16.3216 4.34613 17.5522 4.7628C17.7881 4.84268 18.0165 4.95799 18.2205 5.10022C19.2843 5.84201 19.3651 7.56787 19.5268 11.0196C19.5867 12.2977 19.6274 13.3915 19.6274 14C19.6274 14.6084 19.5867 15.7023 19.5268 16.9804C19.3651 20.4321 19.2843 22.158 18.2205 22.8998C18.0165 23.042 17.7881 23.1573 17.5522 23.2372C16.3216 23.6538 14.8555 22.6947 11.9232 20.7764C11.18 20.2902 10.8084 20.0471 10.394 19.9059C10.3079 19.8765 10.2207 19.8506 10.1325 19.8281C9.70828 19.7197 9.26321 19.7197 8.37307 19.7197C5.88157 19.7197 4.63582 19.7197 3.69227 18.9785C3.52005 18.8432 3.31458 18.6437 3.17454 18.4758C2.40728 17.5558 2.38388 16.4812 2.33706 14.3319C2.3346 14.219 2.33331 14.1082 2.33331 14C2.33331 13.8917 2.3346 13.7809 2.33706 13.668Z" fill="#9B98F1"/>
  </g>
</svg>