<svg xmlns="http://www.w3.org/2000/svg" width="35" height="34" viewBox="0 0 35 34" fill="none">
  <path fill-rule="evenodd" clip-rule="evenodd" d="M3.63342 9.39829C3.63342 5.77252 6.57269 2.83325 10.1985 2.83325C13.8242 2.83325 16.7635 5.77252 16.7635 9.39829C16.7635 13.0241 13.8242 15.9633 10.1985 15.9633C6.57269 15.9633 3.63342 13.0241 3.63342 9.39829Z" fill="#9B98F1"/>
  <path opacity="0.5" fill-rule="evenodd" clip-rule="evenodd" d="M18.8369 24.6017C18.8369 20.9759 21.7762 18.0366 25.402 18.0366C29.0277 18.0366 31.967 20.9759 31.967 24.6017C31.967 28.2274 29.0277 31.1667 25.402 31.1667C21.7762 31.1667 18.8369 28.2274 18.8369 24.6017Z" fill="#9B98F1"/>
  <path d="M3.63342 24.7917C3.63342 21.7865 3.63342 20.2839 4.56702 19.3503C5.50062 18.4167 7.00322 18.4167 10.0084 18.4167C13.0136 18.4167 14.5162 18.4167 15.4498 19.3503C16.3834 20.2839 16.3834 21.7865 16.3834 24.7917C16.3834 27.797 16.3834 29.2996 15.4498 30.2332C14.5162 31.1667 13.0136 31.1667 10.0084 31.1667C7.00322 31.1667 5.50062 31.1667 4.56702 30.2332C3.63342 29.2996 3.63342 27.797 3.63342 24.7917Z" fill="#9B98F1"/>
  <path opacity="0.5" d="M19.2167 9.20825C19.2167 6.20305 19.2167 4.70045 20.1503 3.76685C21.0839 2.83325 22.5865 2.83325 25.5917 2.83325C28.5969 2.83325 30.0995 2.83325 31.0331 3.76685C31.9667 4.70045 31.9667 6.20305 31.9667 9.20825C31.9667 12.2135 31.9667 13.7161 31.0331 14.6497C30.0995 15.5833 28.5969 15.5833 25.5917 15.5833C22.5865 15.5833 21.0839 15.5833 20.1503 14.6497C19.2167 13.7161 19.2167 12.2135 19.2167 9.20825Z" fill="#9B98F1"/>
</svg>