<svg xmlns="http://www.w3.org/2000/svg" width="34" height="34" viewBox="0 0 34 34" fill="none">
  <path opacity="0.6" d="M21.25 2.83325H19.8334C15.8264 2.83325 13.823 2.83325 12.5782 4.07805C11.3334 5.32284 11.3334 7.32631 11.3334 11.3333V22.6666C11.3334 26.6735 11.3334 28.677 12.5782 29.9218C13.823 31.1666 15.8264 31.1666 19.8334 31.1666H21.25C25.257 31.1666 27.2605 31.1666 28.5052 29.9218C29.75 28.677 29.75 26.6735 29.75 22.6666V11.3333C29.75 7.32631 29.75 5.32284 28.5052 4.07805C27.2605 2.83325 25.257 2.83325 21.25 2.83325Z" fill="#8D99E4"/>
  <path opacity="0.4" d="M11.3333 11.3333C11.3333 9.1552 11.3333 7.56907 11.5333 6.375H11.3333C7.99422 6.375 6.32466 6.375 5.28733 7.41233C4.25 8.44966 4.25 10.1192 4.25 13.4583V20.5417C4.25 23.8808 4.25 25.5503 5.28733 26.5877C6.32466 27.625 7.99422 27.625 11.3333 27.625H11.5333C11.3333 26.4309 11.3333 24.8448 11.3333 22.6667V18.0625V15.9375V11.3333Z" fill="#8D99E4"/>
  <path fill-rule="evenodd" clip-rule="evenodd" d="M20.5847 16.2488C20.9996 16.6637 20.9996 17.3365 20.5847 17.7514L17.7513 20.5847C17.3364 20.9996 16.6637 20.9996 16.2487 20.5847C15.8338 20.1698 15.8338 19.497 16.2487 19.0821L17.2683 18.0626L7.08337 18.0626C6.49657 18.0626 6.02087 17.5869 6.02087 17.0001C6.02087 16.4133 6.49657 15.9376 7.08337 15.9376L17.2683 15.9376L16.2487 14.918C15.8338 14.5031 15.8338 13.8304 16.2487 13.4154C16.6637 13.0005 17.3364 13.0005 17.7513 13.4154L20.5847 16.2488Z" fill="#8D99E4"/>
</svg>