<svg xmlns="http://www.w3.org/2000/svg" width="34" height="34" viewBox="0 0 34 34" fill="none">
  <path opacity="0.5" d="M2.83337 17.2888C2.83337 14.0469 2.83337 12.4259 3.56891 11.0821C4.30444 9.73838 5.64821 8.9044 8.33575 7.23643L11.1691 5.47799C14.01 3.71483 15.4305 2.83325 17 2.83325C18.5696 2.83325 19.9901 3.71483 22.831 5.47798L25.6643 7.23643C28.3519 8.9044 29.6956 9.73838 30.4312 11.0821C31.1667 12.4259 31.1667 14.0469 31.1667 17.2888V19.4436C31.1667 24.9699 31.1667 27.733 29.507 29.4498C27.8472 31.1666 25.176 31.1666 19.8334 31.1666H14.1667C8.82412 31.1666 6.15283 31.1666 4.4931 29.4498C2.83337 27.733 2.83337 24.9699 2.83337 19.4436V17.2888Z" fill="#8D99E4"/>
  <path d="M12.75 24.4375C12.1632 24.4375 11.6875 24.9132 11.6875 25.5C11.6875 26.0868 12.1632 26.5625 12.75 26.5625H21.25C21.8368 26.5625 22.3125 26.0868 22.3125 25.5C22.3125 24.9132 21.8368 24.4375 21.25 24.4375H12.75Z" fill="#8D99E4"/>
</svg>