<svg xmlns="http://www.w3.org/2000/svg" width="35" height="34" viewBox="0 0 35 34" fill="none">
  <path opacity="0.5" d="M14.5667 2.83325C13.1975 2.83325 12.0875 3.94321 12.0875 5.31242C12.0875 6.68162 13.1975 7.79158 14.5667 7.79158H20.2334C21.6026 7.79158 22.7125 6.68162 22.7125 5.31242C22.7125 3.94321 21.6026 2.83325 20.2334 2.83325H14.5667Z" fill="#8D99E4"/>
  <path opacity="0.5" d="M5.87299 22.9573C4.65757 18.0956 4.04985 15.6647 5.32603 14.0303C6.60221 12.3958 9.10787 12.3958 14.1192 12.3958H20.6793C25.6907 12.3958 28.1963 12.3958 29.4725 14.0303C30.7487 15.6647 30.141 18.0956 28.9256 22.9573C28.1525 26.0494 27.766 27.5955 26.6131 28.4956C25.4603 29.3958 23.8666 29.3958 20.6793 29.3958H14.1192C10.9319 29.3958 9.33826 29.3958 8.1854 28.4956C7.03254 27.5955 6.64603 26.0494 5.87299 22.9573Z" fill="#8D99E4"/>
  <path d="M22.4724 6.37823C22.6263 6.05537 22.7125 5.69398 22.7125 5.31246C22.7125 4.93273 22.6271 4.57293 22.4745 4.25122C23.4428 4.25826 24.1975 4.30271 24.8712 4.56602C25.6762 4.88061 26.3763 5.4154 26.8916 6.10923C27.4114 6.80918 27.6554 7.70634 27.9913 8.94117L28.057 9.18252L28.7833 13.3801C28.2044 12.9807 27.4578 12.7433 26.4922 12.6023L25.9803 9.6443C25.5783 8.17138 25.4324 7.7085 25.1856 7.37618C24.9081 7.00258 24.5311 6.71462 24.0977 6.54522C23.7863 6.42352 23.41 6.38771 22.4724 6.37823Z" fill="#8D99E4"/>
  <path d="M12.3255 4.25122C12.1729 4.57293 12.0875 4.93273 12.0875 5.31246C12.0875 5.69398 12.1737 6.05537 12.3276 6.37823C11.39 6.38771 11.0138 6.42352 10.7024 6.54522C10.2689 6.71462 9.89195 7.00258 9.6145 7.37618C9.3677 7.7085 9.22179 8.17138 8.81976 9.6443L8.30792 12.6022C7.34241 12.7431 6.59582 12.9803 6.01685 13.3794L6.74309 9.18252L6.8088 8.94119C7.14466 7.70635 7.38868 6.80918 7.9085 6.10923C8.42376 5.4154 9.1239 4.88061 9.92883 4.56602C10.6025 4.30272 11.3572 4.25826 12.3255 4.25122Z" fill="#8D99E4"/>
  <path d="M12.7959 18.0625C12.7959 17.4757 12.3202 17 11.7334 17C11.1466 17 10.6709 17.4757 10.6709 18.0625V23.7292C10.6709 24.316 11.1466 24.7917 11.7334 24.7917C12.3202 24.7917 12.7959 24.316 12.7959 23.7292V18.0625Z" fill="#8D99E4"/>
  <path d="M23.0667 17C23.6535 17 24.1292 17.4757 24.1292 18.0625V23.7292C24.1292 24.316 23.6535 24.7917 23.0667 24.7917C22.4799 24.7917 22.0042 24.316 22.0042 23.7292V18.0625C22.0042 17.4757 22.4799 17 23.0667 17Z" fill="#8D99E4"/>
  <path d="M18.4626 18.0625C18.4626 17.4757 17.9869 17 17.4001 17C16.8133 17 16.3376 17.4757 16.3376 18.0625V23.7292C16.3376 24.316 16.8133 24.7917 17.4001 24.7917C17.9869 24.7917 18.4626 24.316 18.4626 23.7292V18.0625Z" fill="#8D99E4"/>
</svg>