<svg width="34" height="34" viewBox="0 0 34 34" fill="none" xmlns="http://www.w3.org/2000/svg">
<path fill-rule="evenodd" clip-rule="evenodd" d="M5.66669 6.65039V26.4837C5.66669 28.8309 7.56948 30.7337 9.91669 30.7337H24.0834C26.4306 30.7337 28.3334 28.8309 28.3334 26.4837V12.3171C28.3334 9.96985 26.4306 8.06706 24.0834 8.06706H7.08335C6.30095 8.06706 5.66669 7.43279 5.66669 6.65039ZM10.2709 16.5671C10.2709 15.9803 10.7466 15.5046 11.3334 15.5046H22.6667C23.2535 15.5046 23.7292 15.9803 23.7292 16.5671C23.7292 17.1539 23.2535 17.6296 22.6667 17.6296H11.3334C10.7466 17.6296 10.2709 17.1539 10.2709 16.5671ZM10.2709 21.5254C10.2709 20.9386 10.7466 20.4629 11.3334 20.4629H19.125C19.7118 20.4629 20.1875 20.9386 20.1875 21.5254C20.1875 22.1122 19.7118 22.5879 19.125 22.5879H11.3334C10.7466 22.5879 10.2709 22.1122 10.2709 21.5254Z" fill="#8D99E4"/>
<path opacity="0.5" d="M25.5 5.66712V8.30873C25.0569 8.15211 24.5801 8.06689 24.0834 8.06689H7.08335C6.30095 8.06689 5.66669 7.43263 5.66669 6.65023V6.54958C5.66669 5.79447 6.22193 5.15427 6.96945 5.04748L22.266 2.86226C23.9729 2.61842 25.5 3.94289 25.5 5.66712Z" fill="#8D99E4"/>
</svg>
