<svg xmlns="http://www.w3.org/2000/svg" width="25" height="24" viewBox="0 0 25 24" fill="none">
  <path fill-rule="evenodd" clip-rule="evenodd" d="M5.57881 5.06891C9.37414 1.27893 15.5438 1.31923 19.3623 5.13778C23.1825 8.95797 23.2212 15.1313 19.4263 18.9262C15.6314 22.7211 9.45805 22.6824 5.63786 18.8622C3.37401 16.5984 2.43916 13.5099 2.84059 10.5812C2.89684 10.1708 3.27512 9.88377 3.68549 9.94002C4.09587 9.99627 4.38295 10.3745 4.3267 10.7849C3.98672 13.2652 4.77794 15.881 6.69852 17.8016C9.943 21.0461 15.1665 21.0646 18.3656 17.8655C21.5647 14.6664 21.5461 9.44292 18.3017 6.19844C15.0588 2.95561 9.83901 2.93539 6.63947 6.12957L7.38717 6.13333C7.80138 6.13541 8.13547 6.47288 8.13339 6.88709C8.13131 7.3013 7.79384 7.63539 7.37963 7.63331L4.83408 7.62052C4.42281 7.61845 4.08993 7.28556 4.08786 6.8743L4.07507 4.32874C4.07299 3.91454 4.40708 3.57707 4.82129 3.57498C5.2355 3.5729 5.57297 3.907 5.57505 4.32121L5.57881 5.06891Z" fill="#fff"/>
  <path opacity="0.5" d="M12.5 7.25C12.9142 7.25 13.25 7.58579 13.25 8V11.6893L15.5303 13.9697C15.8232 14.2626 15.8232 14.7374 15.5303 15.0303C15.2374 15.3232 14.7626 15.3232 14.4697 15.0303L12.0429 12.6036C11.8554 12.416 11.75 12.1617 11.75 11.8964V8C11.75 7.58579 12.0858 7.25 12.5 7.25Z" fill="#fff"/>
</svg>