<svg xmlns="http://www.w3.org/2000/svg" width="24" height="24" viewBox="0 0 24 24" fill="none">
  <path opacity="0.5" d="M10.1059 16.7733C9.83927 16.7733 9.58594 16.6667 9.39927 16.48L5.62594 12.7067C5.23927 12.32 5.23927 11.68 5.62594 11.2933C6.0126 10.9067 6.6526 10.9067 7.03927 11.2933L10.1059 14.36L16.9593 7.50667C17.3459 7.12001 17.9859 7.12001 18.3726 7.50667C18.7593 7.89334 18.7593 8.53334 18.3726 8.92001L10.8126 16.48C10.6259 16.6667 10.3726 16.7733 10.1059 16.7733Z" fill="#FFF"/>
  <path d="M9.40003 16.48C9.58669 16.6667 9.84003 16.7733 10.1067 16.7733C10.3734 16.7733 10.6267 16.6667 10.8134 16.48L18.3734 8.92001C18.76 8.53334 18.76 7.89334 18.3734 7.50667C17.9867 7.12001 17.3467 7.12001 16.96 7.50667L10.1067 14.36L8.69336 15.7733L9.40003 16.48Z" fill="#FFF"/>
</svg>