<svg xmlns="http://www.w3.org/2000/svg" width="28" height="28" viewBox="0 0 28 28" fill="none">
  <path opacity="0.5" d="M11.7916 19.5689C11.4805 19.5689 11.1849 19.4444 10.9671 19.2267L6.5649 14.8244C6.11378 14.3733 6.11378 13.6267 6.5649 13.1755C7.01601 12.7244 7.76267 12.7244 8.21378 13.1755L11.7916 16.7533L19.7871 8.75777C20.2382 8.30666 20.9849 8.30666 21.436 8.75777C21.8871 9.20888 21.8871 9.95554 21.436 10.4067L12.616 19.2267C12.3982 19.4444 12.1027 19.5689 11.7916 19.5689Z" fill="#1C274C"/>
  <path d="M10.967 19.2266C11.1848 19.4444 11.4804 19.5688 11.7915 19.5688C12.1026 19.5688 12.3981 19.4444 12.6159 19.2266L21.4359 10.4066C21.887 9.95548 21.887 9.20882 21.4359 8.75771C20.9848 8.30659 20.2381 8.30659 19.787 8.75771L11.7915 16.7533L10.1426 18.4022L10.967 19.2266Z" fill="#1C274C"/>
</svg>