<svg xmlns="http://www.w3.org/2000/svg" width="25" height="24" viewBox="0 0 25 24" fill="none">
  <path fill-rule="evenodd" clip-rule="evenodd" d="M5.57868 5.06891C9.37402 1.27893 15.5437 1.31923 19.3622 5.13778C23.1824 8.95797 23.2211 15.1313 19.4262 18.9262C15.6312 22.7211 9.45793 22.6824 5.63774 18.8622C3.37389 16.5984 2.43904 13.5099 2.84047 10.5812C2.89672 10.1708 3.275 9.88377 3.68537 9.94002C4.09575 9.99627 4.38282 10.3745 4.32658 10.7849C3.9866 13.2652 4.77782 15.881 6.6984 17.8016C9.94288 21.0461 15.1664 21.0646 18.3655 17.8655C21.5646 14.6664 21.546 9.44292 18.3015 6.19844C15.0587 2.95561 9.83889 2.93539 6.63935 6.12957L7.38705 6.13333C7.80126 6.13541 8.13535 6.47288 8.13327 6.88709C8.13119 7.3013 7.79372 7.63539 7.37951 7.63331L4.83396 7.62052C4.42269 7.61845 4.08981 7.28556 4.08774 6.8743L4.07495 4.32874C4.07286 3.91454 4.40696 3.57707 4.82117 3.57498C5.23538 3.5729 5.57285 3.907 5.57493 4.32121L5.57868 5.06891Z" fill="#1C274C"/>
  <path opacity="0.5" d="M12.5 7.25C12.9142 7.25 13.25 7.58579 13.25 8V11.6893L15.5303 13.9697C15.8232 14.2626 15.8232 14.7374 15.5303 15.0303C15.2374 15.3232 14.7626 15.3232 14.4697 15.0303L12.0429 12.6036C11.8554 12.416 11.75 12.1617 11.75 11.8964V8C11.75 7.58579 12.0858 7.25 12.5 7.25Z" fill="#1C274C"/>
</svg>