<svg xmlns="http://www.w3.org/2000/svg" width="61" height="20" viewBox="0 0 61 20" fill="none">
  <g clip-path="url(#clip0_9744_35128)">
    <path d="M16.479 11.646C16.479 12.1715 16.925 12.5361 17.562 12.5361C18.2734 12.5361 19.1229 12.1393 19.6007 11.764L19.7706 10.3806H18.6557C17.5514 10.3806 16.479 10.7238 16.479 11.646Z" fill="#00C0C9"/>
    <path d="M50.1804 7.27075C49.1823 7.27075 48.3647 7.93563 48.1311 9.07236H51.7093C51.72 8.96512 51.72 8.84716 51.72 8.75064C51.72 7.83912 51.1572 7.27075 50.1804 7.27075Z" fill="#00C0C9"/>
    <path d="M60.7559 8.9542L55.7123 0.707549C55.4257 0.246423 54.916 0.010498 54.3426 0.010498H3.85438C2.85629 0.010498 1.99624 0.771892 1.87944 1.77994L0.0106851 18.2303C-0.106112 19.2169 0.615907 19.9998 1.61399 19.9998H51.9642C52.5376 19.9998 53.0472 19.7317 53.4295 19.2813L60.5223 11.0239C61.0744 10.3805 61.1487 9.59763 60.7559 8.94347V8.9542ZM9.20581 14.3483C8.32452 14.3483 7.62374 14.0266 7.25211 13.7263L6.85925 16.9649H4.48083L5.85055 5.56546H8.15464L8.06969 6.19817C8.73862 5.65125 9.59867 5.34026 10.5437 5.34026C12.5505 5.34026 13.6123 6.93811 13.6123 9.21157C13.6123 11.8925 11.9346 14.3376 9.18458 14.3376L9.20581 14.3483ZM22.2659 9.50111L21.7031 14.1445H19.399L19.5052 13.2759C18.9955 13.8443 18.1143 14.359 16.9144 14.359C15.2049 14.359 14.0794 13.233 14.1007 11.8389C14.1219 9.49039 16.4791 8.6861 18.5496 8.6861H19.9724C20.0255 7.9676 19.5477 7.292 18.2098 7.292C17.0949 7.292 15.8739 7.71023 15.2368 8.05339L15.4704 6.13382C16.2561 5.61908 17.6895 5.35098 18.8787 5.35098C21.7987 5.35098 22.5419 7.21693 22.2659 9.51184V9.50111ZM23.8798 16.9756L25.2495 14.166L22.8923 5.57618H25.5468L26.8847 11.5065L29.4648 5.57618H32.045L26.4918 16.9756H23.8798ZM44.744 8.06412L44.0008 14.1445H41.6117L42.2913 8.57886C42.3975 7.72095 42.0683 7.22766 41.41 7.22766C40.9003 7.22766 40.2951 7.53865 39.7642 7.89254V8.06412L38.9997 14.1445H36.6107L37.2902 8.57886C37.3964 7.72095 37.0673 7.22766 36.4089 7.22766C35.8993 7.22766 35.3047 7.5172 34.7844 7.88181L33.9987 14.1553H31.6096L32.6821 5.58691H34.9224L34.8163 6.35902C35.5807 5.84428 36.6001 5.35098 37.5451 5.35098C38.5432 5.35098 39.2546 5.77994 39.5837 6.53061C40.3482 5.96224 41.4843 5.35098 42.5567 5.35098C44.0963 5.35098 44.967 6.38047 44.7653 8.07484L44.744 8.06412ZM53.9816 10.5306H48.1099C48.4178 11.7638 49.5009 12.3 50.7007 12.3C51.6138 12.3 52.6756 12.0105 53.3658 11.5815L53.1959 13.6084C52.3465 14.1445 51.4015 14.359 50.276 14.359C47.1224 14.359 45.5722 12.3751 45.6147 10.2303C45.6465 6.88449 47.802 5.3617 50.3503 5.3617C52.8986 5.3617 54.1303 7.00246 54.1303 9.27591C54.1303 9.79066 54.0666 10.3269 53.9816 10.5413V10.5306Z" fill="#00C0C9"/>
    <path d="M9.57732 7.27076C9.06766 7.26004 8.49429 7.4209 7.98463 7.83913L7.46436 12.0536C7.85722 12.3217 8.3775 12.4826 8.83407 12.4826C10.2887 12.4826 11.1594 11.0563 11.1594 9.39409C11.1594 8.10722 10.5966 7.28149 9.57732 7.27076Z" fill="#00C0C9"/>
  </g>
  <defs>
    <clipPath id="clip0_9744_35128">
      <rect width="61" height="20" fill="white"/>
    </clipPath>
  </defs>
</svg>