<svg xmlns="http://www.w3.org/2000/svg" width="32" height="32" viewBox="0 0 32 32" fill="none">
  <path opacity="0.5" d="M13.3346 26.6667H18.668C23.6963 26.6667 26.2104 26.6667 27.7725 25.1046C29.3346 23.5425 29.3346 21.0284 29.3346 16C29.3346 15.4108 29.3324 13.8561 29.3299 13.3334H2.66829C2.66578 13.8561 2.66797 15.4108 2.66797 16C2.66797 21.0284 2.66797 23.5425 4.23007 25.1046C5.79217 26.6667 8.30632 26.6667 13.3346 26.6667H13.3346Z" fill="#C9D1ED"/>
  <path d="M6.66699 17.8182C6.66699 17.2157 7.16445 16.7273 7.7781 16.7273H10.7411C11.3547 16.7273 11.8522 17.2157 11.8522 17.8182C11.8522 18.4207 11.3547 18.9091 10.7411 18.9091H7.7781C7.16445 18.9091 6.66699 18.4207 6.66699 17.8182Z" fill="#C9D1ED"/>
  <path d="M6.66699 22.1818C6.66699 21.5793 7.16445 21.0909 7.7781 21.0909H13.704C14.3177 21.0909 14.8151 21.5793 14.8151 22.1818C14.8151 22.7843 14.3177 23.2727 13.704 23.2727H7.7781C7.16445 23.2727 6.66699 22.7843 6.66699 22.1818Z" fill="#C9D1ED"/>
  <path fill-rule="evenodd" clip-rule="evenodd" d="M24.3665 16.063C23.8883 15.9999 23.3004 15.9999 22.6592 16H22.5266C21.8854 15.9999 21.2975 15.9999 20.8193 16.063C20.2926 16.1325 19.736 16.2961 19.2782 16.7456C18.8204 17.195 18.6538 17.7415 18.583 18.2586C18.5187 18.7282 18.5188 19.3054 18.5188 19.9349L18.5188 20L18.5188 20.0651C18.5188 20.6946 18.5187 21.2718 18.583 21.7414C18.6538 22.2585 18.8204 22.805 19.2782 23.2544C19.736 23.7039 20.2926 23.8675 20.8193 23.937C21.2975 24.0001 21.8854 24.0001 22.5266 24L22.5929 24L22.6592 24C23.3004 24.0001 23.8883 24.0001 24.3665 23.937C24.8932 23.8675 25.4498 23.7039 25.9076 23.2544C26.3654 22.805 26.532 22.2585 26.6028 21.7414C26.6671 21.2718 26.6671 20.6946 26.667 20.0651V19.9349C26.6671 19.3054 26.6671 18.7282 26.6028 18.2586C26.532 17.7415 26.3654 17.195 25.9076 16.7456C25.4498 16.2961 24.8932 16.1325 24.3665 16.063ZM20.8532 18.2863L20.8496 18.2883L20.8475 18.2919C20.846 18.2947 20.8436 18.2995 20.8406 18.3069C20.8273 18.3385 20.8046 18.4089 20.7854 18.5493C20.7434 18.8558 20.7411 19.2835 20.7411 20C20.7411 20.7165 20.7434 21.1442 20.7854 21.4507C20.8046 21.5911 20.8273 21.6615 20.8406 21.6931C20.8424 21.6976 20.844 21.7011 20.8453 21.7038C20.8462 21.7056 20.8469 21.707 20.8475 21.7081L20.8496 21.7117L20.8532 21.7137C20.856 21.7151 20.8609 21.7175 20.8684 21.7205C20.9007 21.7335 20.9723 21.7558 21.1154 21.7747C21.4276 21.8159 21.8631 21.8182 22.5929 21.8182C23.3227 21.8182 23.7583 21.8159 24.0704 21.7747C24.2135 21.7558 24.2851 21.7335 24.3174 21.7205C24.3249 21.7175 24.3298 21.7151 24.3327 21.7137L24.3363 21.7117L24.3383 21.7081C24.3398 21.7053 24.3422 21.7005 24.3453 21.6931C24.3585 21.6615 24.3812 21.5911 24.4004 21.4507C24.4424 21.1442 24.4448 20.7165 24.4448 20C24.4448 19.2835 24.4424 18.8558 24.4004 18.5493C24.3812 18.4089 24.3585 18.3385 24.3453 18.3069C24.3422 18.2995 24.3398 18.2947 24.3383 18.2919L24.3363 18.2883L24.3327 18.2863C24.3298 18.2849 24.3249 18.2825 24.3174 18.2795C24.2851 18.2665 24.2135 18.2442 24.0704 18.2253C23.7583 18.1841 23.3227 18.1818 22.5929 18.1818C21.8631 18.1818 21.4276 18.1841 21.1154 18.2253C20.9723 18.2442 20.9007 18.2665 20.8684 18.2795C20.8609 18.2825 20.856 18.2849 20.8532 18.2863Z" fill="#C9D1ED"/>
  <path d="M13.3268 5.33337H18.6739C23.7151 5.33337 26.2358 5.33337 27.8019 6.82109C28.9295 7.89225 29.2453 9.43347 29.3337 12V13.3334H2.66699V12C2.75539 9.43347 3.07112 7.89225 4.19874 6.82109C5.76486 5.33337 8.2855 5.33337 13.3268 5.33337Z" fill="#C9D1ED"/>
</svg>