<svg xmlns="http://www.w3.org/2000/svg" width="28" height="29" viewBox="0 0 28 29" fill="none">
  <path fill-rule="evenodd" clip-rule="evenodd" d="M12.4671 8.05928L11.7099 6.70252C10.678 4.85367 8.08524 4.63532 6.46013 6.26043C5.48362 7.23693 4.72379 8.43319 4.67366 9.7556C4.60869 11.4695 4.92768 14.1047 6.80853 16.9574L11.7998 11.9661C12.8761 10.8899 13.1504 9.28367 12.4671 8.05928ZM16.5336 16.6998L11.5423 21.6912C14.395 23.572 17.0302 23.8909 18.7441 23.826C20.0665 23.7759 21.2628 23.0161 22.2393 22.0396C23.8643 20.4144 23.6461 17.8216 21.7971 16.7898L20.4404 16.0326C19.216 15.3493 17.6098 15.6236 16.5336 16.6998Z" fill="#8D99E4"/>
  <path opacity="0.5" d="M12.8613 15.6381C10.4945 13.2713 11.7999 11.9658 11.7999 11.9658L6.80859 16.9571C7.37074 17.8097 8.07242 18.6817 8.94506 19.5544C9.81771 20.427 10.6897 21.1287 11.5423 21.6909L16.5337 16.6995C16.5337 16.6995 15.2282 18.0049 12.8613 15.6381Z" fill="#8D99E4"/>
</svg>