<svg xmlns="http://www.w3.org/2000/svg" width="32" height="32" viewBox="0 0 32 32" fill="none">
  <path fill-rule="evenodd" clip-rule="evenodd" d="M14.2495 8.63847L13.3841 7.0879C12.2049 4.97493 9.24167 4.72538 7.3844 6.58265C6.26839 7.69865 5.40001 9.06581 5.34272 10.5771C5.26847 12.5359 5.63303 15.5475 7.78257 18.8078L13.4869 13.1034C14.7169 11.8734 15.0304 10.0378 14.2495 8.63847ZM18.8969 18.5134L13.1926 24.2178C16.4528 26.3673 19.4645 26.7318 21.4232 26.6575C22.9345 26.6003 24.3017 25.7319 25.4177 24.6159C27.2749 22.7586 27.0255 19.7954 24.9124 18.6162L23.3619 17.7509C21.9625 16.9699 20.1269 17.2834 18.8969 18.5134Z" fill="#8D99E4"/>
  <path opacity="0.5" d="M14.6987 17.3014C11.9937 14.5965 13.4856 13.1045 13.4856 13.1045L7.78125 18.8089C8.4237 19.7833 9.22562 20.7798 10.2229 21.7771C11.2202 22.7745 12.2168 23.5763 13.1912 24.2189L18.8956 18.5145C18.8956 18.5145 17.4036 20.0063 14.6987 17.3014Z" fill="#8D99E4"/>
</svg>