<svg xmlns="http://www.w3.org/2000/svg" width="25" height="25" viewBox="0 0 25 25" fill="none">
  <path opacity="0.5" d="M12.5 2.125C8.08172 2.125 4.5 6.12758 4.5 10.625C4.5 15.0872 7.05332 19.9374 11.0371 21.7994C11.9657 22.2335 13.0343 22.2335 13.9629 21.7994C17.9467 19.9374 20.5 15.0872 20.5 10.625C20.5 6.12758 16.9183 2.125 12.5 2.125Z" fill="white"/>
  <path d="M12.5 12.625C13.8807 12.625 15 11.5057 15 10.125C15 8.74429 13.8807 7.625 12.5 7.625C11.1193 7.625 10 8.74429 10 10.125C10 11.5057 11.1193 12.625 12.5 12.625Z" fill="white"/>
</svg>