<svg xmlns="http://www.w3.org/2000/svg" width="18" height="18" viewBox="0 0 18 18" fill="none">
  <path d="M12.1221 5.12782C14.5407 6.77196 15.75 7.59403 15.75 9.00006C15.75 10.4061 14.5407 11.2282 12.1221 12.8723C11.4545 13.3262 10.7923 13.7535 10.1837 14.1096C9.6499 14.422 9.04531 14.7451 8.41935 15.0623C6.00644 16.2851 4.79999 16.8965 3.71793 16.2196C2.63588 15.5427 2.53754 14.1256 2.34086 11.2916C2.28524 10.4901 2.25 9.70442 2.25 9.00006C2.25 8.2957 2.28524 7.51 2.34086 6.70853C2.53754 3.87448 2.63588 2.45745 3.71793 1.78056C4.79999 1.10367 6.00644 1.71504 8.41935 2.93779C9.04531 3.255 9.6499 3.57814 10.1837 3.89053C10.7923 4.24662 11.4545 4.67394 12.1221 5.12782Z" fill="#9B98F1"/>
</svg>