<svg xmlns="http://www.w3.org/2000/svg" width="14" height="14" viewBox="0 0 14 14" fill="none">
  <path d="M10.7984 5.8783C10.7984 6.30919 10.434 6.65849 9.98446 6.65849C9.53492 6.65849 9.1705 6.30919 9.1705 5.8783C9.1705 5.44741 9.53492 5.0981 9.98446 5.0981C10.434 5.0981 10.7984 5.44741 10.7984 5.8783Z" fill="#1C274C"/>
  <path fill-rule="evenodd" clip-rule="evenodd" d="M10.5211 3.22726C9.90296 3.1476 9.11308 3.14761 8.11585 3.14761H5.88407C4.88684 3.14761 4.09696 3.1476 3.47878 3.22726C2.84259 3.30925 2.32765 3.48199 1.92156 3.87124C1.51548 4.26049 1.33526 4.75406 1.24972 5.36388C1.16661 5.95642 1.16662 6.71353 1.16663 7.66941V7.7281C1.16662 8.68397 1.16661 9.44109 1.24972 10.0336C1.33526 10.6434 1.51548 11.137 1.92156 11.5263C2.32765 11.9155 2.84259 12.0883 3.47878 12.1702C4.09696 12.2499 4.88684 12.2499 5.88408 12.2499H8.11584C9.11308 12.2499 9.90296 12.2499 10.5211 12.1702C11.1573 12.0883 11.6723 11.9155 12.0784 11.5263C12.4844 11.137 12.6647 10.6434 12.7502 10.0336C12.8333 9.44109 12.8333 8.68397 12.8333 7.72809V7.66941C12.8333 6.71354 12.8333 5.95642 12.7502 5.36388C12.6647 4.75406 12.4844 4.26049 12.0784 3.87124C11.6723 3.48199 11.1573 3.30925 10.5211 3.22726ZM3.58724 4.0005C3.0413 4.07086 2.72677 4.2028 2.49712 4.42292C2.26747 4.64305 2.12982 4.94454 2.05642 5.46783C1.99754 5.88757 1.98437 6.41218 1.98142 7.09837L2.25608 6.86802C2.91182 6.31805 3.9001 6.34959 4.51622 6.94015L6.84397 9.17137C7.07705 9.39478 7.44394 9.42524 7.71361 9.24357L7.87543 9.13457C8.65156 8.61174 9.70162 8.67231 10.4067 9.28059L11.8112 10.4922C11.8686 10.3382 11.912 10.1544 11.9435 9.92967C12.0185 9.39515 12.0193 8.69055 12.0193 7.69875C12.0193 6.70696 12.0185 6.00235 11.9435 5.46783C11.8701 4.94454 11.7325 4.64305 11.5028 4.42292C11.2732 4.2028 10.9586 4.07086 10.4127 4.0005C9.85503 3.92864 9.11994 3.92781 8.08523 3.92781H5.91469C4.87998 3.92781 4.14489 3.92864 3.58724 4.0005Z" fill="#1C274C"/>
  <g opacity="0.5">
    <path d="M9.96724 1.52272C9.46568 1.45831 8.82712 1.45832 8.03108 1.45833H6.22874C5.43271 1.45832 4.79413 1.45831 4.29258 1.52272C3.77319 1.58942 3.34016 1.73153 2.99669 2.0596C2.79861 2.2488 2.66521 2.46652 2.57434 2.71207C2.86846 2.57791 3.20099 2.49885 3.57433 2.45048C4.20688 2.36854 5.01513 2.36855 6.03556 2.36856H8.31923C9.33965 2.36855 10.1479 2.36854 10.7805 2.45048C11.1065 2.49272 11.4015 2.55838 11.6669 2.66372C11.5767 2.43785 11.4481 2.23629 11.2631 2.0596C10.9197 1.73153 10.4866 1.58942 9.96724 1.52272Z" fill="#1C274C"/>
  </g>
</svg>