<svg width="26" height="26" viewBox="0 0 26 26" fill="none" xmlns="http://www.w3.org/2000/svg">
<g opacity="0.5">
<path d="M11.4817 14.5201C11.0368 14.0752 10.4832 13.8938 9.87 13.8114C9.28906 13.7333 8.55726 13.7333 7.67967 13.7334H6.51951C5.90978 13.7334 5.40091 13.7333 4.98762 13.7727C4.55555 13.8137 4.15289 13.9029 3.78357 14.1292C3.42215 14.3507 3.11827 14.6546 2.8968 15.016C2.67047 15.3853 2.58133 15.7879 2.54025 16.22C2.50096 16.6333 2.50097 17.1422 2.50098 17.752V17.8237C2.50097 18.7517 2.50097 19.5 2.55824 20.1025C2.61732 20.7238 2.74243 21.2651 3.04073 21.7518C3.34274 22.2447 3.75711 22.659 4.24996 22.9611C4.73673 23.2593 5.27804 23.3845 5.89933 23.4436C6.50179 23.5008 7.25017 23.5008 8.17815 23.5008H8.2498C8.85954 23.5008 9.36848 23.5008 9.78178 23.4616C10.2138 23.4205 10.6165 23.3314 10.9858 23.105C11.3472 22.8835 11.6511 22.5797 11.8726 22.2182C12.0989 21.8489 12.1881 21.4463 12.2291 21.0142C12.2685 20.6009 12.2684 20.092 12.2684 19.4823V18.3221C12.2685 17.4445 12.2685 16.7128 12.1904 16.1318C12.108 15.5186 11.9266 14.965 11.4817 14.5201Z" fill="#101217"/>
<path d="M9.78178 2.54025C10.2138 2.58133 10.6165 2.67047 10.9858 2.8968C11.3472 3.11827 11.6511 3.42215 11.8726 3.78357C12.0989 4.15289 12.1881 4.55555 12.2291 4.98762C12.2685 5.4009 12.2684 5.90989 12.2684 6.5196V7.6797C12.2685 8.55727 12.2685 9.28906 12.1904 9.87C12.108 10.4832 11.9266 11.0368 11.4817 11.4817C11.0368 11.9266 10.4832 12.108 9.87 12.1904C9.28906 12.2685 8.55724 12.2685 7.67967 12.2684H6.51944C5.90973 12.2684 5.4009 12.2685 4.98762 12.2291C4.55555 12.1881 4.15289 12.0989 3.78357 11.8726C3.42215 11.6511 3.11827 11.3472 2.8968 10.9858C2.67047 10.6165 2.58133 10.2138 2.54025 9.78178C2.50096 9.36847 2.50097 8.85956 2.50098 8.24979V8.17811C2.50097 7.25015 2.50097 6.50178 2.55824 5.89933C2.61732 5.27804 2.74243 4.73673 3.04073 4.24996C3.34274 3.75711 3.75711 3.34274 4.24996 3.04073C4.73673 2.74243 5.27804 2.61732 5.89933 2.55824C6.50178 2.50097 7.2502 2.50097 8.17816 2.50098H8.24983C8.8596 2.50097 9.36847 2.50096 9.78178 2.54025Z" fill="#101217"/>
<path d="M17.8237 2.50098H17.752C17.1422 2.50097 16.6333 2.50096 16.22 2.54025C15.7879 2.58133 15.3853 2.67047 15.016 2.8968C14.6546 3.11827 14.3507 3.42215 14.1292 3.78357C13.9029 4.15289 13.8137 4.55555 13.7727 4.98762C13.7333 5.40092 13.7334 5.90984 13.7334 6.51959V7.67967C13.7333 8.55726 13.7333 9.28906 13.8114 9.87C13.8938 10.4832 14.0752 11.0368 14.5201 11.4817C14.965 11.9266 15.5186 12.108 16.1318 12.1904C16.7128 12.2685 17.4445 12.2685 18.3221 12.2684H19.4823C20.092 12.2684 20.6009 12.2685 21.0142 12.2291C21.4463 12.1881 21.8489 12.0989 22.2182 11.8726C22.5797 11.6511 22.8835 11.3472 23.105 10.9858C23.3314 10.6165 23.4205 10.2138 23.4616 9.78178C23.5008 9.36848 23.5008 8.85964 23.5008 8.24991V8.17815C23.5008 7.25017 23.5008 6.50179 23.4436 5.89933C23.3845 5.27804 23.2593 4.73673 22.9611 4.24996C22.659 3.75711 22.2447 3.34274 21.7518 3.04073C21.2651 2.74243 20.7238 2.61732 20.1025 2.55824C19.5 2.50097 18.7517 2.50097 17.8237 2.50098Z" fill="#101217"/>
</g>
<path opacity="0.4" d="M15.1975 22.7681C15.1975 23.1727 14.8696 23.5007 14.4649 23.5007C14.0603 23.5007 13.7324 23.1727 13.7324 22.7681V19.8379H15.1975V22.7681Z" fill="#101217"/>
<path opacity="0.5" d="M22.7677 13.7324C22.3632 13.7324 22.0352 14.0603 22.0352 14.4649V17.8835H23.5002V14.4649C23.5002 14.0603 23.1723 13.7324 22.7677 13.7324Z" fill="#101217"/>
<path d="M17.2801 17.8484C17.2002 18.0414 17.2002 18.286 17.2002 18.7752C17.2002 19.2644 17.2002 19.509 17.2801 19.702C17.3867 19.9593 17.5911 20.1637 17.8484 20.2703C18.0414 20.3502 18.286 20.3502 18.7752 20.3502C19.2644 20.3502 19.509 20.3502 19.702 20.2703C19.9593 20.1637 20.1637 19.9593 20.2703 19.702C20.3502 19.509 20.3502 19.2644 20.3502 18.7752C20.3502 18.286 20.3502 18.0414 20.2703 17.8484C20.1637 17.5911 19.9593 17.3867 19.702 17.2801C19.509 17.2002 19.2644 17.2002 18.7752 17.2002C18.286 17.2002 18.0414 17.2002 17.8484 17.2801C17.5911 17.3867 17.3867 17.5911 17.2801 17.8484Z" fill="#101217"/>
<path opacity="0.7" d="M23.5 19.8626V19.8379H22.035C22.035 20.303 22.0345 20.6152 22.0181 20.8569C22.002 21.092 21.9732 21.2066 21.942 21.2819C21.8181 21.581 21.5804 21.8187 21.2813 21.9426C21.2059 21.9739 21.0914 22.0027 20.8562 22.0187C20.6145 22.0352 20.3024 22.0355 19.8373 22.0355H17.8838V23.5007H19.862C20.2961 23.5007 20.6585 23.5007 20.956 23.4804C21.2657 23.4592 21.5583 23.4138 21.8419 23.2963C22.5001 23.0236 23.023 22.5007 23.2956 21.8426C23.4131 21.5589 23.4587 21.2664 23.4798 20.9567C23.5 20.6591 23.5 20.2967 23.5 19.8626Z" fill="#101217"/>
<path opacity="0.6" d="M13.7324 17.8461V17.8835H15.1975C15.1975 17.1824 15.1984 16.7117 15.2349 16.3528C15.2701 16.0062 15.3325 15.8461 15.4033 15.7401C15.4923 15.6068 15.6068 15.4923 15.7401 15.4033C15.8461 15.3325 16.0062 15.2702 16.3528 15.2349C16.7117 15.1983 17.1824 15.1975 17.8836 15.1975H19.837V13.7324H17.8461C17.1921 13.7323 16.6464 13.7323 16.2045 13.7773C15.7421 13.8243 15.3129 13.9266 14.9262 14.1851C14.6329 14.381 14.381 14.6328 14.1851 14.9262C13.9267 15.3129 13.8243 15.7421 13.7773 16.2046C13.7323 16.6464 13.7324 17.1921 13.7324 17.8461Z" fill="#101217"/>
<path d="M6.18411 20.0254C6.41337 20.1881 6.73809 20.1881 7.3875 20.1881C8.0369 20.1881 8.36162 20.1881 8.59088 20.0254C8.67179 19.968 8.74242 19.8973 8.79982 19.8165C8.9625 19.5872 8.9625 19.2625 8.9625 18.6131C8.9625 17.9637 8.9625 17.639 8.79982 17.4097C8.74242 17.3288 8.67179 17.2582 8.59088 17.2007C8.36162 17.0381 8.03688 17.0381 7.38748 17.0381C6.73808 17.0381 6.41337 17.0381 6.18411 17.2007C6.10321 17.2582 6.03257 17.3288 5.97518 17.4097C5.8125 17.639 5.8125 17.9637 5.8125 18.6131C5.8125 19.2625 5.8125 19.5872 5.97518 19.8165C6.03257 19.8973 6.10321 19.968 6.18411 20.0254Z" fill="#101217"/>
<path d="M7.3875 8.9625C6.73809 8.9625 6.41337 8.9625 6.18411 8.79982C6.10321 8.74242 6.03257 8.67179 5.97518 8.59088C5.8125 8.36162 5.8125 8.0369 5.8125 7.3875C5.8125 6.73809 5.8125 6.41337 5.97518 6.18411C6.03257 6.1032 6.10321 6.03257 6.18411 5.97517C6.41337 5.8125 6.73809 5.8125 7.3875 5.8125C8.0369 5.8125 8.36162 5.8125 8.59088 5.97517C8.67179 6.03257 8.74242 6.1032 8.79982 6.18411C8.9625 6.41337 8.9625 6.73809 8.9625 7.3875C8.9625 8.0369 8.9625 8.36162 8.79982 8.59088C8.74242 8.67179 8.67179 8.74242 8.59088 8.79982C8.36162 8.9625 8.0369 8.9625 7.3875 8.9625Z" fill="#101217"/>
<path d="M17.4107 8.8008C17.64 8.96348 17.9646 8.96348 18.6141 8.96348C19.2635 8.96348 19.5881 8.96348 19.8175 8.8008C19.8983 8.7434 19.969 8.67276 20.0264 8.59186C20.1891 8.36259 20.1891 8.03789 20.1891 7.38848C20.1891 6.73906 20.1891 6.41436 20.0264 6.18509C19.969 6.10419 19.8983 6.03356 19.8175 5.97615C19.5881 5.81348 19.2635 5.81348 18.6141 5.81348C17.9646 5.81348 17.64 5.81348 17.4107 5.97615C17.3298 6.03356 17.2591 6.10419 17.2017 6.18509C17.0391 6.41436 17.0391 6.73909 17.0391 7.38849C17.0391 8.03789 17.0391 8.36259 17.2017 8.59186C17.2591 8.67276 17.3298 8.7434 17.4107 8.8008Z" fill="#101217"/>
</svg>
