<svg width="26" height="26" viewBox="0 0 26 26" fill="none" xmlns="http://www.w3.org/2000/svg">
<g opacity="0.5">
<path d="M11.4812 14.5191C11.0364 14.0742 10.4827 13.8929 9.86951 13.8104C9.28857 13.7323 8.55677 13.7323 7.67918 13.7324H6.51902C5.90929 13.7324 5.40042 13.7323 4.98713 13.7717C4.55507 13.8128 4.1524 13.9019 3.78308 14.1282C3.42166 14.3497 3.11778 14.6536 2.89631 15.015C2.66998 15.3843 2.58085 15.787 2.53976 16.219C2.50047 16.6323 2.50048 17.1413 2.50049 17.751V17.8227C2.50048 18.7507 2.50048 19.499 2.55776 20.1015C2.61683 20.7228 2.74195 21.2641 3.04024 21.7509C3.34225 22.2437 3.75662 22.6581 4.24947 22.9601C4.73624 23.2583 5.27755 23.3835 5.89885 23.4426C6.5013 23.4998 7.24968 23.4998 8.17766 23.4998H8.24931C8.85905 23.4998 9.36799 23.4998 9.78129 23.4606C10.2134 23.4195 10.616 23.3304 10.9853 23.104C11.3467 22.8825 11.6506 22.5787 11.8722 22.2173C12.0984 21.8479 12.1876 21.4453 12.2286 21.0132C12.268 20.6 12.2679 20.091 12.2679 19.4813V18.3211C12.268 17.4435 12.268 16.7118 12.1899 16.1308C12.1075 15.5176 11.9261 14.964 11.4812 14.5191Z" fill="white"/>
<path d="M9.78129 2.53927C10.2134 2.58036 10.616 2.66949 10.9853 2.89582C11.3467 3.1173 11.6506 3.42118 11.8722 3.7826C12.0984 4.15191 12.1876 4.55458 12.2286 4.98664C12.268 5.39992 12.2679 5.90891 12.2679 6.51862V7.67873C12.268 8.5563 12.268 9.28808 12.1899 9.86903C12.1075 10.4822 11.9261 11.0359 11.4812 11.4808C11.0364 11.9256 10.4827 12.107 9.86951 12.1894C9.28857 12.2675 8.55675 12.2675 7.67918 12.2674H6.51895C5.90924 12.2674 5.40041 12.2675 4.98713 12.2281C4.55507 12.1871 4.1524 12.0979 3.78308 11.8717C3.42166 11.6501 3.11778 11.3463 2.89631 10.9848C2.66998 10.6155 2.58085 10.2129 2.53976 9.78081C2.50047 9.36749 2.50048 8.85858 2.50049 8.24881V8.17713C2.50048 7.24917 2.50048 6.5008 2.55776 5.89836C2.61683 5.27706 2.74195 4.73575 3.04024 4.24899C3.34225 3.75614 3.75662 3.34176 4.24947 3.03975C4.73624 2.74146 5.27755 2.61634 5.89885 2.55727C6.50129 2.49999 7.24971 2.49999 8.17767 2.5H8.24934C8.85911 2.49999 9.36798 2.49998 9.78129 2.53927Z" fill="white"/>
<path d="M17.8232 2.5H17.7515C17.1417 2.49999 16.6328 2.49998 16.2195 2.53927C15.7875 2.58036 15.3848 2.66949 15.0155 2.89582C14.6541 3.1173 14.3502 3.42118 14.1287 3.7826C13.9024 4.15191 13.8132 4.55458 13.7722 4.98664C13.7328 5.39994 13.7329 5.90887 13.7329 6.51861V7.6787C13.7328 8.55629 13.7328 9.28808 13.8109 9.86903C13.8934 10.4822 14.0747 11.0359 14.5196 11.4808C14.9645 11.9256 15.5181 12.107 16.1313 12.1894C16.7123 12.2675 17.444 12.2675 18.3216 12.2674H19.4818C20.0915 12.2674 20.6004 12.2675 21.0137 12.2281C21.4458 12.1871 21.8484 12.0979 22.2178 11.8717C22.5792 11.6501 22.883 11.3463 23.1045 10.9848C23.3309 10.6155 23.42 10.2129 23.4611 9.78081C23.5003 9.36751 23.5003 8.85866 23.5003 8.24893V8.17717C23.5003 7.24919 23.5003 6.50082 23.4431 5.89836C23.384 5.27706 23.2588 4.73575 22.9606 4.24899C22.6585 3.75614 22.2442 3.34176 21.7513 3.03975C21.2646 2.74146 20.7233 2.61634 20.102 2.55727C19.4995 2.49999 18.7512 2.49999 17.8232 2.5Z" fill="white"/>
</g>
<path opacity="0.4" d="M15.1975 22.7681C15.1975 23.1727 14.8696 23.5007 14.4649 23.5007C14.0603 23.5007 13.7324 23.1727 13.7324 22.7681V19.8379H15.1975V22.7681Z" fill="white"/>
<path opacity="0.5" d="M22.7677 13.7334C22.3632 13.7334 22.0352 14.0613 22.0352 14.4659V17.8845H23.5002V14.4659C23.5002 14.0613 23.1723 13.7334 22.7677 13.7334Z" fill="white"/>
<path d="M17.2796 17.8484C17.1997 18.0414 17.1997 18.286 17.1997 18.7752C17.1997 19.2644 17.1997 19.509 17.2796 19.702C17.3862 19.9593 17.5906 20.1637 17.8479 20.2703C18.0409 20.3502 18.2855 20.3502 18.7747 20.3502C19.2639 20.3502 19.5086 20.3502 19.7015 20.2703C19.9588 20.1637 20.1632 19.9593 20.2698 19.702C20.3497 19.509 20.3497 19.2644 20.3497 18.7752C20.3497 18.286 20.3497 18.0414 20.2698 17.8484C20.1632 17.5911 19.9588 17.3867 19.7015 17.2801C19.5086 17.2002 19.2639 17.2002 18.7747 17.2002C18.2855 17.2002 18.0409 17.2002 17.8479 17.2801C17.5906 17.3867 17.3862 17.5911 17.2796 17.8484Z" fill="white"/>
<path opacity="0.7" d="M23.4995 19.8626V19.8379H22.0345C22.0345 20.303 22.0341 20.6152 22.0176 20.8569C22.0015 21.092 21.9727 21.2066 21.9416 21.2819C21.8177 21.581 21.5799 21.8187 21.2808 21.9426C21.2054 21.9739 21.0909 22.0027 20.8557 22.0187C20.614 22.0352 20.3019 22.0355 19.8368 22.0355H17.8833V23.5007H19.8615C20.2956 23.5007 20.658 23.5007 20.9555 23.4804C21.2652 23.4592 21.5578 23.4138 21.8414 23.2963C22.4996 23.0236 23.0225 22.5007 23.2951 21.8426C23.4126 21.5589 23.4582 21.2664 23.4793 20.9567C23.4995 20.6591 23.4995 20.2967 23.4995 19.8626Z" fill="white"/>
<path opacity="0.6" d="M13.7324 17.8471V17.8845H15.1975C15.1975 17.1834 15.1984 16.7127 15.2349 16.3538C15.2701 16.0072 15.3325 15.8471 15.4033 15.7411C15.4923 15.6078 15.6068 15.4933 15.7401 15.4043C15.8461 15.3335 16.0062 15.2711 16.3528 15.2359C16.7117 15.1993 17.1824 15.1985 17.8836 15.1985H19.837V13.7334H17.8461C17.1921 13.7333 16.6464 13.7333 16.2045 13.7782C15.7421 13.8253 15.3129 13.9276 14.9262 14.1861C14.6329 14.382 14.381 14.6338 14.1851 14.9272C13.9267 15.3139 13.8243 15.7431 13.7773 16.2055C13.7323 16.6474 13.7324 17.1931 13.7324 17.8471Z" fill="white"/>
<path d="M6.18313 20.0254C6.4124 20.1881 6.73711 20.1881 7.38652 20.1881C8.03593 20.1881 8.36064 20.1881 8.58991 20.0254C8.67081 19.968 8.74144 19.8973 8.79885 19.8165C8.96152 19.5872 8.96152 19.2625 8.96152 18.6131C8.96152 17.9637 8.96152 17.639 8.79885 17.4097C8.74144 17.3288 8.67081 17.2582 8.58991 17.2007C8.36064 17.0381 8.03591 17.0381 7.3865 17.0381C6.7371 17.0381 6.4124 17.0381 6.18313 17.2007C6.10224 17.2582 6.03159 17.3288 5.9742 17.4097C5.81152 17.639 5.81152 17.9637 5.81152 18.6131C5.81152 19.2625 5.81152 19.5872 5.9742 19.8165C6.03159 19.8973 6.10224 19.968 6.18313 20.0254Z" fill="white"/>
<path d="M7.38652 8.9625C6.73711 8.9625 6.4124 8.9625 6.18313 8.79982C6.10224 8.74242 6.03159 8.67179 5.9742 8.59088C5.81152 8.36162 5.81152 8.0369 5.81152 7.3875C5.81152 6.73809 5.81152 6.41337 5.9742 6.18411C6.03159 6.1032 6.10224 6.03257 6.18313 5.97517C6.4124 5.8125 6.73711 5.8125 7.38652 5.8125C8.03593 5.8125 8.36064 5.8125 8.58991 5.97517C8.67081 6.03257 8.74144 6.1032 8.79885 6.18411C8.96152 6.41337 8.96152 6.73809 8.96152 7.3875C8.96152 8.0369 8.96152 8.36162 8.79885 8.59088C8.74144 8.67179 8.67081 8.74242 8.58991 8.79982C8.36064 8.9625 8.03593 8.9625 7.38652 8.9625Z" fill="white"/>
<path d="M17.4097 8.79982C17.639 8.9625 17.9637 8.9625 18.6131 8.9625C19.2625 8.9625 19.5872 8.9625 19.8165 8.79982C19.8973 8.74242 19.968 8.67179 20.0254 8.59088C20.1881 8.36162 20.1881 8.03691 20.1881 7.3875C20.1881 6.73809 20.1881 6.41338 20.0254 6.18412C19.968 6.10321 19.8973 6.03258 19.8165 5.97518C19.5872 5.8125 19.2625 5.8125 18.6131 5.8125C17.9637 5.8125 17.639 5.8125 17.4097 5.97518C17.3288 6.03258 17.2582 6.10321 17.2007 6.18412C17.0381 6.41338 17.0381 6.73812 17.0381 7.38751C17.0381 8.03691 17.0381 8.36162 17.2007 8.59088C17.2582 8.67179 17.3288 8.74242 17.4097 8.79982Z" fill="white"/>
</svg>
