<svg xmlns="http://www.w3.org/2000/svg" width="20" height="20" viewBox="0 0 20 20" fill="none">
  <path opacity="0.5" fill-rule="evenodd" clip-rule="evenodd" d="M11.899 1.79386C11.5904 1.66699 11.1991 1.66699 10.4167 1.66699C9.63418 1.66699 9.24294 1.66699 8.93433 1.79386C8.52284 1.96302 8.19591 2.28747 8.02546 2.69585C7.94766 2.88228 7.91721 3.09908 7.90529 3.41532C7.88778 3.88006 7.64763 4.31024 7.2418 4.54277C6.83598 4.7753 6.34053 4.76661 5.92624 4.54929C5.64432 4.40141 5.43991 4.31918 5.23832 4.29284C4.79674 4.23514 4.35015 4.3539 3.9968 4.62299C3.73178 4.82481 3.53616 5.16107 3.14492 5.8336C2.75368 6.50613 2.55806 6.84239 2.51446 7.17108C2.45632 7.60933 2.57598 8.05254 2.84712 8.40323C2.97088 8.56329 3.14481 8.69785 3.41475 8.86618C3.8116 9.11365 4.06693 9.53521 4.06691 10.0003C4.06688 10.4654 3.81155 10.8869 3.41475 11.1344C3.14476 11.3027 2.97081 11.4373 2.84704 11.5974C2.5759 11.9481 2.45624 12.3913 2.51437 12.8295C2.55798 13.1582 2.7536 13.4945 3.14484 14.167C3.53608 14.8395 3.7317 15.1758 3.99671 15.3776C4.35007 15.6467 4.79666 15.7655 5.23824 15.7078C5.43981 15.6814 5.64421 15.5992 5.92611 15.4513C6.34043 15.234 6.83592 15.2253 7.24177 15.4579C7.64762 15.6904 7.88778 16.1206 7.90529 16.5854C7.91721 16.9016 7.94766 17.1184 8.02546 17.3048C8.19591 17.7132 8.52284 18.0376 8.93433 18.2068C9.24294 18.3337 9.63418 18.3337 10.4167 18.3337C11.1991 18.3337 11.5904 18.3337 11.899 18.2068C12.3105 18.0376 12.6374 17.7132 12.8079 17.3048C12.8857 17.1184 12.9161 16.9016 12.928 16.5853C12.9456 16.1206 13.1857 15.6904 13.5915 15.4579C13.9973 15.2253 14.4928 15.234 14.9072 15.4513C15.1891 15.5991 15.3934 15.6814 15.595 15.7077C16.0366 15.7654 16.4832 15.6466 16.8365 15.3775C17.1016 15.1757 17.2972 14.8395 17.6884 14.1669C18.0797 13.4944 18.2753 13.1581 18.3189 12.8295C18.377 12.3912 18.2573 11.948 17.9862 11.5973C17.8624 11.4372 17.6885 11.3027 17.4185 11.1343C17.0217 10.8869 16.7664 10.4654 16.7664 10.0003C16.7664 9.5352 17.0218 9.11373 17.4185 8.86632C17.6885 8.69795 17.8625 8.56337 17.9863 8.40328C18.2574 8.0526 18.3771 7.60938 18.319 7.17114C18.2754 6.84245 18.0797 6.50619 17.6885 5.83366C17.2973 5.16113 17.1016 4.82487 16.8366 4.62305C16.4833 4.35396 16.0367 4.2352 15.5951 4.2929C15.3935 4.31923 15.1891 4.40146 14.9072 4.54932C14.4929 4.76665 13.9974 4.77534 13.5916 4.54279C13.1857 4.31025 12.9456 3.88004 12.928 3.41527C12.9161 3.09906 12.8857 2.88227 12.8079 2.69585C12.6374 2.28747 12.3105 1.96302 11.899 1.79386Z" fill="#8D99E4"/>
  <path d="M12.9355 10C12.9355 11.3807 11.8077 12.5 10.4165 12.5C9.02527 12.5 7.89746 11.3807 7.89746 10C7.89746 8.61929 9.02527 7.5 10.4165 7.5C11.8077 7.5 12.9355 8.61929 12.9355 10Z" fill="#8D99E4"/>
</svg>