<svg xmlns="http://www.w3.org/2000/svg" width="14" height="14" viewBox="0 0 14 14" fill="none">
  <path fill-rule="evenodd" clip-rule="evenodd" d="M2.33337 5.25C2.575 5.25 2.77087 5.44588 2.77087 5.6875V6.27083C2.77087 8.60654 4.66434 10.5 7.00004 10.5C9.33575 10.5 11.2292 8.60654 11.2292 6.27083V5.6875C11.2292 5.44588 11.4251 5.25 11.6667 5.25C11.9083 5.25 12.1042 5.44588 12.1042 5.6875V6.27083C12.1042 8.94241 10.0517 11.1346 7.43754 11.3565V12.6875C7.43754 12.9291 7.24167 13.125 7.00004 13.125C6.75842 13.125 6.56254 12.9291 6.56254 12.6875V11.3565C3.94839 11.1346 1.89587 8.94241 1.89587 6.27083V5.6875C1.89587 5.44588 2.09175 5.25 2.33337 5.25Z" fill="#1C274C"/>
  <path opacity="0.5" d="M7.00004 1.16667C5.14759 1.16667 3.64587 2.66838 3.64587 4.52084V6.27084C3.64587 8.12329 5.14759 9.62501 7.00004 9.62501C8.70422 9.62501 10.1116 8.35408 10.3259 6.70834L7.58337 6.70834C7.34175 6.70834 7.14587 6.51246 7.14587 6.27084C7.14587 6.02921 7.34175 5.83334 7.58337 5.83334L10.3542 5.83334V4.95834H7.58337C7.34175 4.95834 7.14587 4.76246 7.14587 4.52084C7.14587 4.27921 7.34175 4.08334 7.58337 4.08334H10.3259C10.1116 2.4376 8.70422 1.16667 7.00004 1.16667Z" fill="#1C274C"/>
  <path d="M7.14587 6.27083C7.14587 6.51245 7.34175 6.70833 7.58337 6.70833L10.3259 6.70833L10.3542 5.83333L7.58337 5.83333C7.34175 5.83333 7.14587 6.0292 7.14587 6.27083Z" fill="#1C274C"/>
  <path d="M7.14587 4.52083C7.14587 4.76245 7.34175 4.95833 7.58337 4.95833H10.3542L10.3259 4.08333H7.58337C7.34175 4.08333 7.14587 4.2792 7.14587 4.52083Z" fill="#1C274C"/>
</svg>