<svg xmlns="http://www.w3.org/2000/svg" width="28" height="28" viewBox="0 0 28 28" fill="none">
  <path opacity="0.5" d="M25.6673 13.9997C25.6673 20.443 20.444 25.6663 14.0007 25.6663C7.55733 25.6663 2.33398 20.443 2.33398 13.9997C2.33398 7.55635 7.55733 2.33301 14.0007 2.33301C20.444 2.33301 25.6673 7.55635 25.6673 13.9997Z" fill="#32D47E"/>
  <path d="M18.7014 10.4643C19.0431 10.806 19.0431 11.36 18.7014 11.7017L12.8681 17.5351C12.5264 17.8768 11.9723 17.8768 11.6306 17.5351L9.2973 15.2017C8.95559 14.86 8.95559 14.306 9.2973 13.9643C9.63901 13.6226 10.193 13.6226 10.5347 13.9643L12.2493 15.6789L14.8567 13.0716L17.464 10.4643C17.8057 10.1226 18.3597 10.1226 18.7014 10.4643Z" fill="#32D47E"/>
</svg>