<svg width="296" height="122" viewBox="0 0 296 122" fill="none" xmlns="http://www.w3.org/2000/svg">
<g clip-path="url(#clip0_9682_17208)">
<path d="M0.375 11.625L6.625 113.125L179.625 102.625L173.625 1.125L0.375 11.625Z" fill="#DCFF00"/>
<path d="M295.62 22.3655C295.555 28.8755 295.175 35.6705 295.11 42.2205C294.94 59.0055 295.05 75.8005 294.87 92.5805L281.38 92.3155L272.12 53.5955V92.3255H261.62L261.12 19.1105H272.495L283.995 70.5855L283.62 19.6055L295.62 19.1055C295.61 20.1855 295.63 21.2755 295.62 22.3555V22.3655Z" fill="black"/>
<path d="M221.12 121.065C218.69 120.775 216.38 119.235 216.37 116.57L219.22 116.3C219.56 120.145 226.805 120.165 225.565 115.995C224.93 113.865 218.585 115.57 217.02 112.045C214.065 105.395 228.04 103.84 228.375 110.695C228.4 111.22 228.375 111.02 228.005 111.07C227.67 111.12 225.795 111.125 225.655 111.035C225.62 108.245 221.05 107.2 219.82 109.395C217.745 113.105 224.48 112.58 226.375 113.44C228.27 114.3 228.605 115.83 228.375 117.695C228.145 119.56 225.57 120.835 223.87 121.06C223.23 121.145 221.77 121.135 221.12 121.06V121.065Z" fill="black"/>
<path d="M80.75 93.08L80.985 20.6L90.84 19.65L99.87 45.85L106.155 20.4L116.62 18.865L116.375 92.83L104.875 93.08L106.87 49.85L99.5 64.835L92.375 48.35V93.08H80.75Z" fill="black"/>
<path d="M45.875 20.24L75.875 18.615C75.825 22.735 75.94 26.87 75.89 30.995C75.715 45.04 75.27 59.16 75.12 73.2C75.05 79.765 75.38 86.41 74.91 92.93L45.88 94.2V20.24H45.875ZM65.625 28.36L55.625 27.61V84.205L65.625 86.58V28.36Z" fill="black"/>
<path d="M40.875 17.615L41.09 44.57L30.625 47.35L30.375 30.61L22.905 32.145L22.625 83.33L29.84 82.3L30.74 62.085L41.005 58.855L40.09 91.67L11.875 93.58L12.41 19.9L40.875 17.615Z" fill="black"/>
<path d="M167.625 17.615L167.84 44.57L157.375 47.35L157.12 30.61L149.655 32.145L149.375 83.33L156.59 82.3L157.485 62.085L167.75 58.855L166.84 91.67L138.62 93.58L139.16 19.9L167.625 17.615Z" fill="black"/>
<path d="M226.87 20.24L256.62 18.865C256.565 21.655 256.685 24.455 256.63 27.25C256.365 41.295 256.045 55.415 255.86 69.455C255.755 77.245 256.075 85.05 255.595 92.8L226.875 94.325V20.24H226.87ZM246.62 28.36L236.37 27.61V84.58L246.62 86.58V28.36Z" fill="black"/>
<path d="M221.85 44.5796L211.375 47.3496L211.125 30.6096L203.735 32.0946C203.2 49.1296 203.41 66.2496 203.38 83.3346L210.63 82.5846L211.415 62.1296L221.88 59.0996L220.595 92.0446L192.63 93.5796L193.135 19.8696L221.4 17.7246L221.86 44.5796H221.85Z" fill="black"/>
<path d="M134.125 19.115L132.875 92.33L121.49 93.015L123.16 20.275L123.745 19.865L134.125 19.115Z" fill="black"/>
<path d="M270.12 106.57L273.765 106.8L280 117.81C280.795 118.51 280.12 117.27 280.12 117.19V106.57H282.62V120.815H278.87L272.375 109.32L272.625 120.815H270.125V106.57H270.12Z" fill="black"/>
<path d="M211.35 106.595L215.625 120.81L212.86 120.7L211.85 117.335L206.095 117.46L205.1 120.785L202.125 120.81L206.495 106.815L211.35 106.595ZM206.625 115.565H211.125L209 108.315L206.63 115.565H206.625Z" fill="black"/>
<path d="M233.37 106.57V112.315H239.495C240.525 111.61 239.415 106.775 239.62 106.57H242.62V120.815H239.62L239.87 114.315H233.37V120.81H230.62V106.565H233.37V106.57Z" fill="black"/>
<path d="M267.87 106.57V108.57H260.12V112.82C260.305 112.885 260.42 112.57 260.495 112.57H267.37V114.57H260.12V118.82H267.87V120.82H257.37V106.575H267.87V106.57Z" fill="black"/>
<path d="M247.62 106.57V114.565L252.975 106.8L255.865 106.57C256.225 106.835 251.22 113.145 250.85 113.92C250.705 114.225 250.53 114.425 250.615 114.81H254.365L255.865 120.805L253.39 120.78L252.24 117.055H247.615V120.805H245.115V106.56H247.615L247.62 106.57Z" fill="black"/>
<path d="M203.375 106.57V108.57H199.125V120.815H196.375V108.57H192.125V106.57H203.375Z" fill="black"/>
<path d="M295.37 106.57V108.57H291.12V120.815H288.37V108.57H284.12V106.57H295.37Z" fill="black"/>
</g>
<defs>
<clipPath id="clip0_9682_17208">
<rect width="295.25" height="120.25" fill="white" transform="translate(0.375 0.875)"/>
</clipPath>
</defs>
</svg>
