<svg xmlns="http://www.w3.org/2000/svg" width="100" height="38" viewBox="0 0 100 38" fill="none">
  <path d="M50.6448 16.2893C49.5592 15.3605 48.3265 14.9442 46.9203 14.9442H46.8957C44.1336 14.9442 42.5056 16.9982 42.5056 19.5655V19.5899C42.5549 22.2061 44.1582 24.2356 46.8957 24.2356H46.9203C48.5484 24.2356 49.6578 23.7223 50.6448 22.8905L53.0864 26.1918C51.5816 27.5859 49.5099 28.3436 46.9203 28.3436H46.8957C41.346 28.3436 38.0662 24.6756 38.0662 19.5891V19.5646C38.0662 14.5026 41.3468 10.8354 46.8957 10.8354H46.9203C49.2633 10.8354 51.483 11.4953 53.0864 12.9871L50.6448 16.2885V16.2893Z" fill="white"/>
  <path d="M71.3627 28.0511H66.6767L65.5418 24.8719H58.8827L57.7477 28.0511H53.0618L59.8195 11.1295H64.6041L71.3618 28.0511H71.3627ZM62.2126 15.653L60.2888 21.0084H64.1365L62.2126 15.653Z" fill="white"/>
  <path d="M84.5347 11.1295V15.3597H79.7008V28.0503H75.2614V15.3597H70.4275V11.1295H84.5355H84.5347Z" fill="white"/>
  <path d="M97.2118 15.996C95.9043 15.0183 94.7702 14.7487 93.2408 14.7487H93.2162C91.6375 14.7487 90.602 15.1397 90.602 15.9227C90.602 16.4604 90.9225 16.7538 92.6244 17.0968L95.6339 17.7078C99.0872 18.4167 100.024 20.8137 99.9994 23.1854C99.9994 26.5112 97.0146 28.3452 93.0929 28.3452H93.0682C89.4177 28.3452 86.7789 27.1956 85.3235 24.8239L88.974 22.1833C90.1829 24.0173 91.5635 24.4572 93.1668 24.4572H93.1915C94.6962 24.4572 95.5098 23.9439 95.5098 23.0632C95.5098 22.1824 94.8442 21.8403 93.7339 21.5714L90.1081 20.7159C87.2473 20.0315 86.1124 18.2464 86.1124 16.0946C86.1124 12.5488 89.1465 10.837 93.3887 10.837H93.4134C95.9536 10.837 98.124 11.4237 99.7767 12.7199L97.2118 15.9969V15.996Z" fill="white"/>
  <path d="M37.9429 13.3994C38.4055 13.2063 38.7014 12.7411 38.7014 12.2441V1.1708C38.7014 0.5247 38.1721 0 37.5196 0H33.9505C33.298 0 32.7696 0.5247 32.7696 1.1708V4.62616C32.777 4.68074 32.7811 4.73696 32.7811 4.79399V12.0428C32.7811 12.6898 32.2518 13.2136 31.6001 13.2136H25.1999C24.5473 13.2136 24.0181 13.7383 24.0181 14.3853V32.841C24.0181 33.4879 23.4897 34.0126 22.8372 34.0126H16.0671C15.7186 34.0126 15.3817 33.9108 15.0776 33.7429C15.053 33.7291 15.03 33.7177 15.007 33.7079C14.8755 33.65 14.7275 33.7405 14.7275 33.8831L14.73 36.8284C14.73 37.4753 15.2584 38 15.9109 38H37.5196C38.1721 38 38.7014 37.4753 38.7014 36.8284V27.4384C38.7014 26.9349 38.4055 26.4721 37.9429 26.279C35.4076 25.2214 33.6275 22.7365 33.6275 19.8384C33.6275 16.9403 35.4076 14.4553 37.9429 13.3994ZM29.7946 34.0354C29.7946 34.1438 29.7067 34.231 29.5974 34.231H26.3989C26.2896 34.231 26.2017 34.1438 26.2017 34.0354V33.2394C26.2017 33.1319 26.2896 33.0439 26.3989 33.0439H29.5974C29.7067 33.0439 29.7946 33.1319 29.7946 33.2394V34.0354ZM35.1865 33.0439C35.2958 33.0439 35.3837 33.1319 35.3837 33.2394V34.0354C35.3837 34.1438 35.2958 34.231 35.1865 34.231H31.988C31.8787 34.231 31.7908 34.1438 31.7908 34.0354V33.2394C31.7908 33.1319 31.8787 33.0439 31.988 33.0439H35.1865Z" fill="#BA8AFF"/>
  <path d="M31.0702 0H1.18176C0.529246 0 0 0.5247 0 1.1708V12.2441C0 12.7411 0.295852 13.2063 0.757709 13.3994C3.29382 14.4553 5.07386 16.9419 5.07386 19.8384C5.07386 22.7348 3.29382 25.2214 0.757709 26.279C0.295852 26.4721 0 26.9349 0 27.4384V36.8284C0 37.4753 0.529246 38 1.18176 38H12.9583C13.6108 38 14.1392 37.4753 14.1392 36.8284V14.3722C14.1392 13.9217 13.8869 13.4939 13.4703 13.3163C13.3158 13.2503 13.1457 13.2136 12.9657 13.2136H6.66652C6.01401 13.2136 5.48476 12.6898 5.48476 12.0428V4.6946C5.48476 4.04768 6.01401 3.52298 6.66652 3.52298H31.0077C31.2255 3.52298 31.4392 3.58083 31.6282 3.68675C31.7597 3.76008 31.8945 3.94992 31.9766 3.98332C32.1081 4.03546 32.2519 3.94584 32.2519 3.80489V1.1708C32.2519 0.5247 31.7227 0 31.0702 0ZM8.23536 33.2394C8.23536 33.1319 8.32329 33.0439 8.43177 33.0439H11.6311C11.7404 33.0439 11.8283 33.1319 11.8283 33.2394V34.0354C11.8283 34.1438 11.7404 34.231 11.6311 34.231H8.43177C8.32329 34.231 8.23536 34.1438 8.23536 34.0354V33.2394ZM6.04195 33.0439C6.15125 33.0439 6.23918 33.1319 6.23918 33.2394V34.0354C6.23918 34.1438 6.15125 34.231 6.04195 34.231H2.84264C2.73416 34.231 2.64623 34.1438 2.64623 34.0354V33.2394C2.64623 33.1319 2.73416 33.0439 2.84264 33.0439H6.04195Z" fill="#C0F800"/>
</svg>