<svg xmlns="http://www.w3.org/2000/svg" width="100" height="38" viewBox="0 0 100 38" fill="none">
  <path d="M50.6447 16.2893C49.5591 15.3605 48.3263 14.9442 46.9202 14.9442H46.8956C44.1335 14.9442 42.5055 16.9982 42.5055 19.5654V19.5899C42.5548 22.206 44.1581 24.2356 46.8956 24.2356H46.9202C48.5482 24.2356 49.6577 23.7223 50.6447 22.8904L53.0863 26.1918C51.5815 27.5858 49.5097 28.3436 46.9202 28.3436H46.8956C41.3459 28.3436 38.066 24.6756 38.066 19.5891V19.5646C38.066 14.5026 41.3467 10.8354 46.8956 10.8354H46.9202C49.2632 10.8354 51.4829 11.4953 53.0863 12.9871L50.6447 16.2885V16.2893Z" fill="#272427"/>
  <path d="M71.3625 28.0511H66.6765L65.5416 24.8719H58.8825L57.7476 28.0511H53.0616L59.8193 11.1295H64.6039L71.3617 28.0511H71.3625ZM62.2124 15.653L60.2886 21.0084H64.1363L62.2124 15.653Z" fill="#272427"/>
  <path d="M84.5345 11.1295V15.3597H79.7006V28.0503H75.2612V15.3597H70.4273V11.1295H84.5353H84.5345Z" fill="#272427"/>
  <path d="M97.2117 15.996C95.9042 15.0183 94.7701 14.7486 93.2407 14.7486H93.2161C91.6374 14.7486 90.6019 15.1397 90.6019 15.9227C90.6019 16.4604 90.9224 16.7537 92.6244 17.0967L95.6339 17.7078C99.0871 18.4166 100.024 20.8136 99.9993 23.1854C99.9993 26.5112 97.0145 28.3452 93.0928 28.3452H93.0682C89.4177 28.3452 86.7789 27.1956 85.3234 24.8238L88.9739 22.1832C90.1828 24.0172 91.5634 24.4572 93.1668 24.4572H93.1914C94.6962 24.4572 95.5098 23.9439 95.5098 23.0632C95.5098 22.1824 94.8441 21.8402 93.7338 21.5714L90.108 20.7159C87.2473 20.0315 86.1124 18.2464 86.1124 16.0946C86.1124 12.5488 89.1465 10.837 93.3887 10.837H93.4133C95.9535 10.837 98.1239 11.4236 99.7766 12.7199L97.2117 15.9968V15.996Z" fill="#272427"/>
  <path d="M37.9429 13.3994C38.4056 13.2063 38.7015 12.7411 38.7015 12.2441V1.1708C38.7015 0.5247 38.1722 0 37.5197 0H33.9506C33.2981 0 32.7696 0.5247 32.7696 1.1708V4.62616C32.777 4.68074 32.7811 4.73696 32.7811 4.79399V12.0428C32.7811 12.6898 32.2519 13.2136 31.6002 13.2136H25.2C24.5474 13.2136 24.0182 13.7383 24.0182 14.3853V32.841C24.0182 33.4879 23.4898 34.0126 22.8372 34.0126H16.0672C15.7187 34.0126 15.3818 33.9108 15.0777 33.7429C15.0531 33.7291 15.03 33.7177 15.007 33.7079C14.8755 33.65 14.7276 33.7405 14.7276 33.8831L14.7301 36.8284C14.7301 37.4753 15.2585 38 15.911 38H37.5197C38.1722 38 38.7015 37.4753 38.7015 36.8284V27.4384C38.7015 26.9349 38.4056 26.4721 37.9429 26.279C35.4077 25.2214 33.6276 22.7365 33.6276 19.8384C33.6276 16.9403 35.4077 14.4553 37.9429 13.3994ZM29.7947 34.0354C29.7947 34.1438 29.7068 34.231 29.5975 34.231H26.399C26.2897 34.231 26.2017 34.1438 26.2017 34.0354V33.2394C26.2017 33.1319 26.2897 33.0439 26.399 33.0439H29.5975C29.7068 33.0439 29.7947 33.1319 29.7947 33.2394V34.0354ZM35.1866 33.0439C35.2959 33.0439 35.3838 33.1319 35.3838 33.2394V34.0354C35.3838 34.1438 35.2959 34.231 35.1866 34.231H31.9881C31.8788 34.231 31.7909 34.1438 31.7909 34.0354V33.2394C31.7909 33.1319 31.8788 33.0439 31.9881 33.0439H35.1866Z" fill="#BA8AFF"/>
  <path d="M31.0702 0H1.18176C0.529246 0 0 0.5247 0 1.1708V12.2441C0 12.7411 0.295852 13.2063 0.757709 13.3994C3.29382 14.4553 5.07386 16.9419 5.07386 19.8384C5.07386 22.7348 3.29382 25.2214 0.757709 26.279C0.295852 26.4721 0 26.9349 0 27.4384V36.8284C0 37.4753 0.529246 38 1.18176 38H12.9583C13.6108 38 14.1392 37.4753 14.1392 36.8284V14.3722C14.1392 13.9217 13.8869 13.4939 13.4703 13.3163C13.3158 13.2503 13.1457 13.2136 12.9657 13.2136H6.66652C6.01401 13.2136 5.48476 12.6898 5.48476 12.0428V4.6946C5.48476 4.04768 6.01401 3.52298 6.66652 3.52298H31.0077C31.2255 3.52298 31.4392 3.58083 31.6282 3.68675C31.7597 3.76008 31.8945 3.94992 31.9766 3.98332C32.1081 4.03546 32.2519 3.94584 32.2519 3.80489V1.1708C32.2519 0.5247 31.7227 0 31.0702 0ZM8.23536 33.2394C8.23536 33.1319 8.32329 33.0439 8.43177 33.0439H11.6311C11.7404 33.0439 11.8283 33.1319 11.8283 33.2394V34.0354C11.8283 34.1438 11.7404 34.231 11.6311 34.231H8.43177C8.32329 34.231 8.23536 34.1438 8.23536 34.0354V33.2394ZM6.04195 33.0439C6.15125 33.0439 6.23918 33.1319 6.23918 33.2394V34.0354C6.23918 34.1438 6.15125 34.231 6.04195 34.231H2.84264C2.73416 34.231 2.64623 34.1438 2.64623 34.0354V33.2394C2.64623 33.1319 2.73416 33.0439 2.84264 33.0439H6.04195Z" fill="#D2F902"/>
</svg>