<svg xmlns="http://www.w3.org/2000/svg" width="100" height="37" viewBox="0 0 100 37" fill="none">
  <path d="M50.645 16.2889C49.5594 15.3601 48.3267 14.9438 46.9206 14.9438H46.8959C44.1338 14.9438 42.5058 16.9977 42.5058 19.565V19.5895C42.5551 22.2056 44.1585 24.2352 46.8959 24.2352H46.9206C48.5486 24.2352 49.658 23.7219 50.645 22.89L53.0866 26.1914C51.5819 27.5854 49.5101 28.3432 46.9206 28.3432H46.8959C41.3463 28.3432 38.0664 24.6751 38.0664 19.5886V19.5642C38.0664 14.5022 41.3471 10.835 46.8959 10.835H46.9206C49.2636 10.835 51.4833 11.4949 53.0866 12.9867L50.645 16.2881V16.2889Z" fill="#272427"/>
  <path d="M71.3634 28.0505H66.6774L65.5425 24.8713H58.8834L57.7485 28.0505H53.0625L59.8202 11.1289H64.6048L71.3626 28.0505H71.3634ZM62.2134 15.6524L60.2895 21.0078H64.1372L62.2134 15.6524Z" fill="#272427"/>
  <path d="M84.5349 11.1289V15.3591H79.701V28.0497H75.2616V15.3591H70.4277V11.1289H84.5358H84.5349Z" fill="#272427"/>
  <path d="M97.2125 15.9959C95.905 15.0182 94.7709 14.7485 93.2415 14.7485H93.2169C91.6382 14.7485 90.6027 15.1396 90.6027 15.9226C90.6027 16.4603 90.9232 16.7536 92.6252 17.0966L95.6346 17.7077C99.0879 18.4165 100.025 20.8135 100 23.1853C100 26.5111 97.0153 28.3451 93.0936 28.3451H93.069C89.4185 28.3451 86.7796 27.1955 85.3242 24.8237L88.9747 22.1831C90.1836 24.0171 91.5642 24.4571 93.1676 24.4571H93.1922C94.697 24.4571 95.5106 23.9438 95.5106 23.0631C95.5106 22.1823 94.8449 21.8401 93.7346 21.5713L90.1088 20.7158C87.2481 20.0314 86.1132 18.2463 86.1132 16.0945C86.1132 12.5487 89.1473 10.8369 93.3895 10.8369H93.4141C95.9543 10.8369 98.1247 11.4235 99.7774 12.7198L97.2125 15.9967V15.9959Z" fill="#272427"/>
  <path d="M37.9438 13.3994C38.4065 13.2063 38.7024 12.7411 38.7024 12.2441V1.1708C38.7024 0.5247 38.1731 0 37.5206 0H33.9515C33.299 0 32.7705 0.5247 32.7705 1.1708V4.62616C32.7779 4.68074 32.782 4.73696 32.782 4.79399V12.0428C32.782 12.6898 32.2528 13.2136 31.6011 13.2136H25.2008C24.5483 13.2136 24.0191 13.7383 24.0191 14.3853V32.841C24.0191 33.4879 23.4907 34.0126 22.8381 34.0126H16.0681C15.7196 34.0126 15.3827 33.9108 15.0786 33.7429C15.054 33.7291 15.0309 33.7177 15.0079 33.7079C14.8764 33.65 14.7285 33.7405 14.7285 33.8831L14.731 36.8284C14.731 37.4753 15.2594 38 15.9119 38H37.5206C38.1731 38 38.7024 37.4753 38.7024 36.8284V27.4384C38.7024 26.9349 38.4065 26.4721 37.9438 26.279C35.4086 25.2214 33.6285 22.7365 33.6285 19.8384C33.6285 16.9403 35.4086 14.4553 37.9438 13.3994ZM29.7956 34.0354C29.7956 34.1438 29.7077 34.231 29.5983 34.231H26.3999C26.2906 34.231 26.2026 34.1438 26.2026 34.0354V33.2394C26.2026 33.1319 26.2906 33.0439 26.3999 33.0439H29.5983C29.7077 33.0439 29.7956 33.1319 29.7956 33.2394V34.0354ZM35.1875 33.0439C35.2968 33.0439 35.3847 33.1319 35.3847 33.2394V34.0354C35.3847 34.1438 35.2968 34.231 35.1875 34.231H31.989C31.8797 34.231 31.7918 34.1438 31.7918 34.0354V33.2394C31.7918 33.1319 31.8797 33.0439 31.989 33.0439H35.1875Z" fill="#BA8AFF"/>
  <path d="M31.0702 0H1.18176C0.529246 0 0 0.5247 0 1.1708V12.2441C0 12.7411 0.295852 13.2063 0.757709 13.3994C3.29382 14.4553 5.07386 16.9419 5.07386 19.8384C5.07386 22.7348 3.29382 25.2214 0.757709 26.279C0.295852 26.4721 0 26.9349 0 27.4384V36.8284C0 37.4753 0.529246 38 1.18176 38H12.9583C13.6108 38 14.1392 37.4753 14.1392 36.8284V14.3722C14.1392 13.9217 13.8869 13.4939 13.4703 13.3163C13.3158 13.2503 13.1457 13.2136 12.9657 13.2136H6.66652C6.01401 13.2136 5.48476 12.6898 5.48476 12.0428V4.6946C5.48476 4.04768 6.01401 3.52298 6.66652 3.52298H31.0077C31.2255 3.52298 31.4392 3.58083 31.6282 3.68675C31.7597 3.76008 31.8945 3.94992 31.9766 3.98332C32.1081 4.03546 32.2519 3.94584 32.2519 3.80489V1.1708C32.2519 0.5247 31.7227 0 31.0702 0ZM8.23536 33.2394C8.23536 33.1319 8.32329 33.0439 8.43177 33.0439H11.6311C11.7404 33.0439 11.8283 33.1319 11.8283 33.2394V34.0354C11.8283 34.1438 11.7404 34.231 11.6311 34.231H8.43177C8.32329 34.231 8.23536 34.1438 8.23536 34.0354V33.2394ZM6.04195 33.0439C6.15125 33.0439 6.23918 33.1319 6.23918 33.2394V34.0354C6.23918 34.1438 6.15125 34.231 6.04195 34.231H2.84264C2.73416 34.231 2.64623 34.1438 2.64623 34.0354V33.2394C2.64623 33.1319 2.73416 33.0439 2.84264 33.0439H6.04195Z" fill="#C0F800"/>
</svg>