<svg xmlns="http://www.w3.org/2000/svg" width="14" height="14" viewBox="0 0 14 14" fill="none">
  <path opacity="0.5" fill-rule="evenodd" clip-rule="evenodd" d="M1.16663 7.00001C1.16663 10.2217 3.7783 12.8333 6.99996 12.8333H12.3958C12.6374 12.8333 12.8333 12.6375 12.8333 12.3958C12.8333 12.1542 12.6374 11.9583 12.3958 11.9583H10.0744C11.7306 10.9292 12.8333 9.09339 12.8333 7.00001C12.8333 3.77834 10.2216 1.16667 6.99996 1.16667C3.7783 1.16667 1.16663 3.77834 1.16663 7.00001Z" fill="#1C274C"/>
  <path d="M9.625 6.125C10.1082 6.125 10.5 6.51675 10.5 7C10.5 7.48325 10.1082 7.875 9.625 7.875C9.14175 7.875 8.75 7.48325 8.75 7C8.75 6.51675 9.14175 6.125 9.625 6.125Z" fill="#1C274C"/>
  <path d="M5.25 7C5.25 6.51675 4.85825 6.125 4.375 6.125C3.89175 6.125 3.5 6.51675 3.5 7C3.5 7.48325 3.89175 7.875 4.375 7.875C4.85825 7.875 5.25 7.48325 5.25 7Z" fill="#1C274C"/>
  <path d="M7.875 4.375C7.875 4.85825 7.48325 5.25 7 5.25C6.51675 5.25 6.125 4.85825 6.125 4.375C6.125 3.89175 6.51675 3.5 7 3.5C7.48325 3.5 7.875 3.89175 7.875 4.375Z" fill="#1C274C"/>
  <path d="M7.875 9.625C7.875 10.1082 7.48325 10.5 7 10.5C6.51675 10.5 6.125 10.1082 6.125 9.625C6.125 9.14175 6.51675 8.75 7 8.75C7.48325 8.75 7.875 9.14175 7.875 9.625Z" fill="#1C274C"/>
</svg>