<svg width="30" height="26" viewBox="0 0 30 26" fill="none" xmlns="http://www.w3.org/2000/svg">
<path fill-rule="evenodd" clip-rule="evenodd" d="M26.2534 1.10227C27.79 0.458536 29.4374 1.75133 29.166 3.38809L25.9613 22.7206C25.6523 24.5846 23.5946 25.6542 21.8758 24.7253C20.4375 23.948 18.3035 22.7517 16.3803 21.5014C15.42 20.877 12.4794 18.875 12.8409 17.4498C13.1499 16.2313 18.0934 11.6529 20.9183 8.9301C22.0279 7.86056 21.5225 7.24269 20.212 8.22745C16.9611 10.6703 11.7418 14.3844 10.0159 15.4297C8.49307 16.3519 7.69797 16.5093 6.74957 16.3519C5.01772 16.0648 3.41208 15.6201 2.1012 15.0795C0.32946 14.3487 0.415761 11.9262 2.1 11.2208L26.2534 1.10227Z" fill="#8D99E4"/>
</svg>
