<svg xmlns="http://www.w3.org/2000/svg" width="20" height="21" viewBox="0 0 20 21" fill="none">
  <g clip-path="url(#clip0_9245_28620)">
    <path d="M10 20.5C15.5228 20.5 20 16.0228 20 10.5C20 4.97715 15.5228 0.5 10 0.5C4.47715 0.5 0 4.97715 0 10.5C0 16.0228 4.47715 20.5 10 20.5Z" fill="url(#paint0_linear_9245_28620)"/>
    <path fill-rule="evenodd" clip-rule="evenodd" d="M4.52587 10.394C7.44107 9.12386 9.38499 8.28653 10.3576 7.88197C13.1347 6.72688 13.7118 6.52623 14.0879 6.5196C14.1707 6.51814 14.3556 6.53865 14.4754 6.63587C14.5766 6.71796 14.6044 6.82885 14.6177 6.90668C14.6311 6.98451 14.6477 7.16181 14.6345 7.30034C14.484 8.88158 13.8328 12.7188 13.5015 14.4898C13.3613 15.2392 13.0853 15.4905 12.8181 15.5151C12.2374 15.5685 11.7964 15.1313 11.234 14.7626C10.3538 14.1856 9.85662 13.8265 9.0023 13.2635C8.01499 12.6129 8.65502 12.2553 9.21769 11.6709C9.36494 11.518 11.9236 9.19066 11.9731 8.97954C11.9793 8.95313 11.9851 8.85471 11.9266 8.80274C11.8681 8.75077 11.7818 8.76854 11.7195 8.78267C11.6313 8.80271 10.2253 9.73203 7.50149 11.5706C7.10239 11.8447 6.74091 11.9782 6.41703 11.9712C6.05998 11.9635 5.37315 11.7693 4.86257 11.6034C4.23632 11.3998 3.73859 11.2922 3.78193 10.9465C3.8045 10.7664 4.05248 10.5822 4.52587 10.394Z" fill="white"/>
  </g>
  <defs>
    <linearGradient id="paint0_linear_9245_28620" x1="10" y1="0.5" x2="10" y2="20.3517" gradientUnits="userSpaceOnUse">
      <stop stop-color="#2AABEE"/>
      <stop offset="1" stop-color="#229ED9"/>
    </linearGradient>
    <clipPath id="clip0_9245_28620">
      <rect width="20" height="20" fill="white" transform="translate(0 0.5)"/>
    </clipPath>
  </defs>
</svg>