<svg xmlns="http://www.w3.org/2000/svg" width="28" height="28" viewBox="0 0 28 28" fill="none">
  <g clip-path="url(#clip0_9245_27954)">
    <path d="M14 28C21.732 28 28 21.732 28 14C28 6.26801 21.732 0 14 0C6.26801 0 0 6.26801 0 14C0 21.732 6.26801 28 14 28Z" fill="url(#paint0_linear_9245_27954)"/>
    <path fill-rule="evenodd" clip-rule="evenodd" d="M6.33816 13.8519C10.4194 12.0738 13.1409 10.9015 14.5027 10.3352C18.3906 8.71802 19.1985 8.43711 19.725 8.42783C19.8409 8.42579 20.0998 8.4545 20.2676 8.5906C20.4092 8.70553 20.4482 8.86078 20.4668 8.96974C20.4854 9.0787 20.5087 9.32692 20.4902 9.52087C20.2795 11.7346 19.3679 17.1067 18.9041 19.5861C18.7078 20.6353 18.3214 20.987 17.9473 21.0215C17.1343 21.0963 16.5169 20.4842 15.7295 19.968C14.4973 19.1603 13.8012 18.6575 12.6052 17.8693C11.2229 16.9584 12.119 16.4578 12.9067 15.6396C13.1129 15.4255 16.695 12.1673 16.7643 11.8717C16.773 11.8348 16.781 11.697 16.6992 11.6242C16.6173 11.5515 16.4965 11.5763 16.4093 11.5961C16.2857 11.6242 14.3173 12.9252 10.504 15.4993C9.94531 15.883 9.43922 16.0699 8.98579 16.0601C8.48592 16.0493 7.52437 15.7775 6.80955 15.5451C5.9328 15.2601 5.23597 15.1094 5.29665 14.6254C5.32826 14.3733 5.67543 14.1155 6.33816 13.8519Z" fill="white"/>
  </g>
  <defs>
    <linearGradient id="paint0_linear_9245_27954" x1="14" y1="0" x2="14" y2="27.7923" gradientUnits="userSpaceOnUse">
      <stop stop-color="#2AABEE"/>
      <stop offset="1" stop-color="#229ED9"/>
    </linearGradient>
    <clipPath id="clip0_9245_27954">
      <rect width="28" height="28" fill="white"/>
    </clipPath>
  </defs>
</svg>