<svg xmlns="http://www.w3.org/2000/svg" width="30" height="26" viewBox="0 0 30 26" fill="none">
  <path fill-rule="evenodd" clip-rule="evenodd" d="M26.2534 1.10251C27.79 0.45878 29.4374 1.75157 29.166 3.38833L25.9613 22.7209C25.6523 24.5849 23.5946 25.6545 21.8758 24.7255C20.4375 23.9483 18.3035 22.7519 16.3803 21.5016C15.42 20.8772 12.4794 18.8752 12.8409 17.4501C13.1499 16.2315 18.0934 11.6531 20.9183 8.93035C22.0279 7.8608 21.5225 7.24293 20.212 8.22769C16.9611 10.6706 11.7418 14.3847 10.0159 15.4299C8.49307 16.3521 7.69797 16.5095 6.74957 16.3521C5.01772 16.065 3.41208 15.6204 2.1012 15.0797C0.32946 14.349 0.415761 11.9265 2.1 11.221L26.2534 1.10251Z" fill="white"/>
</svg>