<svg width="16" height="16" viewBox="0 0 16 16" fill="none" xmlns="http://www.w3.org/2000/svg">
<path fill-rule="evenodd" clip-rule="evenodd" d="M9.34246 11.3333L9.33858 12.6686C9.33767 12.982 9.33721 13.1387 9.2394 13.236C9.14158 13.3333 8.98447 13.3333 8.67025 13.3333H6.66334C4.14292 13.3333 2.88271 13.3333 2.09971 12.5522C1.5606 12.0145 1.39268 11.251 1.34038 10.007C1.33001 9.76027 1.32482 9.63691 1.37089 9.55461C1.41696 9.47231 1.60088 9.3696 1.96872 9.16419C2.37723 8.93606 2.65337 8.50018 2.65337 7.99996C2.65337 7.49974 2.37723 7.06386 1.96872 6.83573C1.60088 6.63032 1.41696 6.52761 1.37089 6.44531C1.32482 6.36301 1.33001 6.23965 1.34038 5.99294C1.39268 4.74889 1.5606 3.98545 2.09971 3.44767C2.88271 2.66663 4.14292 2.66663 6.66334 2.66663H9.00345C9.18763 2.66663 9.33708 2.81528 9.33761 2.99899L9.34246 4.66663C9.34246 5.03482 9.64168 5.33329 10.0108 5.33329L10.0108 6.66663C9.64168 6.66663 9.34246 6.9651 9.34246 7.33329V8.66663C9.34246 9.03482 9.64168 9.33329 10.0108 9.33329V10.6666C9.64168 10.6666 9.34246 10.9651 9.34246 11.3333Z" fill="#9B98F1"/>
<path opacity="0.5" d="M10.0111 10.6666C10.3802 10.6666 10.6794 10.9651 10.6794 11.3333V12.6509C10.6794 12.9719 10.6794 13.1325 10.7823 13.2309C10.8853 13.3293 11.0428 13.3226 11.3577 13.3093C12.5997 13.2567 13.3627 13.0887 13.9006 12.5522C14.4397 12.0144 14.6076 11.251 14.6599 10.0069C14.6703 9.76023 14.6754 9.63687 14.6294 9.55457C14.5833 9.47227 14.3994 9.36957 14.0316 9.16415C13.623 8.93602 13.3469 8.50014 13.3469 7.99992C13.3469 7.49971 13.623 7.06383 14.0316 6.83569C14.3994 6.63028 14.5833 6.52757 14.6294 6.44527C14.6754 6.36297 14.6703 6.23961 14.6599 5.9929C14.6076 4.74885 14.4397 3.98541 13.9006 3.44764C13.3154 2.86395 12.4638 2.71646 11.0188 2.67919C10.8324 2.67438 10.6794 2.82471 10.6794 3.01071V4.66659C10.6794 5.03478 10.3802 5.33325 10.0111 5.33325L10.0111 6.66659C10.3802 6.66659 10.6794 6.96507 10.6794 7.33325V8.66659C10.6794 9.03478 10.3802 9.33325 10.0111 9.33325V10.6666Z" fill="#9B98F1"/>
</svg>
