<svg xmlns="http://www.w3.org/2000/svg" width="24" height="25" viewBox="0 0 24 25" fill="none">
  <path opacity="0.5" d="M9.59236 3.32531C9.34886 3.53282 9.2271 3.63658 9.09706 3.72374C8.79896 3.92354 8.46417 4.06221 8.1121 4.13172C7.95851 4.16205 7.79903 4.17477 7.48008 4.20022L7.48007 4.20023C6.67869 4.26418 6.278 4.29615 5.94371 4.41423C5.17051 4.68733 4.56233 5.29551 4.28923 6.06871C4.17115 6.403 4.13918 6.80369 4.07523 7.60507L4.07522 7.60508C4.04977 7.92403 4.03705 8.08351 4.00672 8.2371C3.93721 8.58917 3.79854 8.92396 3.59874 9.22206C3.51158 9.3521 3.40781 9.47387 3.20028 9.71739L3.20027 9.7174C2.67883 10.3293 2.4181 10.6352 2.26522 10.9551C1.91159 11.695 1.91159 12.555 2.26522 13.2949C2.41811 13.6148 2.67883 13.9207 3.20027 14.5326L3.20031 14.5326C3.4078 14.7761 3.51159 14.8979 3.59874 15.0279C3.79854 15.326 3.93721 15.6608 4.00672 16.0129C4.03705 16.1665 4.04977 16.326 4.07522 16.6449L4.07523 16.6449C4.13918 17.4463 4.17115 17.847 4.28923 18.1813C4.56233 18.9545 5.17051 19.5627 5.94371 19.8358C6.27799 19.9538 6.67867 19.9858 7.48 20.0498L7.48008 20.0498C7.79903 20.0752 7.95851 20.088 8.1121 20.1183C8.46417 20.1878 8.79896 20.3265 9.09706 20.5263C9.22711 20.6134 9.34887 20.7172 9.5924 20.9247C10.2043 21.4462 10.5102 21.7069 10.8301 21.8598C11.57 22.2134 12.43 22.2134 13.1699 21.8598C13.4898 21.7069 13.7957 21.4462 14.4076 20.9247C14.6511 20.7172 14.7729 20.6134 14.9029 20.5263C15.201 20.3265 15.5358 20.1878 15.8879 20.1183C16.0415 20.088 16.201 20.0752 16.5199 20.0498L16.52 20.0498C17.3213 19.9858 17.722 19.9538 18.0563 19.8358C18.8295 19.5627 19.4377 18.9545 19.7108 18.1813C19.8288 17.847 19.8608 17.4463 19.9248 16.645L19.9248 16.6449C19.9502 16.326 19.963 16.1665 19.9933 16.0129C20.0628 15.6608 20.2015 15.326 20.4013 15.0279C20.4884 14.8979 20.5922 14.7761 20.7997 14.5326C21.3212 13.9207 21.5819 13.6148 21.7348 13.2949C22.0884 12.555 22.0884 11.695 21.7348 10.9551C21.5819 10.6352 21.3212 10.3293 20.7997 9.7174C20.5922 9.47387 20.4884 9.35211 20.4013 9.22206C20.2015 8.92396 20.0628 8.58917 19.9933 8.2371C19.963 8.08351 19.9502 7.92403 19.9248 7.60508L19.9248 7.605C19.8608 6.80367 19.8288 6.40299 19.7108 6.06871C19.4377 5.29551 18.8295 4.68733 18.0563 4.41423C17.722 4.29615 17.3213 4.26418 16.5199 4.20023L16.5199 4.20022C16.201 4.17477 16.0415 4.16205 15.8879 4.13172C15.5358 4.06221 15.201 3.92354 14.9029 3.72374C14.7729 3.63658 14.6511 3.53281 14.4076 3.32527C13.7957 2.80383 13.4898 2.54311 13.1699 2.39022C12.43 2.03659 11.57 2.03659 10.8301 2.39022C10.5102 2.5431 10.2043 2.80383 9.5924 3.32527L9.59236 3.32531Z" fill="#FF3347"/>
  <path d="M15.8309 8.29501C16.1487 8.61285 16.1487 9.12815 15.8309 9.44599L9.32001 15.9569C9.00218 16.2747 8.48687 16.2747 8.16904 15.9569C7.85121 15.639 7.85121 15.1237 8.16904 14.8059L14.6799 8.29501C14.9978 7.97718 15.5131 7.97718 15.8309 8.29501Z" fill="#FF3347"/>
  <path d="M15.798 14.8388C15.798 15.4381 15.3121 15.924 14.7128 15.924C14.1135 15.924 13.6277 15.4381 13.6277 14.8388C13.6277 14.2395 14.1135 13.7537 14.7128 13.7537C15.3121 13.7537 15.798 14.2395 15.798 14.8388Z" fill="#FF3347"/>
  <path d="M9.2871 10.4982C9.88641 10.4982 10.3722 10.0124 10.3722 9.41307C10.3722 8.81376 9.88641 8.32793 9.2871 8.32793C8.68779 8.32793 8.20195 8.81376 8.20195 9.41307C8.20195 10.0124 8.68779 10.4982 9.2871 10.4982Z" fill="#FF3347"/>
</svg>