<svg xmlns="http://www.w3.org/2000/svg" width="24" height="24" viewBox="0 0 24 24" fill="none">
  <path opacity="0.5" d="M10.0007 20H14.0007C17.772 20 19.6576 20 20.8292 18.8284C22.0007 17.6569 22.0007 15.7712 22.0007 12C22.0007 11.5581 21.9991 10.392 21.9972 10H2.00098C1.99909 10.392 2.00074 11.5581 2.00074 12C2.00074 15.7712 2.00074 17.6569 3.17231 18.8284C4.34388 20 6.2295 20 10.0007 20Z" fill="#8D99E4"/>
  <path d="M5 13.3636C5 12.9118 5.3731 12.5455 5.83333 12.5455H8.05555C8.51579 12.5455 8.88889 12.9118 8.88889 13.3636C8.88889 13.8155 8.51579 14.1818 8.05555 14.1818H5.83333C5.3731 14.1818 5 13.8155 5 13.3636Z" fill="#8D99E4"/>
  <path d="M5 16.6364C5 16.1845 5.3731 15.8182 5.83333 15.8182H10.2778C10.738 15.8182 11.1111 16.1845 11.1111 16.6364C11.1111 17.0882 10.738 17.4545 10.2778 17.4545H5.83333C5.3731 17.4545 5 17.0882 5 16.6364Z" fill="#8D99E4"/>
  <path fill-rule="evenodd" clip-rule="evenodd" d="M18.2747 12.0472C17.916 11.9999 17.4751 11.9999 16.9942 12H16.8947C16.4138 11.9999 15.9729 11.9999 15.6142 12.0472C15.2192 12.0994 14.8018 12.2221 14.4584 12.5592C14.115 12.8963 13.9901 13.3062 13.937 13.694C13.8888 14.0461 13.8888 14.479 13.8889 14.9512L13.8889 15L13.8889 15.0488C13.8888 15.521 13.8888 15.9539 13.937 16.306C13.9901 16.6938 14.115 17.1037 14.4584 17.4408C14.8018 17.7779 15.2192 17.9006 15.6142 17.9528C15.9729 18.0001 16.4138 18.0001 16.8947 18L16.9444 18L16.9942 18C17.4751 18.0001 17.916 18.0001 18.2747 17.9528C18.6696 17.9006 19.0871 17.7779 19.4305 17.4408C19.7738 17.1037 19.8988 16.6938 19.9519 16.306C20.0001 15.9539 20.0001 15.521 20 15.0488V14.9512C20.0001 14.479 20.0001 14.0461 19.9519 13.694C19.8988 13.3062 19.7738 12.8963 19.4305 12.5592C19.0871 12.2221 18.6696 12.0994 18.2747 12.0472ZM15.6396 13.7148L15.637 13.7162L15.6354 13.7189C15.6343 13.721 15.6325 13.7246 15.6302 13.7301C15.6202 13.7539 15.6032 13.8067 15.5888 13.912C15.5573 14.1419 15.5555 14.4626 15.5555 15C15.5555 15.5374 15.5573 15.8581 15.5888 16.088C15.6032 16.1933 15.6202 16.2461 15.6302 16.2699C15.6316 16.2732 15.6328 16.2758 15.6338 16.2779C15.6344 16.2792 15.635 16.2802 15.6354 16.2811L15.6369 16.2837L15.6396 16.2852C15.6418 16.2863 15.6455 16.2881 15.6511 16.2904C15.6753 16.3001 15.729 16.3168 15.8363 16.331C16.0704 16.3619 16.3971 16.3636 16.9444 16.3636C17.4918 16.3636 17.8185 16.3619 18.0526 16.331C18.1599 16.3168 18.2136 16.3001 18.2378 16.2904C18.2434 16.2881 18.2471 16.2863 18.2492 16.2852L18.2519 16.2837L18.2535 16.2811C18.2546 16.279 18.2564 16.2754 18.2587 16.2699C18.2687 16.2461 18.2857 16.1933 18.3001 16.088C18.3316 15.8581 18.3333 15.5374 18.3333 15C18.3333 14.4626 18.3316 14.1419 18.3001 13.912C18.2857 13.8067 18.2687 13.7539 18.2587 13.7301C18.2564 13.7246 18.2546 13.721 18.2535 13.7189L18.2519 13.7163L18.2492 13.7148C18.2471 13.7137 18.2434 13.7119 18.2378 13.7096C18.2136 13.6999 18.1599 13.6832 18.0526 13.669C17.8185 13.6381 17.4918 13.6364 16.9444 13.6364C16.3971 13.6364 16.0704 13.6381 15.8363 13.669C15.729 13.6832 15.6753 13.6999 15.6511 13.7096C15.6455 13.7119 15.6418 13.7137 15.6396 13.7148Z" fill="#8D99E4"/>
  <path d="M9.99484 4H14.0052C17.7861 4 19.6766 4 20.8512 5.11578C21.6969 5.91916 21.9337 7.07507 22 9V10H2V9C2.0663 7.07507 2.3031 5.91916 3.14881 5.11578C4.3234 4 6.21388 4 9.99484 4Z" fill="#8D99E4"/>
</svg>