<svg xmlns="http://www.w3.org/2000/svg" width="42" height="42" viewBox="0 0 42 42" fill="none">
  <g opacity="0.5">
    <path d="M11.375 31.5L11.375 31.3434C11.3748 29.8286 11.3747 28.4396 11.5266 27.3098C11.6938 26.0656 12.0874 24.7506 13.169 23.669C14.2506 22.5874 15.5656 22.1938 16.8098 22.0266C17.9396 21.8747 19.3285 21.8748 20.8434 21.875H21.1566C22.6715 21.8748 24.0604 21.8747 25.1903 22.0266C26.4344 22.1938 27.7495 22.5874 28.8311 23.669C29.9126 24.7506 30.3062 26.0656 30.4735 27.3098C30.6231 28.423 30.6252 29.7876 30.625 31.2764C35.1271 30.3136 38.5 26.3549 38.5 21.6176C38.5 17.292 35.6877 13.6154 31.7714 12.2762C31.215 7.33899 26.9778 3.5 21.8333 3.5C16.3105 3.5 11.8333 7.92448 11.8333 13.3824C11.8333 14.5895 12.0524 15.7461 12.4533 16.8155C11.9831 16.7243 11.4972 16.6765 11 16.6765C6.85786 16.6765 3.5 19.9948 3.5 24.0882C3.5 28.1816 6.85786 31.5 11 31.5L11.375 31.5Z" fill="white"/>
  </g>
  <path fill-rule="evenodd" clip-rule="evenodd" d="M21 24.5C17.7002 24.5 16.0503 24.5 15.0251 25.5251C14 26.5503 14 28.2002 14 31.5C14 34.7998 14 36.4497 15.0251 37.4749C16.0503 38.5 17.7002 38.5 21 38.5C24.2998 38.5 25.9497 38.5 26.9749 37.4749C28 36.4497 28 34.7998 28 31.5C28 28.2002 28 26.5503 26.9749 25.5251C25.9497 24.5 24.2998 24.5 21 24.5ZM24.1583 29.8973L21.825 27.5639C21.3693 27.1083 20.6307 27.1083 20.175 27.5639L17.8417 29.8973C17.3861 30.3529 17.3861 31.0916 17.8417 31.5472C18.2973 32.0028 19.036 32.0028 19.4916 31.5472L19.8333 31.2055V34.6111C19.8333 35.2554 20.3557 35.7778 21 35.7778C21.6443 35.7778 22.1667 35.2554 22.1667 34.6111V31.2055L22.5084 31.5472C22.964 32.0028 23.7027 32.0028 24.1583 31.5472C24.6139 31.0916 24.6139 30.3529 24.1583 29.8973Z" fill="white"/>
</svg>