<svg xmlns="http://www.w3.org/2000/svg" width="76" height="14" viewBox="0 0 76 14" fill="none">
  <g clip-path="url(#clip0_10515_6976)">
    <path fill-rule="evenodd" clip-rule="evenodd" d="M4.07299 11.7607C6.82009 11.7607 8.14636 10.2174 8.14636 7.94942V2.48572H6.18398V7.89482C6.18398 9.16542 5.46678 10.0397 4.07299 10.0397C2.67919 10.0397 1.94849 9.16542 1.94849 7.89482V2.48572H0V7.96341C0 10.2034 1.32628 11.7607 4.07299 11.7607ZM75.6303 1.68034L75.6307 1.70233C75.6307 2.63951 74.8791 3.39827 73.9503 3.39827C73.0225 3.39827 72.2704 2.63951 72.2704 1.70233C72.2704 0.76549 73.0225 0.00634766 73.9503 0.00634766H75.6303V1.68034ZM20.0088 11.5966V9.88933H15.6518L19.9147 4.04304V2.48572H13.1347V4.19341H17.3976L13.1347 10.0257V11.5966H20.0088ZM29.4379 11.7607C31.4269 11.7607 32.5637 10.6541 33.2133 9.52034L31.5624 8.71464C31.1834 9.46578 30.3717 10.0397 29.4379 10.0397C27.8006 10.0397 26.6102 8.76915 26.6102 7.04777C26.6102 5.32719 27.8006 4.05668 29.4379 4.05668C30.3717 4.05668 31.1834 4.64423 31.5624 5.38137L33.2133 4.56163C32.5776 3.42822 31.4269 2.33571 29.4379 2.33571C26.7314 2.33571 24.6343 4.24797 24.6343 7.04777C24.6343 9.84802 26.7314 11.7607 29.4379 11.7607ZM46.4722 11.5966L42.9941 2.48572H40.5859L37.0942 11.5966H39.2866L39.8548 10.053H43.7248L44.2798 11.5966H46.4722ZM43.1975 8.34564H40.3825L41.7902 4.42525L43.1975 8.34564ZM58.9508 13.8794L55.6381 8.12669C56.6125 7.89482 57.6141 7.03453 57.6141 5.42305C57.6141 3.72938 56.4638 2.48572 54.5829 2.48572H50.361V11.5966H52.2824V8.35963H53.6896L56.7445 13.8794H58.9508ZM54.299 6.65234H52.2824V4.19341H54.299C55.0697 4.19341 55.6521 4.65786 55.6521 5.42305C55.6521 6.18753 55.0697 6.65234 54.299 6.65234ZM66.1615 11.5966C68.9894 11.5966 70.9514 9.79384 70.9514 7.04777C70.9514 4.30253 68.9894 2.48572 66.1615 2.48572H62.603V11.5966H66.1615ZM66.1615 9.88933H64.5245V4.19341H66.1615C68.0158 4.19341 68.9894 5.43597 68.9894 7.04777C68.9894 8.5915 67.9477 9.88933 66.1615 9.88933Z" fill="#101217"/>
  </g>
  <defs>
    <clipPath id="clip0_10515_6976">
      <rect width="76" height="13.9877" fill="white" transform="translate(0 0.00634766)"/>
    </clipPath>
  </defs>
</svg>