<svg xmlns="http://www.w3.org/2000/svg" width="76" height="15" viewBox="0 0 76 15" fill="none">
  <g clip-path="url(#clip0_10598_722)">
    <path fill-rule="evenodd" clip-rule="evenodd" d="M4.07299 12.2605C6.82009 12.2605 8.14636 10.7171 8.14636 8.44918V2.98548H6.18398V8.39458C6.18398 9.66518 5.46678 10.5395 4.07299 10.5395C2.67919 10.5395 1.94849 9.66518 1.94849 8.39458V2.98548H0V8.46316C0 10.7031 1.32628 12.2605 4.07299 12.2605ZM75.6303 2.1801L75.6307 2.20208C75.6307 3.13927 74.8791 3.89803 73.9503 3.89803C73.0225 3.89803 72.2704 3.13927 72.2704 2.20208C72.2704 1.26525 73.0225 0.506104 73.9503 0.506104H75.6303V2.1801ZM20.0088 12.0964V10.3891H15.6518L19.9147 4.5428V2.98548H13.1347V4.69316H17.3976L13.1347 10.5255V12.0964H20.0088ZM29.4379 12.2605C31.4269 12.2605 32.5637 11.1539 33.2133 10.0201L31.5624 9.2144C31.1834 9.96554 30.3717 10.5395 29.4379 10.5395C27.8006 10.5395 26.6102 9.2689 26.6102 7.54753C26.6102 5.82694 27.8006 4.55643 29.4379 4.55643C30.3717 4.55643 31.1834 5.14398 31.5624 5.88112L33.2133 5.06139C32.5776 3.92798 31.4269 2.83546 29.4379 2.83546C26.7314 2.83546 24.6343 4.74772 24.6343 7.54753C24.6343 10.3478 26.7314 12.2605 29.4379 12.2605ZM46.4722 12.0964L42.9941 2.98548H40.5859L37.0942 12.0964H39.2866L39.8548 10.5527H43.7248L44.2798 12.0964H46.4722ZM43.1975 8.8454H40.3825L41.7902 4.92501L43.1975 8.8454ZM58.9508 14.3792L55.6381 8.62645C56.6125 8.39458 57.6141 7.53429 57.6141 5.92281C57.6141 4.22913 56.4638 2.98548 54.5829 2.98548H50.361V12.0964H52.2824V8.85939H53.6896L56.7445 14.3792H58.9508ZM54.299 7.15209H52.2824V4.69316H54.299C55.0697 4.69316 55.6521 5.15762 55.6521 5.92281C55.6521 6.68728 55.0697 7.15209 54.299 7.15209ZM66.1615 12.0964C68.9894 12.0964 70.9514 10.2936 70.9514 7.54753C70.9514 4.80229 68.9894 2.98548 66.1615 2.98548H62.603V12.0964H66.1615ZM66.1615 10.3891H64.5245V4.69316H66.1615C68.0158 4.69316 68.9894 5.93572 68.9894 7.54753C68.9894 9.09126 67.9477 10.3891 66.1615 10.3891Z" fill="white"/>
  </g>
  <defs>
    <clipPath id="clip0_10598_722">
      <rect width="76" height="13.9877" fill="white" transform="translate(0 0.506104)"/>
    </clipPath>
  </defs>
</svg>