<svg xmlns="http://www.w3.org/2000/svg" width="76" height="15" viewBox="0 0 76 15" fill="none">
  <g clip-path="url(#clip0_8743_882)">
    <path fill-rule="evenodd" clip-rule="evenodd" d="M4.07299 12.2602C6.82009 12.2602 8.14636 10.7169 8.14636 8.44893V2.98524H6.18398V8.39433C6.18398 9.66493 5.46678 10.5392 4.07299 10.5392C2.67919 10.5392 1.94849 9.66493 1.94849 8.39433V2.98524H0V8.46292C0 10.7029 1.32628 12.2602 4.07299 12.2602ZM75.6303 2.17985L75.6307 2.20184C75.6307 3.13903 74.8791 3.89779 73.9503 3.89779C73.0225 3.89779 72.2704 3.13903 72.2704 2.20184C72.2704 1.265 73.0225 0.505859 73.9503 0.505859H75.6303V2.17985ZM20.0088 12.0961V10.3888H15.6518L19.9147 4.54255V2.98524H13.1347V4.69292H17.3976L13.1347 10.5252V12.0961H20.0088ZM29.4379 12.2602C31.4269 12.2602 32.5637 11.1536 33.2133 10.0198L31.5624 9.21415C31.1834 9.96529 30.3717 10.5392 29.4379 10.5392C27.8006 10.5392 26.6102 9.26866 26.6102 7.54728C26.6102 5.8267 27.8006 4.55619 29.4379 4.55619C30.3717 4.55619 31.1834 5.14374 31.5624 5.88088L33.2133 5.06115C32.5776 3.92773 31.4269 2.83522 29.4379 2.83522C26.7314 2.83522 24.6343 4.74748 24.6343 7.54728C24.6343 10.3475 26.7314 12.2602 29.4379 12.2602ZM46.4722 12.0961L42.9941 2.98524H40.5859L37.0942 12.0961H39.2866L39.8548 10.5525H43.7248L44.2798 12.0961H46.4722ZM43.1975 8.84516H40.3825L41.7902 4.92477L43.1975 8.84516ZM58.9508 14.3789L55.6381 8.6262C56.6125 8.39433 57.6141 7.53404 57.6141 5.92256C57.6141 4.22889 56.4638 2.98524 54.5829 2.98524H50.361V12.0961H52.2824V8.85915H53.6896L56.7445 14.3789H58.9508ZM54.299 7.15185H52.2824V4.69292H54.299C55.0697 4.69292 55.6521 5.15738 55.6521 5.92256C55.6521 6.68704 55.0697 7.15185 54.299 7.15185ZM66.1615 12.0961C68.9894 12.0961 70.9514 10.2934 70.9514 7.54728C70.9514 4.80204 68.9894 2.98524 66.1615 2.98524H62.603V12.0961H66.1615ZM66.1615 10.3888H64.5245V4.69292H66.1615C68.0158 4.69292 68.9894 5.93548 68.9894 7.54728C68.9894 9.09101 67.9477 10.3888 66.1615 10.3888Z" fill="#101217"/>
  </g>
  <defs>
    <clipPath id="clip0_8743_882">
      <rect width="76" height="13.9877" fill="white" transform="translate(0 0.505859)"/>
    </clipPath>
  </defs>
</svg>