<svg xmlns="http://www.w3.org/2000/svg" width="14" height="14" viewBox="0 0 14 14" fill="none">
  <path d="M9.04171 4.37499C9.04171 5.50258 8.12762 6.41666 7.00004 6.41666C5.87246 6.41666 4.95837 5.50258 4.95837 4.37499C4.95837 3.24741 5.87246 2.33333 7.00004 2.33333C8.12762 2.33333 9.04171 3.24741 9.04171 4.37499Z" fill="#1C274C"/>
  <path opacity="0.5" d="M11.375 4.37501C11.375 5.18042 10.7221 5.83334 9.91671 5.83334C9.11129 5.83334 8.45837 5.18042 8.45837 4.37501C8.45837 3.56959 9.11129 2.91667 9.91671 2.91667C10.7221 2.91667 11.375 3.56959 11.375 4.37501Z" fill="#1C274C"/>
  <path opacity="0.5" d="M2.62496 4.37501C2.62496 5.18042 3.27788 5.83334 4.08329 5.83334C4.88871 5.83334 5.54163 5.18042 5.54163 4.37501C5.54163 3.56959 4.88871 2.91667 4.08329 2.91667C3.27788 2.91667 2.62496 3.56959 2.62496 4.37501Z" fill="#1C274C"/>
  <path d="M10.5 9.62499C10.5 10.7526 8.933 11.6667 7 11.6667C5.067 11.6667 3.5 10.7526 3.5 9.62499C3.5 8.49741 5.067 7.58333 7 7.58333C8.933 7.58333 10.5 8.49741 10.5 9.62499Z" fill="#1C274C"/>
  <path opacity="0.5" d="M12.8333 9.62501C12.8333 10.4304 11.7886 11.0833 10.5 11.0833C9.2113 11.0833 8.16663 10.4304 8.16663 9.62501C8.16663 8.81959 9.2113 8.16667 10.5 8.16667C11.7886 8.16667 12.8333 8.81959 12.8333 9.62501Z" fill="#1C274C"/>
  <path opacity="0.5" d="M1.16671 9.62501C1.16671 10.4304 2.21138 11.0833 3.50004 11.0833C4.7887 11.0833 5.83337 10.4304 5.83337 9.62501C5.83337 8.81959 4.7887 8.16667 3.50004 8.16667C2.21138 8.16667 1.16671 8.81959 1.16671 9.62501Z" fill="#1C274C"/>
</svg>