<svg width="70" height="23" viewBox="0 0 70 23" fill="none" xmlns="http://www.w3.org/2000/svg">
<path d="M24.8544 21.8469L28.3507 1.3296H33.943L30.4441 21.8469H24.8544ZM50.6488 1.77189C49.5411 1.35622 47.8048 0.910156 45.6368 0.910156C40.1106 0.910156 36.2183 3.69293 36.185 7.68121C36.1539 10.6294 38.964 12.2741 41.0852 13.2555C43.2622 14.2614 43.9939 14.9026 43.9834 15.8005C43.9695 17.1759 42.245 17.8039 40.6375 17.8039C38.3993 17.8039 37.2101 17.493 35.3735 16.7272L34.6526 16.4012L33.8679 20.9941C35.1741 21.5671 37.5894 22.063 40.0975 22.0888C45.9762 22.0888 49.7925 19.3378 49.8359 15.0787C49.8568 12.7446 48.3669 10.9686 45.1404 9.50415C43.1857 8.555 41.9886 7.92164 42.0013 6.96055C42.0013 6.10772 43.0145 5.19578 45.2042 5.19578C47.0327 5.16738 48.3577 5.56617 49.3898 5.98184L49.8909 6.21861L50.6488 1.77189ZM65.0401 1.32929H60.7188C59.3802 1.32929 58.3782 1.69465 57.7905 3.03075L49.4849 21.8334H55.3574C55.3574 21.8334 56.3174 19.3053 56.5345 18.7502C57.1763 18.7502 62.8812 18.759 63.6967 18.759C63.864 19.4773 64.3772 21.8334 64.3772 21.8334H69.5664L65.0401 1.32866V1.32929ZM58.1838 14.5781C58.6464 13.396 60.412 8.84259 60.412 8.84259C60.3791 8.8972 60.8712 7.65469 61.1535 6.88435L61.5314 8.65331C61.5314 8.65331 62.6022 13.5509 62.8261 14.5778H58.1838V14.5781ZM20.1068 1.32929L14.6318 15.3212L14.0485 12.4779C13.0291 9.2001 9.85353 5.64887 6.30334 3.871L11.3097 21.8142L17.2267 21.8076L26.031 1.32908L20.1068 1.32897" fill="#101217"/>
<path d="M9.52291 1.32812H0.505074L0.433594 1.75501C7.44938 3.45333 12.0915 7.55753 14.0189 12.4895L12.058 3.06092C11.7196 1.76172 10.7377 1.37393 9.52312 1.32865" fill="#F2AE14"/>
</svg>
