<svg xmlns="http://www.w3.org/2000/svg" width="70" height="23" viewBox="0 0 70 23" fill="none">
  <path d="M24.8543 21.8479L28.3506 1.33058H33.943L30.4441 21.8479H24.8543ZM50.6487 1.77287C49.541 1.3572 47.8048 0.911133 45.6367 0.911133C40.1106 0.911133 36.2183 3.69391 36.1849 7.68219C36.1538 10.6303 38.9639 12.2751 41.0852 13.2564C43.2621 14.2624 43.9938 14.9036 43.9833 15.8015C43.9694 17.1769 42.245 17.8049 40.6374 17.8049C38.3992 17.8049 37.2101 17.4939 35.3734 16.7282L34.6525 16.4022L33.8678 20.9951C35.1741 21.5681 37.5894 22.064 40.0975 22.0898C45.9762 22.0898 49.7925 19.3388 49.8358 15.0797C49.8567 12.7456 48.3668 10.9696 45.1403 9.50512C43.1856 8.55598 41.9885 7.92262 42.0012 6.96152C42.0012 6.1087 43.0145 5.19676 45.2041 5.19676C47.0326 5.16835 48.3576 5.56715 49.3898 5.98282L49.8909 6.21958L50.6487 1.77287ZM65.04 1.33026H60.7188C59.3801 1.33026 58.3782 1.69563 57.7904 3.03173L49.4848 21.8344H55.3574C55.3574 21.8344 56.3173 19.3063 56.5345 18.7511C57.1762 18.7511 62.8812 18.7599 63.6967 18.7599C63.864 19.4783 64.3771 21.8344 64.3771 21.8344H69.5664L65.04 1.32963V1.33026ZM58.1837 14.5791C58.6464 13.397 60.412 8.84357 60.412 8.84357C60.3791 8.89818 60.8711 7.65567 61.1534 6.88533L61.5313 8.65429C61.5313 8.65429 62.6022 13.5519 62.826 14.5788H58.1837V14.5791ZM20.1068 1.33026L14.6317 15.3222L14.0484 12.4789C13.0291 9.20107 9.85347 5.64984 6.30328 3.87198L11.3097 21.8152L17.2266 21.8086L26.031 1.33005L20.1068 1.32995" fill="white"/>
  <path d="M9.52291 1.3291H0.505074L0.433594 1.75599C7.44938 3.45431 12.0915 7.5585 14.0189 12.4905L12.058 3.0619C11.7196 1.76269 10.7377 1.3749 9.52312 1.32962" fill="#F2AE14"/>
</svg>