<svg xmlns="http://www.w3.org/2000/svg" width="14" height="14" viewBox="0 0 14 14" fill="none">
  <path d="M10.5 4.66667C10.5 5.311 9.97763 5.83333 9.33329 5.83333C8.68896 5.83333 8.16663 5.311 8.16663 4.66667C8.16663 4.02233 8.68896 3.5 9.33329 3.5C9.97763 3.5 10.5 4.02233 10.5 4.66667Z" fill="#1C274C"/>
  <path fill-rule="evenodd" clip-rule="evenodd" d="M6.96649 0.729164H7.03343C8.37999 0.729157 9.43526 0.729151 10.2586 0.83985C11.1014 0.953156 11.7664 1.1896 12.2884 1.71158C12.8104 2.23355 13.0468 2.89856 13.1601 3.74133C13.2708 4.56469 13.2708 5.61997 13.2708 6.96653V7.01803C13.2708 8.13149 13.2708 9.043 13.2103 9.78515C13.1496 10.531 13.025 11.1542 12.7463 11.6718C12.6234 11.9001 12.4723 12.1045 12.2884 12.2884C11.7664 12.8104 11.1014 13.0468 10.2586 13.1601C9.43526 13.2708 8.37999 13.2708 7.03343 13.2708H6.96649C5.61993 13.2708 4.56466 13.2708 3.74129 13.1601C2.89853 13.0468 2.23351 12.8104 1.71154 12.2884C1.24879 11.8257 1.00982 11.2497 0.882747 10.5353C0.757913 9.8334 0.735077 8.96018 0.730333 7.87586C0.729126 7.60005 0.729126 7.30834 0.729126 7.00058L0.729126 6.96653C0.729119 5.61996 0.729113 4.56469 0.839812 3.74133C0.953118 2.89856 1.18957 2.23355 1.71154 1.71158C2.23351 1.1896 2.89853 0.953156 3.74129 0.83985C4.56466 0.729151 5.61993 0.729157 6.96649 0.729164ZM3.85788 1.70705C3.11214 1.80731 2.66256 1.998 2.33026 2.3303C1.99796 2.6626 1.80727 3.11218 1.70701 3.85792C1.60506 4.61624 1.60413 5.6127 1.60413 7C1.60413 7.3084 1.60413 7.59832 1.60532 7.87203C1.61011 8.96527 1.63454 9.76534 1.74423 10.382C1.85167 10.9861 2.03447 11.3739 2.33026 11.6697C2.66256 12.002 3.11214 12.1927 3.85788 12.2929C4.6162 12.3949 5.61266 12.3958 6.99996 12.3958C8.38726 12.3958 9.38372 12.3949 10.142 12.2929C10.8878 12.1927 11.3374 12.002 11.6697 11.6697C11.7921 11.5472 11.8925 11.4118 11.9759 11.2569C12.1694 10.8976 12.2809 10.417 12.3382 9.71409C12.3955 9.01148 12.3958 8.13509 12.3958 7C12.3958 5.6127 12.3949 4.61624 12.2929 3.85792C12.1926 3.11218 12.002 2.6626 11.6697 2.3303C11.3374 1.998 10.8878 1.80731 10.142 1.70705C9.38372 1.60509 8.38726 1.60416 6.99996 1.60416C5.61266 1.60416 4.6162 1.60509 3.85788 1.70705Z" fill="#1C274C"/>
  <path opacity="0.4" d="M12.0206 11.1687L10.3695 9.68273C9.76315 9.13697 8.8601 9.08263 8.19263 9.55172L8.01868 9.67396C7.55483 9.99995 6.92378 9.94529 6.5229 9.5444L4.02056 7.04206C3.5211 6.54261 2.71994 6.51593 2.18837 6.98105L1.60437 7.49205C1.60453 7.62214 1.60483 7.74873 1.60537 7.87204C1.61015 8.96528 1.63459 9.76535 1.74427 10.382C1.85171 10.9861 2.03452 11.3739 2.3303 11.6697C2.6626 12.002 3.11219 12.1927 3.85792 12.293C4.61625 12.3949 5.61271 12.3958 7 12.3958C8.3873 12.3958 9.38376 12.3949 10.1421 12.293C10.8878 12.1927 11.3374 12.002 11.6697 11.6697C11.7922 11.5473 11.8925 11.4118 11.976 11.2569C11.9914 11.2283 12.0063 11.1989 12.0206 11.1687Z" fill="#1C274C"/>
</svg>