<svg xmlns="http://www.w3.org/2000/svg" width="28" height="28" viewBox="0 0 28 28" fill="none">
  <path opacity="0.5" d="M25.6673 13.9997C25.6673 20.443 20.444 25.6663 14.0007 25.6663C7.55733 25.6663 2.33398 20.443 2.33398 13.9997C2.33398 7.55635 7.55733 2.33301 14.0007 2.33301C20.444 2.33301 25.6673 7.55635 25.6673 13.9997Z" fill="#E99022"/>
  <path d="M14.0007 20.7087C14.4839 20.7087 14.8757 20.3169 14.8757 19.8337V12.8337C14.8757 12.3504 14.4839 11.9587 14.0007 11.9587C13.5174 11.9587 13.1257 12.3504 13.1257 12.8337V19.8337C13.1257 20.3169 13.5174 20.7087 14.0007 20.7087Z" fill="#E99022"/>
  <path d="M14.0007 8.16699C14.645 8.16699 15.1673 8.68933 15.1673 9.33366C15.1673 9.97799 14.645 10.5003 14.0007 10.5003C13.3563 10.5003 12.834 9.97799 12.834 9.33366C12.834 8.68933 13.3563 8.16699 14.0007 8.16699Z" fill="#E99022"/>
</svg>